<svg width="24" height="24" viewBox="0 0 24 24" fill="none" xmlns="http://www.w3.org/2000/svg">
<path fill-rule="evenodd" clip-rule="evenodd" d="M9.13033 2.86966C9.42322 3.16256 9.42322 3.63743 9.13033 3.93032L6.06066 6.99999L9.13033 10.0697C9.42322 10.3626 9.42322 10.8374 9.13033 11.1303C8.83744 11.4232 8.36256 11.4232 8.06967 11.1303L4.46967 7.53032C4.17678 7.23743 4.17678 6.76256 4.46967 6.46966L8.06967 2.86966C8.36256 2.57677 8.83744 2.57677 9.13033 2.86966Z" fill="#4F4F4F"/>
<path fill-rule="evenodd" clip-rule="evenodd" d="M4.25 6.99999C4.25 6.58578 4.58579 6.24999 5 6.24999H19C19.4142 6.24999 19.75 6.58578 19.75 6.99999C19.75 7.41421 19.4142 7.74999 19 7.74999H5C4.58579 7.74999 4.25 7.41421 4.25 6.99999Z" fill="#4F4F4F"/>
<path fill-rule="evenodd" clip-rule="evenodd" d="M14.8697 12.8697C15.1626 12.5768 15.6374 12.5768 15.9303 12.8697L19.5303 16.4697C19.8232 16.7626 19.8232 17.2374 19.5303 17.5303L15.9303 21.1303C15.6374 21.4232 15.1626 21.4232 14.8697 21.1303C14.5768 20.8374 14.5768 20.3626 14.8697 20.0697L17.9393 17L14.8697 13.9303C14.5768 13.6374 14.5768 13.1626 14.8697 12.8697Z" fill="#4F4F4F"/>
<path fill-rule="evenodd" clip-rule="evenodd" d="M4.25 17C4.25 16.5858 4.58579 16.25 5 16.25H19C19.4142 16.25 19.75 16.5858 19.75 17C19.75 17.4142 19.4142 17.75 19 17.75H5C4.58579 17.75 4.25 17.4142 4.25 17Z" fill="#4F4F4F"/>
</svg>
