<svg width="24" height="24" viewBox="0 0 24 24" fill="none" xmlns="http://www.w3.org/2000/svg">
<path fill-rule="evenodd" clip-rule="evenodd" d="M19.995 11.282C20.4092 11.2836 20.7437 11.6207 20.742 12.0349C20.7333 14.2598 19.8882 16.4865 18.1874 18.1873C14.7705 21.6042 9.22959 21.6042 5.8127 18.1873C5.2032 17.5778 4.70897 16.9004 4.31869 16.1853C4.12026 15.8217 4.25416 15.3661 4.61775 15.1677C4.98134 14.9692 5.43695 15.1031 5.63538 15.4667C5.96109 16.0636 6.37086 16.6242 6.87336 17.1267C9.70447 19.9578 14.2956 19.9578 17.1267 17.1267C18.5338 15.7195 19.2348 13.8782 19.242 12.0291C19.2437 11.6148 19.5808 11.2804 19.995 11.282Z" fill="#4F4F4F"/>
<path fill-rule="evenodd" clip-rule="evenodd" d="M17.1267 6.87333C14.2956 4.04222 9.70447 4.04222 6.87336 6.87333C5.48797 8.25872 4.78296 10.0642 4.75393 11.882C4.74732 12.2961 4.40622 12.6265 3.99206 12.6199C3.57789 12.6133 3.24751 12.2722 3.25413 11.858C3.2891 9.66777 4.14009 7.48528 5.8127 5.81267C9.22959 2.39578 14.7705 2.39578 18.1874 5.81267C18.7969 6.42217 19.2911 7.09957 19.6814 7.81472C19.8798 8.17831 19.7459 8.63392 19.3823 8.83235C19.0187 9.03077 18.5631 8.89687 18.3647 8.53328C18.039 7.93643 17.6292 7.37583 17.1267 6.87333Z" fill="#4F4F4F"/>
<path fill-rule="evenodd" clip-rule="evenodd" d="M19.488 3.889C19.9022 3.889 20.238 4.22479 20.238 4.639V8.175C20.238 8.58921 19.9022 8.925 19.488 8.925H15.953C15.5388 8.925 15.203 8.58921 15.203 8.175C15.203 7.76079 15.5388 7.425 15.953 7.425H18.738V4.639C18.738 4.22479 19.0738 3.889 19.488 3.889Z" fill="#4F4F4F"/>
<path fill-rule="evenodd" clip-rule="evenodd" d="M3.76203 15.825C3.76203 15.4108 4.09782 15.075 4.51203 15.075H8.04703C8.46124 15.075 8.79703 15.4108 8.79703 15.825C8.79703 16.2392 8.46124 16.575 8.04703 16.575H5.26203V19.361C5.26203 19.7752 4.92624 20.111 4.51203 20.111C4.09782 20.111 3.76203 19.7752 3.76203 19.361V15.825Z" fill="#4F4F4F"/>
</svg>
