<svg width="24" height="24" viewBox="0 0 24 24" fill="none" xmlns="http://www.w3.org/2000/svg">
<path fill-rule="evenodd" clip-rule="evenodd" d="M12.01 3.75999C12.4242 3.75999 12.76 4.09577 12.76 4.50999V19.5C12.76 19.9142 12.4242 20.25 12.01 20.25C11.5958 20.25 11.26 19.9142 11.26 19.5V4.50999C11.26 4.09577 11.5958 3.75999 12.01 3.75999Z" fill="#4F4F4F"/>
<path fill-rule="evenodd" clip-rule="evenodd" d="M12 3.74799C12.1998 3.74799 12.3913 3.82767 12.5321 3.96938L18.5091 9.98538C18.801 10.2792 18.7995 10.7541 18.5056 11.046C18.2118 11.338 17.7369 11.3364 17.445 11.0426L12 5.56211L6.55506 11.0426C6.26312 11.3364 5.78825 11.338 5.49441 11.046C5.20056 10.7541 5.19902 10.2792 5.49096 9.98538L11.468 3.96938C11.6087 3.82767 11.8003 3.74799 12 3.74799Z" fill="#4F4F4F"/>
</svg>
