<svg width="24" height="24" viewBox="0 0 24 24" fill="none" xmlns="http://www.w3.org/2000/svg">
<path fill-rule="evenodd" clip-rule="evenodd" d="M3.26001 11.98C3.26001 11.5658 3.5958 11.23 4.01001 11.23H19C19.4142 11.23 19.75 11.5658 19.75 11.98C19.75 12.3942 19.4142 12.73 19 12.73H4.01001C3.5958 12.73 3.26001 12.3942 3.26001 11.98Z" fill="#4F4F4F"/>
<path fill-rule="evenodd" clip-rule="evenodd" d="M10.5433 5.45763C10.8362 5.7505 10.8363 6.22537 10.5434 6.51829L5.06259 12L10.5434 17.4817C10.8363 17.7746 10.8362 18.2495 10.5433 18.5424C10.2504 18.8352 9.77551 18.8352 9.48264 18.5423L3.47164 12.5303C3.17881 12.2374 3.17881 11.7626 3.47164 11.4697L9.48264 5.45772C9.77551 5.1648 10.2504 5.16476 10.5433 5.45763Z" fill="#4F4F4F"/>
</svg>
