<svg width="24" height="24" viewBox="0 0 24 24" fill="none" xmlns="http://www.w3.org/2000/svg">
<path fill-rule="evenodd" clip-rule="evenodd" d="M12.01 3.76001C12.4242 3.76001 12.76 4.0958 12.76 4.51001V19.49C12.76 19.9042 12.4242 20.24 12.01 20.24C11.5958 20.24 11.26 19.9042 11.26 19.49V4.51001C11.26 4.0958 11.5958 3.76001 12.01 3.76001Z" fill="#4F4F4F"/>
<path fill-rule="evenodd" clip-rule="evenodd" d="M5.49264 12.9767C5.7855 12.6838 6.26038 12.6838 6.5533 12.9766L12 18.4224L17.4467 12.9766C17.7396 12.6838 18.2145 12.6838 18.5074 12.9767C18.8003 13.2696 18.8002 13.7445 18.5073 14.0374L12.5303 20.0134C12.2374 20.3062 11.7626 20.3062 11.4697 20.0134L5.49272 14.0374C5.19981 13.7445 5.19977 13.2696 5.49264 12.9767Z" fill="#4F4F4F"/>
</svg>
