<svg xmlns="http://www.w3.org/2000/svg" width="40" height="48" viewBox="0 0 40 48">
  <g id="logo" transform="translate(-51.999 -48.002)">
    <g id="flora_logo_signe_01" transform="translate(52 48.002)">
      <path id="flora_logo_signe_01-2" data-name="flora_logo_signe_01" d="M59.878,3.317l.044,9.91a9.867,9.867,0,0,0,7.857,9.65,16.806,16.806,0,0,0,3.465.335l8.319-.075a8.262,8.262,0,0,1-.09,2.182,1.647,1.647,0,0,1-1.55,1.112H69.256a9.848,9.848,0,0,0-9.378,9.1v9.2a3.287,3.287,0,0,1-3.313,3.3H53.316V29.787a5.293,5.293,0,0,1-4.819,4.02c-1.791.1-3.758.032-5.591.032,0-1.532-.264-5.014.173-6.69a5.309,5.309,0,0,1,3.666-3.76,6.692,6.692,0,0,1,2.039-.2h4.531V13.423h-.009l0-.2A9.871,9.871,0,0,0,44.6,3.4h0A1.72,1.72,0,0,1,42.971,1.68V.03L81.442.05a1.653,1.653,0,0,1,1.385,1.63v11.7a1.651,1.651,0,0,1-1.54,1.647l-1.726.007c0-.8-.015-1.59-.015-2.387a9.852,9.852,0,0,0-9.121-9.307c-.337-.023-.659-.024-1-.024H59.878Zm4.716,11.275a5.309,5.309,0,0,0,3.666,3.76,6.692,6.692,0,0,0,2.039.2h4.72l-.034-5.326a5.3,5.3,0,0,0-4.974-5.293c-1.791-.1-3.758-.032-5.591-.032,0,1.532-.265,5.014.173,6.691Z" transform="translate(-42.828 -0.029)" fill="#494949" fill-rule="evenodd"/>
    </g>
  </g>
</svg>
