<svg xmlns="http://www.w3.org/2000/svg" width="31.517" height="42" viewBox="0 0 31.517 42">
  <path id="flora_ecommerce_web_ico_tag_01" d="M.132,0H23.405a4.131,4.131,0,0,1,4.123,4.123V37.745a5.859,5.859,0,0,1-.652,3.01,2.455,2.455,0,0,1-1.513,1.169,2.689,2.689,0,0,1-1.808-.2,14.98,14.98,0,0,1-2.6-2.2l-9.129-8.154-9.4,8.589A14.825,14.825,0,0,1,0,41.769a2.575,2.575,0,0,1-1.887.066,2.738,2.738,0,0,1-1.381-1.16,5.546,5.546,0,0,1-.717-2.93V4.122A4.11,4.11,0,0,1-2.78,1.21,4.11,4.11,0,0,1,.133,0ZM23.405,2.466H.132a1.65,1.65,0,0,0-1.169.488,1.651,1.651,0,0,0-.488,1.169V37.745a3.176,3.176,0,0,0,.332,1.62.406.406,0,0,0,.139.158.332.332,0,0,0,.125-.037,6.911,6.911,0,0,0,1.2-1.149L10.8,28.587a1.23,1.23,0,0,1,2.034-.044l10.186,9.426a9.1,9.1,0,0,0,1.544,1.507.584.584,0,0,0,.19.068c.021-.005-.018-.014.01-.061a3.628,3.628,0,0,0,.3-1.738V4.122a1.665,1.665,0,0,0-1.657-1.657Z" transform="translate(3.99 0)" fill="#f9a828"/>
</svg>
