<svg width="24" height="24" viewBox="0 0 24 24" fill="none" xmlns="http://www.w3.org/2000/svg">
<path fill-rule="evenodd" clip-rule="evenodd" d="M12 9.25C12.4142 9.25 12.75 9.58579 12.75 10V13C12.75 13.4142 12.4142 13.75 12 13.75C11.5858 13.75 11.25 13.4142 11.25 13V10C11.25 9.58579 11.5858 9.25 12 9.25Z" fill="#4F4F4F"/>
<path fill-rule="evenodd" clip-rule="evenodd" d="M12 2.25C12.4142 2.25 12.75 2.58579 12.75 3V5C12.75 5.41421 12.4142 5.75 12 5.75C11.5858 5.75 11.25 5.41421 11.25 5V3C11.25 2.58579 11.5858 2.25 12 2.25Z" fill="#4F4F4F"/>
<path fill-rule="evenodd" clip-rule="evenodd" d="M6.49999 5.75C6.3622 5.75 6.24999 5.86221 6.24999 6V9C6.24999 9.13779 6.3622 9.25 6.49999 9.25H17.185C17.2566 9.25 17.3251 9.21923 17.3733 9.16436V9.16436L18.6899 7.65584C18.768 7.56647 18.7683 7.43382 18.6902 7.34445L17.3737 5.83606V5.83606C17.3255 5.7812 17.2566 5.75 17.185 5.75H6.49999ZM4.74999 6C4.74999 5.03379 5.53378 4.25 6.49999 4.25H17.185C17.6912 4.25 18.1705 4.46908 18.5023 4.84794L18.503 4.84884L19.8198 6.35755V6.35755C20.3914 7.01209 20.3916 7.98763 19.8201 8.64216V8.64216L18.503 10.1512L18.5023 10.1521C18.1705 10.5309 17.6912 10.75 17.185 10.75H6.49999C5.53378 10.75 4.74999 9.96621 4.74999 9V6Z" fill="#4F4F4F"/>
<path fill-rule="evenodd" clip-rule="evenodd" d="M6.81399 13.75C6.74107 13.75 6.6726 13.7817 6.62655 13.8346L5.30905 15.3442C5.23097 15.4335 5.23072 15.5662 5.3088 15.6556L6.62526 17.1639V17.1639C6.67353 17.2189 6.74236 17.25 6.81399 17.25H17.499C17.6368 17.25 17.749 17.1378 17.749 17V14C17.749 13.8622 17.6368 13.75 17.499 13.75H6.81399ZM5.49569 12.8491C5.82764 12.4682 6.30905 12.25 6.81399 12.25H17.499C18.4652 12.25 19.249 13.0338 19.249 14V17C19.249 17.9662 18.4652 18.75 17.499 18.75H6.81399C6.30776 18.75 5.82844 18.5309 5.49672 18.1521L4.17918 16.6424C3.60759 15.9879 3.60734 15.0124 4.17893 14.3578L5.49569 12.8491V12.8491Z" fill="#4F4F4F"/>
<path fill-rule="evenodd" clip-rule="evenodd" d="M12 17.25C12.4142 17.25 12.75 17.5858 12.75 18V21C12.75 21.4142 12.4142 21.75 12 21.75C11.5858 21.75 11.25 21.4142 11.25 21V18C11.25 17.5858 11.5858 17.25 12 17.25Z" fill="#4F4F4F"/>
</svg>
