<svg width="24" height="24" viewBox="0 0 24 24" fill="none" xmlns="http://www.w3.org/2000/svg">
<path fill-rule="evenodd" clip-rule="evenodd" d="M6.18667 4.18667C6.47956 3.89378 6.95444 3.89378 7.24733 4.18667L9.70233 6.64167C10.3731 7.31248 10.75 8.22331 10.75 9.172C10.75 11.1482 9.14821 12.75 7.172 12.75H3C2.58579 12.75 2.25 12.4142 2.25 12C2.25 11.5858 2.58579 11.25 3 11.25H7.172C8.31979 11.25 9.25 10.3198 9.25 9.172C9.25 8.62069 9.03086 8.09152 8.64167 7.70233L6.18667 5.24733C5.89378 4.95444 5.89378 4.47956 6.18667 4.18667Z" fill="#4F4F4F"/>
<path fill-rule="evenodd" clip-rule="evenodd" d="M16.072 9.75C15.6985 9.75 15.3577 9.96101 15.192 10.293L14.0588 12.5594C13.9204 12.8363 13.9204 13.1627 14.0588 13.4396L14.1918 13.7056C14.3589 14.0397 14.6993 14.25 15.072 14.25C15.9033 14.25 16.6782 14.6657 17.139 15.3569C17.139 15.3569 17.139 15.3569 17.139 15.3569L18.916 18.0219C19.1458 18.3665 19.0527 18.8322 18.7081 19.062C18.3635 19.2918 17.8978 19.1987 17.668 18.8541L15.891 16.1891C15.7078 15.9143 15.4007 15.75 15.072 15.75C14.1307 15.75 13.2711 15.2183 12.8502 14.3764L12.7172 14.1104C12.3676 13.4113 12.3676 12.5877 12.7172 11.8886L13.85 9.62305C14.2703 8.78126 15.1317 8.25 16.072 8.25H20.48C20.8942 8.25 21.23 8.58579 21.23 9C21.23 9.41421 20.8942 9.75 20.48 9.75H16.072Z" fill="#4F4F4F"/>
<path fill-rule="evenodd" clip-rule="evenodd" d="M11.25 3C11.25 2.58579 11.5858 2.25 12 2.25C17.3962 2.25 21.75 6.60379 21.75 12C21.75 17.3962 17.3962 21.75 12 21.75C11.5858 21.75 11.25 21.4142 11.25 21C11.25 20.5858 11.5858 20.25 12 20.25C16.5678 20.25 20.25 16.5678 20.25 12C20.25 7.43221 16.5678 3.75 12 3.75C11.5858 3.75 11.25 3.41421 11.25 3Z" fill="#4F4F4F"/>
<path fill-rule="evenodd" clip-rule="evenodd" d="M12 3.75C7.43221 3.75 3.75 7.43221 3.75 12C3.75 16.5678 7.43221 20.25 12 20.25C12.4142 20.25 12.75 20.5858 12.75 21C12.75 21.4142 12.4142 21.75 12 21.75C6.60379 21.75 2.25 17.3962 2.25 12C2.25 6.60379 6.60379 2.25 12 2.25C12.4142 2.25 12.75 2.58579 12.75 3C12.75 3.41421 12.4142 3.75 12 3.75Z" fill="#4F4F4F"/>
</svg>
