<svg width="24" height="24" viewBox="0 0 24 24" fill="none" xmlns="http://www.w3.org/2000/svg">
<path fill-rule="evenodd" clip-rule="evenodd" d="M9.86969 3.49966V3.49966L14.6049 5.07641C14.862 5.1621 15.1388 5.16217 15.3958 5.07649L19.4465 3.7266C20.5797 3.34827 21.75 4.1925 21.75 5.387V15.764C21.75 16.8051 21.1615 17.7578 20.2294 18.2238L16.2299 20.2236C15.4555 20.6115 14.5435 20.6115 13.7691 20.2236L9.55853 18.1178C9.20693 17.9417 8.79248 17.9415 8.44089 18.1176L4.78281 19.9466C3.61838 20.5297 2.25 19.6819 2.25 18.382V7.442C2.25 6.25849 3.00728 5.20665 4.13088 4.83247V4.83247L8.13031 3.49966V3.49966C8.69437 3.31124 9.30562 3.31128 9.86969 3.49966ZM8.60512 4.92253L4.60512 6.25553C4.09483 6.42542 3.75 6.90358 3.75 7.442V18.382C3.75 18.5681 3.94562 18.6883 4.11119 18.6054L7.76911 16.7764C8.54328 16.3888 9.45532 16.3886 10.2295 16.7762V16.7762L14.4405 18.8822C14.7921 19.0583 15.2065 19.0585 15.5581 18.8824L19.5586 16.8822C19.9825 16.6702 20.25 16.2369 20.25 15.764V5.387C20.25 5.2155 20.0823 5.09574 19.9215 5.1494L15.8702 6.49951C15.3052 6.68783 14.6958 6.68783 14.1308 6.49951L9.39505 4.92259C9.13932 4.83714 8.86085 4.83708 8.60512 4.92253Z" fill="#4F4F4F"/>
<path fill-rule="evenodd" clip-rule="evenodd" d="M15 8.78C15.4142 8.78 15.75 9.11579 15.75 9.53V15.47C15.75 15.8842 15.4142 16.22 15 16.22C14.5858 16.22 14.25 15.8842 14.25 15.47V9.53C14.25 9.11579 14.5858 8.78 15 8.78Z" fill="#4F4F4F"/>
<path fill-rule="evenodd" clip-rule="evenodd" d="M9 6.78C9.41421 6.78 9.75 7.11579 9.75 7.53V13.47C9.75 13.8842 9.41421 14.22 9 14.22C8.58579 14.22 8.25 13.8842 8.25 13.47V7.53C8.25 7.11579 8.58579 6.78 9 6.78Z" fill="#4F4F4F"/>
</svg>
