<svg width="24" height="24" viewBox="0 0 24 24" fill="none" xmlns="http://www.w3.org/2000/svg">
<path fill-rule="evenodd" clip-rule="evenodd" d="M16.3573 5.36175C17.7626 4.8409 19.1311 6.20942 18.6102 7.61466L14.5482 18.5737C13.9487 20.1887 11.6229 20.0611 11.2036 18.3906L10.0796 13.9019L5.57526 12.7704C3.9054 12.3507 3.77855 10.0262 5.39298 9.42688L16.3573 5.36175ZM13.1419 18.052L17.2037 7.09334C17.2789 6.89061 17.0814 6.69314 16.8787 6.76822V6.76822L5.915 10.8331V10.8331C5.68157 10.9199 5.70069 11.2552 5.94072 11.3156V11.3156L10.8807 12.5566C11.149 12.624 11.3583 12.8335 11.4255 13.1018L12.6584 18.0254C12.719 18.2669 13.0554 18.285 13.1419 18.052Z" fill="#4F4F4F"/>
</svg>
