<svg width="24" height="24" viewBox="0 0 24 24" fill="none" xmlns="http://www.w3.org/2000/svg">
<mask id="mask0" mask-type="alpha" maskUnits="userSpaceOnUse" x="0" y="0" width="24" height="24">
<path d="M21.7143 0H2.28571C1.02335 0 0 1.43269 0 3.2V20.8C0 22.5673 1.02335 24 2.28571 24H21.7143C22.9767 24 24 22.5673 24 20.8V3.2C24 1.43269 22.9767 0 21.7143 0Z" fill="white"/>
</mask>
<g mask="url(#mask0)">
<path d="M21.7143 0H2.28571C1.02335 0 0 1.43269 0 3.2V20.8C0 22.5673 1.02335 24 2.28571 24H21.7143C22.9767 24 24 22.5673 24 20.8V3.2C24 1.43269 22.9767 0 21.7143 0Z" fill="white"/>
<path fill-rule="evenodd" clip-rule="evenodd" d="M0 0H10.2857V11.2H0V0Z" fill="#444379"/>
<path fill-rule="evenodd" clip-rule="evenodd" d="M1.14282 1.60001V3.20001H2.28568V1.60001H1.14282ZM3.42854 1.60001V3.20001H4.57139V1.60001H3.42854ZM5.71425 1.60001V3.20001H6.85711V1.60001H5.71425ZM7.99997 1.60001V3.20001H9.14282V1.60001H7.99997ZM6.85711 3.20001V4.80001H7.99997V3.20001H6.85711ZM4.57139 3.20001V4.80001H5.71425V3.20001H4.57139ZM2.28568 3.20001V4.80001H3.42854V3.20001H2.28568ZM1.14282 4.80001V6.40001H2.28568V4.80001H1.14282ZM3.42854 4.80001V6.40001H4.57139V4.80001H3.42854ZM5.71425 4.80001V6.40001H6.85711V4.80001H5.71425ZM7.99997 4.80001V6.40001H9.14282V4.80001H7.99997ZM1.14282 8.00001V9.60001H2.28568V8.00001H1.14282ZM3.42854 8.00001V9.60001H4.57139V8.00001H3.42854ZM5.71425 8.00001V9.60001H6.85711V8.00001H5.71425ZM7.99997 8.00001V9.60001H9.14282V8.00001H7.99997ZM6.85711 6.40001V8.00001H7.99997V6.40001H6.85711ZM4.57139 6.40001V8.00001H5.71425V6.40001H4.57139ZM2.28568 6.40001V8.00001H3.42854V6.40001H2.28568Z" fill="#A7B6E7"/>
<path fill-rule="evenodd" clip-rule="evenodd" d="M10.2857 0V1.6H24V0H10.2857ZM10.2857 3.2V4.8H24V3.2H10.2857ZM10.2857 6.4V8H24V6.4H10.2857ZM10.2857 9.6V11.2H24V9.6H10.2857ZM0 12.8V14.4H24V12.8H0ZM0 16V17.6H24V16H0ZM0 19.2V20.8H24V19.2H0ZM0 22.4V24H24V22.4H0Z" fill="#ED4C49"/>
<path d="M21.7144 0.800003H2.28582C1.33904 0.800003 0.571533 1.87452 0.571533 3.2V20.8C0.571533 22.1255 1.33904 23.2 2.28582 23.2H21.7144C22.6612 23.2 23.4287 22.1255 23.4287 20.8V3.2C23.4287 1.87452 22.6612 0.800003 21.7144 0.800003Z" stroke="black" stroke-opacity="0.1"/>
</g>
</svg>
