<svg width="24" height="24" viewBox="0 0 24 24" fill="none" xmlns="http://www.w3.org/2000/svg">
<mask id="mask0" mask-type="alpha" maskUnits="userSpaceOnUse" x="0" y="0" width="24" height="24">
<path d="M21.7143 0H2.28571C1.02335 0 0 1.43269 0 3.2V20.8C0 22.5673 1.02335 24 2.28571 24H21.7143C22.9767 24 24 22.5673 24 20.8V3.2C24 1.43269 22.9767 0 21.7143 0Z" fill="white"/>
</mask>
<g mask="url(#mask0)">
<path d="M21.7143 0H2.28571C1.02335 0 0 1.43269 0 3.2V20.8C0 22.5673 1.02335 24 2.28571 24H21.7143C22.9767 24 24 22.5673 24 20.8V3.2C24 1.43269 22.9767 0 21.7143 0Z" fill="white"/>
<path fill-rule="evenodd" clip-rule="evenodd" d="M12 14.4C13.5771 14.4 14.8571 13.3248 14.8571 12C14.8571 10.6752 13.5771 9.6 12 9.6C10.4228 9.6 9.14282 10.6752 9.14282 12C9.14282 13.3248 10.4228 14.4 12 14.4ZM12 13.2C12.9463 13.2 13.7143 12.3936 13.7143 11.4C13.7143 10.408 12.9463 9.6 12 9.6C11.0537 9.6 10.2857 10.4064 10.2857 11.4C10.2857 12.392 11.0537 13.2 12 13.2Z" fill="#DD0000"/>
<path d="M11.9999 12.8C12.3155 12.8 12.5713 12.0837 12.5713 11.2C12.5713 10.3163 12.3155 9.6 11.9999 9.6C11.6843 9.6 11.4285 10.3163 11.4285 11.2C11.4285 12.0837 11.6843 12.8 11.9999 12.8Z" fill="#DD0000"/>
<path fill-rule="evenodd" clip-rule="evenodd" d="M0 16H24V24H0V16Z" fill="#DD0000"/>
<path fill-rule="evenodd" clip-rule="evenodd" d="M0 0H24V8H0V0Z" fill="#17A03A"/>
<path d="M21.7144 0.8H2.28582C1.33904 0.8 0.571533 1.87452 0.571533 3.2V20.8C0.571533 22.1255 1.33904 23.2 2.28582 23.2H21.7144C22.6612 23.2 23.4287 22.1255 23.4287 20.8V3.2C23.4287 1.87452 22.6612 0.8 21.7144 0.8Z" stroke="black" stroke-opacity="0.1"/>
</g>
</svg>
