<svg width="24" height="24" viewBox="0 0 24 24" fill="none" xmlns="http://www.w3.org/2000/svg">
<path fill-rule="evenodd" clip-rule="evenodd" d="M17 11.75C14.6532 11.75 12.75 13.6532 12.75 16C12.75 18.3468 14.6532 20.25 17 20.25C19.3477 20.25 21.25 18.3469 21.25 16C21.25 13.6531 19.3477 11.75 17 11.75ZM17 21.75C20.1763 21.75 22.75 19.1751 22.75 16C22.75 12.8249 20.1763 10.25 17 10.25C13.8248 10.25 11.25 12.8248 11.25 16C11.25 19.1752 13.8248 21.75 17 21.75Z" fill="#4F4F4F"/>
<path fill-rule="evenodd" clip-rule="evenodd" d="M1.25 6.85C1.25 6.43579 1.58579 6.1 2 6.1H21C21.4142 6.1 21.75 6.43579 21.75 6.85C21.75 7.26421 21.4142 7.6 21 7.6H2C1.58579 7.6 1.25 7.26421 1.25 6.85Z" fill="#4F4F4F"/>
<path fill-rule="evenodd" clip-rule="evenodd" d="M1.25 5C1.25 3.48079 2.48079 2.25 4 2.25H19C20.5192 2.25 21.75 3.48079 21.75 5V13C21.75 13.4142 21.4142 13.75 21 13.75C20.5858 13.75 20.25 13.4142 20.25 13V5C20.25 4.30921 19.6908 3.75 19 3.75H4C3.30921 3.75 2.75 4.30921 2.75 5V14C2.75 14.6908 3.30921 15.25 4 15.25H12C12.4142 15.25 12.75 15.5858 12.75 16C12.75 16.4142 12.4142 16.75 12 16.75H4C2.48079 16.75 1.25 15.5192 1.25 14V5Z" fill="#4F4F4F"/>
<path fill-rule="evenodd" clip-rule="evenodd" d="M17 13.25C17.4142 13.25 17.75 13.5858 17.75 14V18C17.75 18.4142 17.4142 18.75 17 18.75C16.5858 18.75 16.25 18.4142 16.25 18V14C16.25 13.5858 16.5858 13.25 17 13.25Z" fill="#4F4F4F"/>
<path fill-rule="evenodd" clip-rule="evenodd" d="M14.25 16C14.25 15.5858 14.5858 15.25 15 15.25H19C19.4142 15.25 19.75 15.5858 19.75 16C19.75 16.4142 19.4142 16.75 19 16.75H15C14.5858 16.75 14.25 16.4142 14.25 16Z" fill="#4F4F4F"/>
</svg>
