<svg width="24" height="24" viewBox="0 0 24 24" fill="none" xmlns="http://www.w3.org/2000/svg">
<path fill-rule="evenodd" clip-rule="evenodd" d="M18.4519 5.17455C18.2736 4.51433 17.5835 4.11602 16.9228 4.2918L6.8801 6.96772C6.21083 7.14599 5.81455 7.83277 5.99501 8.50027L6.28226 9.5682C6.38985 9.96819 6.15281 10.3797 5.75281 10.4873C5.35281 10.5949 4.94133 10.3578 4.83374 9.95782L4.54699 8.89174V8.89174C4.14973 7.4214 5.02335 5.91002 6.4939 5.51829V5.51829L16.5369 2.84229C17.9962 2.45407 19.5064 3.32569 19.9001 4.78346L21.6542 11.2929C22.0503 12.7631 21.1757 14.2738 19.7074 14.6657L17.593 15.2287C17.1927 15.3353 16.7819 15.0973 16.6753 14.697C16.5687 14.2968 16.8067 13.8859 17.207 13.7793L19.3206 13.2164V13.2164C19.9883 13.0381 20.3857 12.3509 20.2058 11.6832V11.6832L18.4519 5.17455Z" fill="#4F4F4F"/>
<path fill-rule="evenodd" clip-rule="evenodd" d="M2.25 11.763C2.25 10.2438 3.48079 9.01301 5 9.01301H15.4C16.9192 9.01301 18.15 10.2438 18.15 11.763V18.5C18.15 20.0192 16.9192 21.25 15.4 21.25H5C3.48203 21.25 2.25 20.0195 2.25 18.5V11.763ZM5 10.513C4.30921 10.513 3.75 11.0722 3.75 11.763V18.5C3.75 19.1906 4.30997 19.75 5 19.75H15.4C16.0908 19.75 16.65 19.1908 16.65 18.5V11.763C16.65 11.0722 16.0908 10.513 15.4 10.513H5Z" fill="#4F4F4F"/>
<path fill-rule="evenodd" clip-rule="evenodd" d="M2.25 13.84C2.25 13.4258 2.58579 13.09 3 13.09H17.4C17.8142 13.09 18.15 13.4258 18.15 13.84C18.15 14.2542 17.8142 14.59 17.4 14.59H3C2.58579 14.59 2.25 14.2542 2.25 13.84Z" fill="#4F4F4F"/>
</svg>
