<svg width="24" height="24" viewBox="0 0 24 24" fill="none" xmlns="http://www.w3.org/2000/svg">
<path fill-rule="evenodd" clip-rule="evenodd" d="M5.11931 4.06305C8.93715 0.311259 15.0619 0.311365 18.8806 4.06298C22.7068 7.82191 22.7068 13.8631 18.8806 17.622C18.5851 17.9123 18.1103 17.9081 17.82 17.6126C17.5297 17.3171 17.5339 16.8423 17.8294 16.552C21.0572 13.3809 21.0572 8.30407 17.8294 5.133C14.5941 1.95461 9.40484 1.95472 6.17068 5.13292C2.94367 8.30411 2.94289 13.381 6.1706 16.552C6.46608 16.8423 6.47029 17.3171 6.18001 17.6126C5.88972 17.9081 5.41487 17.9123 5.11939 17.622C1.2931 13.863 1.29432 7.82187 5.11931 4.06305Z" fill="#4F4F4F"/>
<path fill-rule="evenodd" clip-rule="evenodd" d="M3.35 21C3.35 20.5858 3.68578 20.25 4.1 20.25H20.1C20.5142 20.25 20.85 20.5858 20.85 21C20.85 21.4142 20.5142 21.75 20.1 21.75H4.1C3.68578 21.75 3.35 21.4142 3.35 21Z" fill="#4F4F4F"/>
<path fill-rule="evenodd" clip-rule="evenodd" d="M12 5.24999C12.4142 5.24999 12.75 5.58577 12.75 5.99999V7.24999C12.75 7.6642 12.4142 7.99999 12 7.99999C11.5858 7.99999 11.25 7.6642 11.25 7.24999V5.99999C11.25 5.58577 11.5858 5.24999 12 5.24999Z" fill="#4F4F4F"/>
<path fill-rule="evenodd" clip-rule="evenodd" d="M12 14C12.4142 14 12.75 14.3358 12.75 14.75V16C12.75 16.4142 12.4142 16.75 12 16.75C11.5858 16.75 11.25 16.4142 11.25 16V14.75C11.25 14.3358 11.5858 14 12 14Z" fill="#4F4F4F"/>
<path fill-rule="evenodd" clip-rule="evenodd" d="M8.75 9.00499C8.75 7.62205 9.87051 6.49999 11.255 6.49999H12.625C14.0197 6.49999 15.1446 7.58798 15.2353 8.95015C15.2629 9.36345 14.9501 9.7208 14.5368 9.74833C14.1235 9.77585 13.7662 9.46312 13.7387 9.04983C13.6994 8.46 13.2143 7.99999 12.625 7.99999H11.255C10.6995 7.99999 10.25 8.44992 10.25 9.00499C10.25 9.46591 10.5639 9.86821 11.0106 9.98055L13.3536 10.5685C14.4684 10.8483 15.249 11.8504 15.249 12.999C15.249 14.3835 14.1269 15.504 12.744 15.504H11.374C9.97642 15.504 8.85185 14.4129 8.7626 13.049C8.73555 12.6356 9.04869 12.2786 9.46202 12.2516C9.87535 12.2245 10.2323 12.5377 10.2594 12.951C10.2981 13.5431 10.7836 14.004 11.374 14.004H12.744C13.2991 14.004 13.749 13.5545 13.749 12.999C13.749 12.5376 13.4356 12.1356 12.9884 12.0234L10.6454 11.4354C9.53217 11.1557 8.75 10.154 8.75 9.00499Z" fill="#4F4F4F"/>
</svg>
