<svg width="24" height="24" viewBox="0 0 24 24" fill="none" xmlns="http://www.w3.org/2000/svg">
<path fill-rule="evenodd" clip-rule="evenodd" d="M17 11.75C14.6532 11.75 12.75 13.6532 12.75 16C12.75 18.3468 14.6532 20.25 17 20.25C19.3477 20.25 21.25 18.3469 21.25 16C21.25 13.6531 19.3477 11.75 17 11.75ZM17 21.75C20.1763 21.75 22.75 19.1751 22.75 16C22.75 12.8249 20.1763 10.25 17 10.25C13.8248 10.25 11.25 12.8248 11.25 16C11.25 19.1752 13.8248 21.75 17 21.75Z" fill="#4F4F4F"/>
<path fill-rule="evenodd" clip-rule="evenodd" d="M1.25 6.85C1.25 6.43579 1.58579 6.1 2 6.1H21C21.4142 6.1 21.75 6.43579 21.75 6.85C21.75 7.26421 21.4142 7.6 21 7.6H2C1.58579 7.6 1.25 7.26421 1.25 6.85Z" fill="#4F4F4F"/>
<path fill-rule="evenodd" clip-rule="evenodd" d="M1.25 5C1.25 3.48079 2.48079 2.25 4 2.25H19C20.5192 2.25 21.75 3.48079 21.75 5V13C21.75 13.4142 21.4142 13.75 21 13.75C20.5858 13.75 20.25 13.4142 20.25 13V5C20.25 4.30921 19.6908 3.75 19 3.75H4C3.30921 3.75 2.75 4.30921 2.75 5V14C2.75 14.6908 3.30921 15.25 4 15.25H12C12.4142 15.25 12.75 15.5858 12.75 16C12.75 16.4142 12.4142 16.75 12 16.75H4C2.48079 16.75 1.25 15.5192 1.25 14V5Z" fill="#4F4F4F"/>
<path fill-rule="evenodd" clip-rule="evenodd" d="M18.9403 14.0597C19.2332 14.3526 19.2332 14.8274 18.9403 15.1203L16.1203 17.9403C15.8274 18.2332 15.3526 18.2332 15.0597 17.9403C14.7668 17.6474 14.7668 17.1726 15.0597 16.8797L17.8797 14.0597C18.1726 13.7668 18.6474 13.7668 18.9403 14.0597Z" fill="#4F4F4F"/>
<path fill-rule="evenodd" clip-rule="evenodd" d="M15.0597 14.0597C15.3526 13.7668 15.8274 13.7668 16.1203 14.0597L18.9403 16.8797C19.2332 17.1726 19.2332 17.6474 18.9403 17.9403C18.6474 18.2332 18.1726 18.2332 17.8797 17.9403L15.0597 15.1203C14.7668 14.8274 14.7668 14.3526 15.0597 14.0597Z" fill="#4F4F4F"/>
</svg>
