<svg width="24" height="24" viewBox="0 0 24 24" fill="none" xmlns="http://www.w3.org/2000/svg">
<path fill-rule="evenodd" clip-rule="evenodd" d="M2.25 8C2.25 7.58579 2.58579 7.25 3 7.25H21C21.4142 7.25 21.75 7.58579 21.75 8C21.75 8.41421 21.4142 8.75 21 8.75H3C2.58579 8.75 2.25 8.41421 2.25 8Z" fill="#4F4F4F"/>
<path fill-rule="evenodd" clip-rule="evenodd" d="M6.25 12.91C6.25 12.4958 6.58579 12.16 7 12.16H11C11.4142 12.16 11.75 12.4958 11.75 12.91C11.75 13.3242 11.4142 13.66 11 13.66H7C6.58579 13.66 6.25 13.3242 6.25 12.91Z" fill="#4F4F4F"/>
<path fill-rule="evenodd" clip-rule="evenodd" d="M5 4.75C4.30921 4.75 3.75 5.30921 3.75 6V15C3.75 15.6908 4.30921 16.25 5 16.25H11C11.4142 16.25 11.75 16.5858 11.75 17C11.75 17.4142 11.4142 17.75 11 17.75H5C3.48079 17.75 2.25 16.5192 2.25 15V6C2.25 4.48079 3.48079 3.25 5 3.25H19C20.5192 3.25 21.75 4.48079 21.75 6V11C21.75 11.4142 21.4142 11.75 21 11.75C20.5858 11.75 20.25 11.4142 20.25 11V6C20.25 5.30921 19.6908 4.75 19 4.75H5Z" fill="#4F4F4F"/>
<path fill-rule="evenodd" clip-rule="evenodd" d="M19.0668 13.3876V13.3876L21.2538 14.1743C21.5515 14.2813 21.75 14.5637 21.75 14.88V17.4C21.75 18.8277 20.773 19.9202 19.9824 20.5843C19.5689 20.9316 19.1592 21.2016 18.8546 21.3844C18.7015 21.4762 18.5729 21.5473 18.4809 21.5962C18.4348 21.6207 18.3978 21.6397 18.3712 21.653L18.3395 21.6689L18.3299 21.6736L18.3266 21.6751L18.3255 21.6757C18.3255 21.6757 18.3245 21.6761 18 21C17.6755 21.6761 17.675 21.6759 17.675 21.6759L17.6734 21.6751L17.6701 21.6736L17.6605 21.6689L17.6288 21.653C17.6022 21.6397 17.5652 21.6207 17.5191 21.5962C17.4271 21.5473 17.2985 21.4762 17.1454 21.3844C16.8408 21.2016 16.4311 20.9316 16.0176 20.5843C15.227 19.9202 14.25 18.8277 14.25 17.4V14.88C14.25 14.5637 14.4484 14.2815 14.7459 14.1743L16.9312 13.3876V13.3876C17.6216 13.1383 18.3764 13.1384 19.0668 13.3876ZM18 21L17.675 21.6759C17.8802 21.7744 18.1194 21.7746 18.3245 21.6761L18 21ZM18 20.1471C18.0264 20.1318 18.0541 20.1154 18.0829 20.0981C18.3408 19.9434 18.6811 19.7184 19.0176 19.4357C19.727 18.8398 20.25 18.1323 20.25 17.4V15.4073L18.5572 14.7984C18.1959 14.6679 17.8021 14.6679 17.4408 14.7984L15.75 15.4071V17.4C15.75 18.1323 16.273 18.8398 16.9824 19.4357C17.3189 19.7184 17.6592 19.9434 17.9171 20.0981C17.9459 20.1154 17.9736 20.1318 18 20.1471Z" fill="#4F4F4F"/>
</svg>
