<svg width="24" height="24" viewBox="0 0 24 24" fill="none" xmlns="http://www.w3.org/2000/svg">
<path fill-rule="evenodd" clip-rule="evenodd" d="M6.24793 6.99791C6.24793 6.5837 6.58372 6.24791 6.99793 6.24791H17.0021C17.4163 6.24791 17.7521 6.5837 17.7521 6.99791V20.0033C17.7521 20.2735 17.6068 20.5228 17.3717 20.656C17.1365 20.7891 16.848 20.7855 16.6163 20.6465L15.3345 19.8776L14.0537 20.6464C13.8162 20.7889 13.5194 20.789 13.2819 20.6465L12 19.8775L10.7181 20.6465C10.4806 20.789 10.1838 20.7889 9.94633 20.6464L8.66551 19.8776L7.38375 20.6465C7.15205 20.7855 6.86349 20.7891 6.62838 20.656C6.39326 20.5228 6.24793 20.2735 6.24793 20.0033V6.99791ZM7.74793 7.74791V18.6788L8.27981 18.3598C8.51736 18.2173 8.8141 18.2173 9.05161 18.3599L10.3324 19.1287L11.6142 18.3598C11.8517 18.2173 12.1483 18.2173 12.3858 18.3598L13.6676 19.1287L14.9484 18.3599C15.1859 18.2173 15.4827 18.2173 15.7202 18.3598L16.2521 18.6788V7.74791H7.74793Z" fill="#4F4F4F"/>
<path fill-rule="evenodd" clip-rule="evenodd" d="M9.24918 16.0017C9.24918 15.5874 9.58497 15.2517 9.99918 15.2517H14.0008C14.4151 15.2517 14.7508 15.5874 14.7508 16.0017C14.7508 16.4159 14.4151 16.7517 14.0008 16.7517H9.99918C9.58497 16.7517 9.24918 16.4159 9.24918 16.0017Z" fill="#4F4F4F"/>
<path fill-rule="evenodd" clip-rule="evenodd" d="M4.94397 2.24813C4.96165 2.24687 4.97937 2.24625 4.9971 2.24625H19.0029C19.0207 2.24625 19.0384 2.24687 19.0561 2.24813C20.64 2.36062 21.8392 3.72236 21.7538 5.3049V8.69093C21.8392 10.2735 20.64 11.6352 19.0561 11.7477C19.0384 11.749 19.0207 11.7496 19.0029 11.7496H17.0021C16.5879 11.7496 16.2521 11.4138 16.2521 10.9996C16.2521 10.5854 16.5879 10.2496 17.0021 10.2496H18.9735C19.7327 10.183 20.3029 9.52279 20.2552 8.75937C20.2543 8.7438 20.2538 8.72822 20.2538 8.71263V5.2832C20.2538 5.26761 20.2543 5.25202 20.2552 5.23646C20.3029 4.47303 19.7327 3.81283 18.9735 3.74625H5.02648C4.26738 3.81283 3.69714 4.47303 3.74481 5.23646C3.74578 5.25202 3.74626 5.26761 3.74626 5.2832V8.71363C3.74626 8.72922 3.74578 8.7448 3.74481 8.76036C3.69716 9.52353 4.26741 10.1834 5.02631 10.2496H6.99793C7.41214 10.2496 7.74793 10.5854 7.74793 10.9996C7.74793 11.4138 7.41214 11.7496 6.99793 11.7496H4.9971C4.97948 11.7496 4.96186 11.749 4.94429 11.7477C3.36037 11.6359 2.16089 10.2744 2.24626 8.69194V5.30489C2.16088 3.72235 3.36003 2.36062 4.94397 2.24813Z" fill="#4F4F4F"/>
<path fill-rule="evenodd" clip-rule="evenodd" d="M14.2812 10.4824C14.574 10.7754 14.5739 11.2502 14.2809 11.543L12.2611 13.5619C11.9685 13.8543 11.4944 13.8546 11.2014 13.5626L10.22 12.5842C9.92663 12.2917 9.92591 11.8168 10.2184 11.5235C10.5108 11.2302 10.9857 11.2294 11.279 11.5219L11.7302 11.9717L13.2205 10.4821C13.5135 10.1893 13.9884 10.1894 14.2812 10.4824Z" fill="#4F4F4F"/>
</svg>
