<svg width="24" height="24" viewBox="0 0 24 24" fill="none" xmlns="http://www.w3.org/2000/svg">
<path fill-rule="evenodd" clip-rule="evenodd" d="M5.27999 4.58424C4.6334 4.58424 4.10999 5.10765 4.10999 5.75424V15.3542C4.10999 16.0008 4.6334 16.5242 5.27999 16.5242H7.19999C7.6142 16.5242 7.94999 16.86 7.94999 17.2742V20.1523C7.94999 20.3336 8.16428 20.4298 8.29979 20.3092L12.3415 16.7139C12.4788 16.5917 12.6562 16.5242 12.84 16.5242H18.72C19.3666 16.5242 19.89 16.0008 19.89 15.3542V5.75424C19.89 5.10765 19.3666 4.58424 18.72 4.58424H5.27999ZM2.60999 5.75424C2.60999 4.27923 3.80497 3.08424 5.27999 3.08424H18.72C20.195 3.08424 21.39 4.27923 21.39 5.75424V15.3542C21.39 16.8293 20.195 18.0242 18.72 18.0242H13.1253L9.29698 21.4297C9.29694 21.4297 9.29702 21.4297 9.29698 21.4297C8.19409 22.411 6.44999 21.6279 6.44999 20.1523V18.0242H5.27999C3.80497 18.0242 2.60999 16.8293 2.60999 15.3542V5.75424Z" fill="#4F4F4F"/>
<path fill-rule="evenodd" clip-rule="evenodd" d="M6.44999 8.1504C6.44999 7.73619 6.78577 7.4004 7.19999 7.4004H16.8C17.2142 7.4004 17.55 7.73619 17.55 8.1504C17.55 8.56461 17.2142 8.9004 16.8 8.9004H7.19999C6.78577 8.9004 6.44999 8.56461 6.44999 8.1504Z" fill="#4F4F4F"/>
<path fill-rule="evenodd" clip-rule="evenodd" d="M6.44999 12.4704C6.44999 12.0562 6.78577 11.7204 7.19999 11.7204H13.92C14.3342 11.7204 14.67 12.0562 14.67 12.4704C14.67 12.8846 14.3342 13.2204 13.92 13.2204H7.19999C6.78577 13.2204 6.44999 12.8846 6.44999 12.4704Z" fill="#4F4F4F"/>
</svg>
