<svg width="24" height="24" viewBox="0 0 24 24" fill="none" xmlns="http://www.w3.org/2000/svg">
<path fill-rule="evenodd" clip-rule="evenodd" d="M5 5.769C4.30921 5.769 3.75 6.32821 3.75 7.019V16.981C3.75 17.6718 4.30921 18.231 5 18.231H19C19.691 18.231 20.25 17.6715 20.25 16.982V7.019C20.25 6.32821 19.6908 5.769 19 5.769H5ZM19 19.731H5C3.48079 19.731 2.25 18.5002 2.25 16.981V7.019C2.25 5.49979 3.48079 4.269 5 4.269H19C20.5192 4.269 21.75 5.49979 21.75 7.019V16.982C21.75 18.5005 20.519 19.731 19 19.731Z" fill="#4F4F4F"/>
<path fill-rule="evenodd" clip-rule="evenodd" d="M6.35688 8.61413C6.56999 8.25894 7.03069 8.14377 7.38587 8.35688L12 11.1254L16.6141 8.35688C16.9693 8.14377 17.43 8.25894 17.6431 8.61413C17.8562 8.96931 17.7411 9.43001 17.3859 9.64312L12.3859 12.6431C12.1484 12.7856 11.8516 12.7856 11.6141 12.6431L6.61413 9.64312C6.25894 9.43001 6.14377 8.96931 6.35688 8.61413Z" fill="#4F4F4F"/>
</svg>
