<svg width="24" height="24" viewBox="0 0 24 24" fill="none" xmlns="http://www.w3.org/2000/svg">
<path d="M16.82 21.05C16.57 21.05 16.31 21.03 16.05 20.98C13.15 20.43 10.2 18.77 7.73997 16.31C5.27997 13.85 3.61997 10.9 3.06997 8C2.81997 6.69 3.21997 5.37 4.12997 4.46L4.77997 3.8C5.84997 2.73 7.59997 2.73 8.66997 3.8L9.83997 4.97C10.74 5.87 10.7 7.3 9.75997 8.24L8.93997 9.06C9.49997 10.34 10.36 11.58 11.41 12.64C12.47 13.7 13.71 14.56 14.99 15.12L15.89 14.21C16.74 13.36 18.22 13.36 19.07 14.21L20.24 15.38C20.76 15.9 21.05 16.59 21.05 17.32C21.05 18.06 20.76 18.75 20.24 19.26L19.59 19.91C18.86 20.65 17.87 21.05 16.82 21.05ZM6.72997 4.5C6.40997 4.5 6.08997 4.62 5.84997 4.87L5.18997 5.52C4.62997 6.08 4.38997 6.9 4.54997 7.72C5.03997 10.33 6.54997 13 8.79997 15.25C11.05 17.5 13.73 19.01 16.33 19.5C17.16 19.66 17.97 19.41 18.53 18.86L19.18 18.21C19.42 17.97 19.55 17.66 19.55 17.33C19.55 17 19.42 16.68 19.18 16.45L18.01 15.28C17.73 15 17.23 15 16.95 15.28L16.05 16.18C15.61 16.62 14.95 16.75 14.39 16.5C12.94 15.86 11.54 14.89 10.35 13.7C9.14997 12.49 8.20997 11.14 7.55997 9.66C7.30997 9.11 7.43997 8.44 7.87997 8L8.69997 7.18C9.05997 6.82 9.08997 6.34 8.77997 6.03L7.60997 4.86C7.36997 4.62 7.04997 4.5 6.72997 4.5Z" fill="#4F4F4F"/>
</svg>
