<svg width="24" height="24" viewBox="0 0 24 24" fill="none" xmlns="http://www.w3.org/2000/svg">
<path fill-rule="evenodd" clip-rule="evenodd" d="M2.25 11.291C2.25 6.27004 6.70495 2.359 12 2.359C17.2951 2.359 21.75 6.27004 21.75 11.291C21.75 16.312 17.2951 20.223 12 20.223C11.3987 20.223 10.8119 20.1715 10.2419 20.0759L6.93259 21.7132C6.70011 21.8282 6.42471 21.815 6.20436 21.6782C5.98401 21.5413 5.85 21.3004 5.85 21.041C5.85 20.5315 5.84964 20.0311 5.84931 19.5587C5.84896 19.0731 5.84864 18.617 5.84874 18.2107C3.67507 16.5902 2.25 14.1133 2.25 11.291ZM12 3.859C7.39105 3.859 3.75 7.23396 3.75 11.291C3.75 13.6955 5.02085 15.8382 7.02215 17.2058C7.22693 17.3457 7.34929 17.5778 7.349 17.8259C7.34842 18.3192 7.34884 18.9104 7.3493 19.5551C7.34937 19.6468 7.34944 19.7396 7.3495 19.8334L9.79841 18.6218C9.94517 18.5492 10.1117 18.5266 10.2725 18.5575C10.8317 18.6649 11.4084 18.723 12 18.723C16.6089 18.723 20.25 15.348 20.25 11.291C20.25 7.23396 16.6089 3.859 12 3.859Z" fill="#4F4F4F"/>
<path fill-rule="evenodd" clip-rule="evenodd" d="M9.48999 9.493C9.48999 8.16032 10.5712 7.085 11.9 7.085C13.2299 7.085 14.309 8.16249 14.309 9.494C14.309 10.5524 13.6144 11.1081 13.1568 11.4162L13.1561 11.4167C12.9677 11.5431 12.8432 11.6483 12.7631 11.7562C12.6956 11.8471 12.649 11.9533 12.649 12.121V12.328C12.649 12.7422 12.3132 13.078 11.899 13.078C11.4848 13.078 11.149 12.7422 11.149 12.328V12.121C11.149 11.0488 11.8512 10.4861 12.3195 10.1716C12.5028 10.0482 12.623 9.94631 12.7 9.84253C12.7645 9.75554 12.809 9.65444 12.809 9.494C12.809 8.99151 12.4021 8.585 11.9 8.585C11.3967 8.585 10.99 8.99169 10.99 9.493C10.99 9.90721 10.6542 10.243 10.24 10.243C9.82578 10.243 9.48999 9.90721 9.48999 9.493Z" fill="#4F4F4F"/>
<circle cx="11.85" cy="14.85" r="0.85" fill="#4F4F4F"/>
</svg>
