<svg width="24" height="24" viewBox="0 0 24 24" fill="none" xmlns="http://www.w3.org/2000/svg">
<path fill-rule="evenodd" clip-rule="evenodd" d="M2.99568 7.45133C1.81407 6.26972 2.65102 4.25 4.32201 4.25H19.873C21.3309 4.25 22.2316 5.84023 21.4798 7.0905L13.2312 20.8388V20.8388C12.3592 22.2925 10.161 21.9346 9.79292 20.2809L8.06925 12.5249L2.99568 7.45133ZM4.32201 5.75C3.987 5.75 3.81995 6.15428 4.05634 6.39067L9.28434 11.6187C9.3852 11.7195 9.4552 11.8471 9.48615 11.9863L11.2571 19.9551C11.331 20.2874 11.7708 20.3574 11.9448 20.0672L20.1939 6.31814C20.3441 6.06841 20.1652 5.75 19.873 5.75H4.32201Z" fill="#4F4F4F"/>
<path fill-rule="evenodd" clip-rule="evenodd" d="M21.4985 5.20105C21.6968 5.56475 21.5627 6.02028 21.199 6.21853L9.10896 12.8085C8.74526 13.0068 8.28972 12.8726 8.09148 12.5089C7.89324 12.1453 8.02737 11.6897 8.39106 11.4915L20.4811 4.90147C20.8448 4.70323 21.3003 4.83736 21.4985 5.20105Z" fill="#4F4F4F"/>
</svg>
