<svg width="24" height="24" viewBox="0 0 24 24" fill="none" xmlns="http://www.w3.org/2000/svg">
<path fill-rule="evenodd" clip-rule="evenodd" d="M8.02253 10.6444C7.27389 9.89579 6.06011 9.89579 5.31148 10.6444C4.56284 11.3931 4.56284 12.6068 5.31148 13.3555C6.06011 14.1041 7.27389 14.1041 8.02253 13.3555C8.77116 12.6068 8.77116 11.3931 8.02253 10.6444ZM9.08319 9.58377C7.74876 8.24935 5.58524 8.24935 4.25082 9.58377C2.91639 10.9182 2.91639 13.0817 4.25082 14.4161C5.58524 15.7506 7.74876 15.7506 9.08319 14.4161C10.4176 13.0817 10.4176 10.9182 9.08319 9.58377Z" fill="#4F4F4F"/>
<path fill-rule="evenodd" clip-rule="evenodd" d="M18.6886 5.31148C17.9399 4.56284 16.7262 4.56284 15.9775 5.31148C15.2289 6.06012 15.2289 7.27389 15.9775 8.02253C16.7262 8.77117 17.9399 8.77117 18.6886 8.02253C19.4372 7.27389 19.4372 6.06012 18.6886 5.31148ZM19.7492 4.25082C18.4148 2.9164 16.2513 2.9164 14.9169 4.25082C13.5824 5.58524 13.5824 7.74877 14.9169 9.08319C16.2513 10.4176 18.4148 10.4176 19.7492 9.08319C21.0837 7.74877 21.0837 5.58524 19.7492 4.25082Z" fill="#4F4F4F"/>
<path fill-rule="evenodd" clip-rule="evenodd" d="M18.6886 15.9774C17.9399 15.2288 16.7262 15.2288 15.9775 15.9774C15.2289 16.7261 15.2289 17.9398 15.9775 18.6885C16.7262 19.4371 17.9399 19.4371 18.6886 18.6885C19.4372 17.9398 19.4372 16.7261 18.6886 15.9774ZM19.7492 14.9168C18.4148 13.5823 16.2513 13.5823 14.9169 14.9168C13.5824 16.2512 13.5824 18.4147 14.9169 19.7491C16.2513 21.0836 18.4148 21.0836 19.7492 19.7491C21.0837 18.4147 21.0837 16.2512 19.7492 14.9168Z" fill="#4F4F4F"/>
<path fill-rule="evenodd" clip-rule="evenodd" d="M15.6308 7.51459C15.8161 7.88507 15.6659 8.33558 15.2954 8.52082L9.37542 11.4808C9.00493 11.6661 8.55443 11.5159 8.36919 11.1454C8.18395 10.7749 8.33411 10.3244 8.7046 10.1392L14.6246 7.17918C14.9951 6.99394 15.4456 7.14411 15.6308 7.51459Z" fill="#4F4F4F"/>
<path fill-rule="evenodd" clip-rule="evenodd" d="M8.36919 12.8546C8.55443 12.4841 9.00493 12.3339 9.37542 12.5192L15.2954 15.4792C15.6659 15.6644 15.8161 16.1149 15.6308 16.4854C15.4456 16.8559 14.9951 17.0061 14.6246 16.8208L8.7046 13.8608C8.33411 13.6756 8.18395 13.2251 8.36919 12.8546Z" fill="#4F4F4F"/>
</svg>
