<svg width="24" height="24" viewBox="0 0 24 24" fill="none" xmlns="http://www.w3.org/2000/svg">
<path fill-rule="evenodd" clip-rule="evenodd" d="M18 10.75C17.8622 10.75 17.75 10.8622 17.75 11V16C17.75 16.1378 17.8622 16.25 18 16.25H19C19.6908 16.25 20.25 15.6908 20.25 15V12C20.25 11.3092 19.6908 10.75 19 10.75H18ZM16.25 11C16.25 10.0338 17.0338 9.25 18 9.25H19C20.5192 9.25 21.75 10.4808 21.75 12V15C21.75 16.5192 20.5192 17.75 19 17.75H18C17.0338 17.75 16.25 16.9662 16.25 16V11Z" fill="#4F4F4F"/>
<path fill-rule="evenodd" clip-rule="evenodd" d="M5 10.75C4.30921 10.75 3.75 11.3092 3.75 12V15C3.75 15.6908 4.30921 16.25 5 16.25H6C6.13779 16.25 6.25 16.1378 6.25 16V11C6.25 10.8622 6.13779 10.75 6 10.75H5ZM2.25 12C2.25 10.4808 3.48079 9.25 5 9.25H6C6.96621 9.25 7.75 10.0338 7.75 11V16C7.75 16.9662 6.96621 17.75 6 17.75H5C3.48079 17.75 2.25 16.5192 2.25 15V12Z" fill="#4F4F4F"/>
<path fill-rule="evenodd" clip-rule="evenodd" d="M4.75 9.5C4.75 5.49579 7.99579 2.25 12 2.25C16.0042 2.25 19.25 5.49579 19.25 9.5V10C19.25 10.4142 18.9142 10.75 18.5 10.75C18.0858 10.75 17.75 10.4142 17.75 10V9.5C17.75 6.32421 15.1758 3.75 12 3.75C8.82421 3.75 6.25 6.32421 6.25 9.5V10C6.25 10.4142 5.91421 10.75 5.5 10.75C5.08579 10.75 4.75 10.4142 4.75 10V9.5Z" fill="#4F4F4F"/>
<path fill-rule="evenodd" clip-rule="evenodd" d="M11.375 19.5C11.0992 19.5 10.875 19.7242 10.875 20C10.875 20.2758 11.0992 20.5 11.375 20.5H12.625C12.9008 20.5 13.125 20.2758 13.125 20C13.125 19.7242 12.9008 19.5 12.625 19.5H11.375ZM9.375 20C9.375 18.8958 10.2708 18 11.375 18H12.625C13.7292 18 14.625 18.8958 14.625 20C14.625 21.1042 13.7292 22 12.625 22H11.375C10.2708 22 9.375 21.1042 9.375 20Z" fill="#4F4F4F"/>
<path fill-rule="evenodd" clip-rule="evenodd" d="M18 16.25C18.4142 16.25 18.75 16.5858 18.75 17V18C18.75 19.5192 17.5192 20.75 16 20.75H13.875C13.4608 20.75 13.125 20.4142 13.125 20C13.125 19.5858 13.4608 19.25 13.875 19.25H16C16.6908 19.25 17.25 18.6908 17.25 18V17C17.25 16.5858 17.5858 16.25 18 16.25Z" fill="#4F4F4F"/>
</svg>
