<svg width="24" height="24" viewBox="0 0 24 24" fill="none" xmlns="http://www.w3.org/2000/svg">
<path fill-rule="evenodd" clip-rule="evenodd" d="M3.25 4.5C3.25 4.08579 3.58579 3.75 4 3.75H20C20.4142 3.75 20.75 4.08579 20.75 4.5C20.75 4.91421 20.4142 5.25 20 5.25H4C3.58579 5.25 3.25 4.91421 3.25 4.5Z" fill="#4F4F4F"/>
<path fill-rule="evenodd" clip-rule="evenodd" d="M3.25 9.5C3.25 9.08579 3.58579 8.75 4 8.75H20C20.4142 8.75 20.75 9.08579 20.75 9.5C20.75 9.91421 20.4142 10.25 20 10.25H4C3.58579 10.25 3.25 9.91421 3.25 9.5Z" fill="#4F4F4F"/>
<path fill-rule="evenodd" clip-rule="evenodd" d="M3.25 14.5C3.25 14.0858 3.58579 13.75 4 13.75H20C20.4142 13.75 20.75 14.0858 20.75 14.5C20.75 14.9142 20.4142 15.25 20 15.25H4C3.58579 15.25 3.25 14.9142 3.25 14.5Z" fill="#4F4F4F"/>
<path fill-rule="evenodd" clip-rule="evenodd" d="M3.25 19.5C3.25 19.0858 3.58579 18.75 4 18.75H20C20.4142 18.75 20.75 19.0858 20.75 19.5C20.75 19.9142 20.4142 20.25 20 20.25H4C3.58579 20.25 3.25 19.9142 3.25 19.5Z" fill="#4F4F4F"/>
</svg>
