<svg width="24" height="24" viewBox="0 0 24 24" fill="none" xmlns="http://www.w3.org/2000/svg">
<path fill-rule="evenodd" clip-rule="evenodd" d="M7 2.25C7.41421 2.25 7.75 2.58579 7.75 3V19C7.75 19.4142 7.41421 19.75 7 19.75C6.58579 19.75 6.25 19.4142 6.25 19V3C6.25 2.58579 6.58579 2.25 7 2.25Z" fill="#4F4F4F"/>
<path fill-rule="evenodd" clip-rule="evenodd" d="M16 2.25C16.4142 2.25 16.75 2.58579 16.75 3V14.558C16.75 14.9722 16.4142 15.308 16 15.308C15.5858 15.308 15.25 14.9722 15.25 14.558V3C15.25 2.58579 15.5858 2.25 16 2.25Z" fill="#4F4F4F"/>
<path fill-rule="evenodd" clip-rule="evenodd" d="M5 3.75C4.30921 3.75 3.75 4.30921 3.75 5V17C3.75 17.6908 4.30921 18.25 5 18.25H14.126C14.5402 18.25 14.876 18.5858 14.876 19C14.876 19.4142 14.5402 19.75 14.126 19.75H5C3.48079 19.75 2.25 18.5192 2.25 17V5C2.25 3.48079 3.48079 2.25 5 2.25H18C19.5192 2.25 20.75 3.48079 20.75 5V14.535C20.75 14.9492 20.4142 15.285 20 15.285C19.5858 15.285 19.25 14.9492 19.25 14.535V5C19.25 4.30921 18.6908 3.75 18 3.75H5Z" fill="#4F4F4F"/>
<path fill-rule="evenodd" clip-rule="evenodd" d="M2.25 7C2.25 6.58579 2.58579 6.25 3 6.25H7C7.41421 6.25 7.75 6.58579 7.75 7C7.75 7.41421 7.41421 7.75 7 7.75H3C2.58579 7.75 2.25 7.41421 2.25 7Z" fill="#4F4F4F"/>
<path fill-rule="evenodd" clip-rule="evenodd" d="M2.25 15C2.25 14.5858 2.58579 14.25 3 14.25H7C7.41421 14.25 7.75 14.5858 7.75 15C7.75 15.4142 7.41421 15.75 7 15.75H3C2.58579 15.75 2.25 15.4142 2.25 15Z" fill="#4F4F4F"/>
<path fill-rule="evenodd" clip-rule="evenodd" d="M15.25 7C15.25 6.58579 15.5858 6.25 16 6.25H20C20.4142 6.25 20.75 6.58579 20.75 7C20.75 7.41421 20.4142 7.75 20 7.75H16C15.5858 7.75 15.25 7.41421 15.25 7Z" fill="#4F4F4F"/>
<path fill-rule="evenodd" clip-rule="evenodd" d="M2.25 11C2.25 10.5858 2.58579 10.25 3 10.25H20C20.4142 10.25 20.75 10.5858 20.75 11C20.75 11.4142 20.4142 11.75 20 11.75H3C2.58579 11.75 2.25 11.4142 2.25 11Z" fill="#4F4F4F"/>
<path fill-rule="evenodd" clip-rule="evenodd" d="M18.0033 14.75C16.2537 14.7484 14.75 16.2506 14.75 18C14.75 19.7948 16.2052 21.25 18 21.25C19.7957 21.25 21.25 19.7949 21.25 18C21.25 16.2059 19.7973 14.7516 18.0033 14.75ZM13.25 18C13.25 15.4214 15.4263 13.2476 18.0047 13.25C20.6267 13.2524 22.75 15.3781 22.75 18C22.75 20.6231 20.6243 22.75 18 22.75C15.3768 22.75 13.25 20.6232 13.25 18Z" fill="#4F4F4F"/>
<path fill-rule="evenodd" clip-rule="evenodd" d="M18 15.65C18.4142 15.65 18.75 15.9858 18.75 16.4V19.6C18.75 20.0142 18.4142 20.35 18 20.35C17.5858 20.35 17.25 20.0142 17.25 19.6V16.4C17.25 15.9858 17.5858 15.65 18 15.65Z" fill="#4F4F4F"/>
<path fill-rule="evenodd" clip-rule="evenodd" d="M15.65 18C15.65 17.5858 15.9858 17.25 16.4 17.25H19.6C20.0142 17.25 20.35 17.5858 20.35 18C20.35 18.4142 20.0142 18.75 19.6 18.75H16.4C15.9858 18.75 15.65 18.4142 15.65 18Z" fill="#4F4F4F"/>
</svg>
