<svg width="24" height="24" viewBox="0 0 24 24" fill="none" xmlns="http://www.w3.org/2000/svg">
<path fill-rule="evenodd" clip-rule="evenodd" d="M10.559 9.704V14.295L14.4411 11.9995L10.559 9.704ZM11.3228 8.41246C10.3219 7.82017 9.059 8.54327 9.059 9.704V14.295C9.059 15.4557 10.3219 16.1788 11.3228 15.5865L15.2044 13.2908C16.1863 12.7104 16.1867 11.2888 15.2048 10.7085L11.3228 8.41246Z" fill="#4F4F4F"/>
<path fill-rule="evenodd" clip-rule="evenodd" d="M6 3.75C4.75721 3.75 3.75 4.75721 3.75 6V18C3.75 19.2428 4.75721 20.25 6 20.25H18C19.2428 20.25 20.25 19.2428 20.25 18V6C20.25 4.75721 19.2428 3.75 18 3.75H6ZM2.25 6C2.25 3.92879 3.92879 2.25 6 2.25H18C20.0712 2.25 21.75 3.92879 21.75 6V18C21.75 20.0712 20.0712 21.75 18 21.75H6C3.92879 21.75 2.25 20.0712 2.25 18V6Z" fill="#4F4F4F"/>
</svg>
