<svg width="24" height="24" viewBox="0 0 24 24" fill="none" xmlns="http://www.w3.org/2000/svg">
<path fill-rule="evenodd" clip-rule="evenodd" d="M8.516 3.75C7.82521 3.75 7.266 4.30921 7.266 5V5.25H16.735V5C16.735 4.30921 16.1758 3.75 15.485 3.75H8.516ZM18.235 5.44445V5C18.235 3.48079 17.0042 2.25 15.485 2.25H8.516C6.99679 2.25 5.766 3.48079 5.766 5V5.44365C4.74995 5.84763 4.032 6.83969 4.032 8V8.42773C2.99195 8.82054 2.25 9.82176 2.25 11V19C2.25 20.5229 3.48945 21.75 5.01 21.75H18.99C20.5093 21.75 21.75 20.5231 21.75 19V11C21.75 9.82138 21.0076 8.8199 19.967 8.42736V8C19.967 6.84045 19.25 5.84893 18.235 5.44445ZM18.467 8.25V8C18.467 7.30921 17.9078 6.75 17.217 6.75H6.782C6.09121 6.75 5.532 7.30921 5.532 8V8.25H18.467ZM5.01 9.75C4.31055 9.75 3.75 10.3129 3.75 11V19C3.75 19.6871 4.31055 20.25 5.01 20.25H18.99C19.6887 20.25 20.25 19.6869 20.25 19V11C20.25 10.3129 19.6894 9.75 18.99 9.75H5.01ZM11.271 14.0031L13.1682 15.1255L11.271 16.2479V14.0031ZM11.6676 12.4949C10.8286 11.9972 9.771 12.6051 9.771 13.576V16.675C9.771 17.6459 10.8286 18.2538 11.6676 17.7561C11.6677 17.756 11.6677 17.756 11.6678 17.756L14.2857 16.2072C14.2859 16.2071 14.2862 16.2069 14.2864 16.2068C15.1104 15.7207 15.1071 14.5302 14.2871 14.0447L14.2869 14.0445L11.6678 12.495C11.6677 12.495 11.6677 12.495 11.6676 12.4949Z" fill="#4F4F4F"/>
</svg>
