<svg id="flora_ecommerce_web_ico_logout_01" xmlns="http://www.w3.org/2000/svg" width="20" height="20" viewBox="0 0 20 20">
  <rect id="container" width="20" height="20" transform="translate(0 0)" fill="none"/>
  <path id="flora_ecommerce_web_ico_logout_01-2" data-name="flora_ecommerce_web_ico_logout_01" d="M11.055,17.976a.616.616,0,0,1,0,1.232H2.961A2.968,2.968,0,0,1,0,16.247V2.961A2.968,2.968,0,0,1,2.961,0h8.094a.616.616,0,0,1,0,1.232H2.961A1.736,1.736,0,0,0,1.231,2.961V16.247a1.736,1.736,0,0,0,1.729,1.729h8.094Zm6.72-8.207a.614.614,0,0,1-.163.289l-3.771,3.771a.616.616,0,0,1-.871-.871l2.738-2.738H3.554a.616.616,0,0,1,0-1.232H15.692L12.97,6.266a.616.616,0,0,1,.871-.871l3.738,3.738a.614.614,0,0,1,.218.47.621.621,0,0,1-.022.165Z" transform="translate(1 0)" fill="#686868"/>
</svg>
