<svg xmlns="http://www.w3.org/2000/svg" width="18.599" height="19.752" viewBox="0 0 18.599 19.752"><path d="M15.639,5.758a.468.468,0,1,1,.935,0V17.513a2.255,2.255,0,0,1-2.249,2.249H4.234a2.254,2.254,0,0,1-2.249-2.249V5.758a.468.468,0,1,1,.935,0V17.513a1.319,1.319,0,0,0,1.313,1.314H14.325a1.319,1.319,0,0,0,1.313-1.313V5.758Zm-2.4-2.744a.468.468,0,1,1-.935,0V1.537a.595.595,0,0,0-.591-.591H6.85a.595.595,0,0,0-.591.591V3.014a.468.468,0,0,1-.935,0V1.537A1.53,1.53,0,0,1,6.85.01h4.86a1.531,1.531,0,0,1,1.527,1.527V3.014Zm-.076,14.049a.468.468,0,0,1-.935,0V6.308a.468.468,0,1,1,.935,0Zm-3.413,0a.468.468,0,0,1-.935,0V6.308a.468.468,0,1,1,.935,0Zm-3.413,0a.468.468,0,0,1-.935,0V6.308a.468.468,0,1,1,.935,0ZM.448,4.571a.468.468,0,1,1,0-.935H18.111a.468.468,0,0,1,0,.935H.448Z" transform="translate(0.02 -0.01)" /></svg>