<svg xmlns="http://www.w3.org/2000/svg" width="31.999" height="31.999" viewBox="0 0 31.999 31.999">
  <path id="flora_ecommerce_web_ico_user_01" d="M34.55,2890.587a14.5,14.5,0,1,0,5.566,1.1,14.507,14.507,0,0,0-5.566-1.1Zm0,3.505a6.331,6.331,0,0,0-1.895,12.371.214.214,0,0,1,.149.225l-.043.971a.213.213,0,0,1-.168.2,9.183,9.183,0,0,0-2.05.708,9.294,9.294,0,0,0-1.838,1.176,9.354,9.354,0,0,0-2.437,3.045,11.085,11.085,0,0,0,1.581,1.422,11.206,11.206,0,0,0,4.269,1.937,11.309,11.309,0,0,0,9.117-1.914,11.193,11.193,0,0,0,1.587-1.409,9.329,9.329,0,0,0-4.269-4.249,9.121,9.121,0,0,0-2.052-.712.215.215,0,0,1-.169-.214l-.043-.969a.214.214,0,0,1,.15-.214,6.331,6.331,0,0,0-1.889-12.374Zm-5.5.83a7.776,7.776,0,1,1,9.595,12.109,10.621,10.621,0,0,1,1.195.593,10.8,10.8,0,0,1,4.5,5.037l.127.292a.214.214,0,0,1-.033.224l-.206.241a12.578,12.578,0,0,1-1.993,1.871,12.758,12.758,0,0,1-13.026,1.394,12.634,12.634,0,0,1-2.357-1.42,12.5,12.5,0,0,1-1.987-1.892l-.2-.243a.213.213,0,0,1-.032-.223h0l.127-.288a10.76,10.76,0,0,1,5.694-5.59,7.772,7.772,0,0,1-1.395-12.1Zm-5.814-1.1a15.957,15.957,0,1,1-3.474,5.2A16.027,16.027,0,0,1,23.236,2893.826Z" transform="translate(-18.55 -2889.14)" fill="#686868"/>
</svg>
