<svg id="flora_ecommerce_web_ico_wallet_01" xmlns="http://www.w3.org/2000/svg" width="20.001" height="20" viewBox="0 0 20.001 20">
  <rect id="container" width="20" height="20" transform="translate(0.001 0)" fill="none"/>
  <path id="flora_ecommerce_web_ico_wallet_01-2" data-name="flora_ecommerce_web_ico_wallet_01" d="M14.85,19a.5.5,0,0,1,.067,0h2.12a1.4,1.4,0,0,0,1.394-1.394.5.5,0,0,1,.993,0A2.392,2.392,0,0,1,17.036,20H4.563A.5.5,0,0,1,4.5,20H2.376A2.393,2.393,0,0,1-.01,17.609V4.279A2.392,2.392,0,0,1,2.376,1.893a.5.5,0,0,1,0,.993A1.4,1.4,0,0,0,.983,4.279v.246a.5.5,0,0,1,.075-.006h2.82L8.252.145A.5.5,0,0,1,9,.2L11,2.52,13.379.145A.5.5,0,0,1,14.13.2l3.878,4.49a.477.477,0,0,1,.04.053,2.4,2.4,0,0,1,.674.475,2.379,2.379,0,0,1,.7,1.686V14.43a.624.624,0,0,1-.624.624H15.762a2.794,2.794,0,0,1,0-5.589H18.43V6.906a1.4,1.4,0,0,0-1.394-1.394H1.058a.492.492,0,0,1-.075-.006v12.1A1.4,1.4,0,0,0,2.377,19H14.85ZM5.282,4.52h6.142l-.795-.92,0,0a.5.5,0,0,1-.049-.057l-2-2.317Zm7.45,0H16.55L13.7,1.224,11.655,3.273Zm5.7,9.253V10.458H15.761a1.8,1.8,0,0,0,0,3.6H18.43Z" transform="translate(0.01 0)" fill="#686868"/>
</svg>
