<svg width="20" height="20" viewBox="0 0 36 36" fill="none" xmlns="http://www.w3.org/2000/svg">
<path d="M0 18C0 8.05887 8.05887 0 18 0C27.9411 0 36 8.05887 36 18C36 27.9411 27.9411 36 18 36C8.05887 36 0 27.9411 0 18Z" fill="white"/>
<path d="M18 6.96C21.38 6.96 23.66 8.42 24.96 9.64L30.04 4.68C26.92 1.78 22.86 0 18 0C10.96 0 4.87998 4.04 1.91998 9.92L7.73998 14.44C9.19998 10.1 13.24 6.96 18 6.96Z" fill="#EA4335"/>
<path d="M35.28 18.4C35.28 16.92 35.16 15.84 34.9 14.72H18V21.4H27.92C27.72 23.06 26.64 25.56 24.24 27.24L29.92 31.64C33.32 28.5 35.28 23.88 35.28 18.4Z" fill="#4285F4"/>
<path d="M7.76 21.56C7.38 20.44 7.16 19.24 7.16 18C7.16 16.76 7.38 15.56 7.74 14.44L1.92 9.91998C0.7 12.36 0 15.1 0 18C0 20.9 0.7 23.64 1.92 26.08L7.76 21.56Z" fill="#FBBC05"/>
<path d="M18 36C22.86 36 26.94 34.4 29.92 31.64L24.24 27.24C22.72 28.3 20.68 29.04 18 29.04C13.24 29.04 9.2 25.9 7.76 21.56L1.94 26.08C4.9 31.96 10.96 36 18 36Z" fill="#34A853"/>
</svg>