<svg id="Layer_1" enable-background="new 0 0 512 512" height="36" viewBox="0 0 512 512" width="36" xmlns="http://www.w3.org/2000/svg"><g><g><path clip-rule="evenodd" d="m358.483 106.633c-3.51.517-6.844 1.183-9.985 1.987-.011.002-.021-.001-.031.002-25.333 6.432-39.002 22.083-42.021 49.475 7.738 8.702 15.506 8.79 22.544 6.863 18.704-6.254 33.124-23.352 34.246-54.141.094-2.569-2.21-4.56-4.753-4.186z" fill="#ccf49e" fill-rule="evenodd"/><g><path clip-rule="evenodd" d="m268.221 264.542-243.866 31.919v130.449c0 42.111 34.429 76.541 76.539 76.541h310.214c42.08 0 76.509-34.43 76.509-76.541v-130.449z" fill="#ffd772" fill-rule="evenodd"/></g><g><path clip-rule="evenodd" d="m167.883 116.834c-52.389-63.545-106.734-37.847-90.848 42.957 5.578 28.444 15.536 56.537 31.567 84.163l62.58 14.485 54.287-14.485v-5.286c-10.279-49.908-30.72-89.215-57.586-121.834z" fill="#ffd772" fill-rule="evenodd"/></g><g><path clip-rule="evenodd" d="m354.017 193.462c-4.818-12.119-13.725-22.194-25.026-28.502-6.775-3.767-14.426-6.162-22.544-6.863-1.577-.146-3.183-.204-4.789-.204-9.753 0-18.952 2.482-26.924 6.833l-10.484 88.485 62.901-9.257c14.455-4.527 28.413-19.128 26.866-50.492z" fill="#ffd772" fill-rule="evenodd"/></g><g><path clip-rule="evenodd" d="m274.733 164.726v-131.558c0-13.55-11.097-24.618-24.617-24.618-13.55 0-24.647 11.068-24.647 24.618v205.501 5.286l28.326 18.544 20.938-18.544z" fill="#ce9874" fill-rule="evenodd"/></g><g><path clip-rule="evenodd" d="m478.184 112.95-18.018-17.084-22.69-3.096-19.595 39.482c-25.435 51.339-43.599 35.043-63.865 61.209-3.271 4.234-6.6 9.549-10.016 16.441l-16.85 34.051 42.051 20.588 78.349-20.588c11.418-35.306-15.302-38.314 11.068-91.522z" fill="#95d6a4" fill-rule="evenodd"/></g><g><path clip-rule="evenodd" d="m497.019 86.142-49.644-24.618c-1.811-.905-4.059-.146-4.964 1.694l-11.097 22.369c-.905 1.811-.146 4.059 1.694 4.964l4.468 2.219 20.354 10.075 20.354 10.104 4.468 2.19c1.811.905 4.059.175 4.964-1.665l11.097-22.369c.905-1.839.146-4.058-1.694-4.963z" fill="#365e7d" fill-rule="evenodd"/></g><g><path clip-rule="evenodd" d="m76.831 243.954h-62.785c-7.738 0-14.046 6.308-14.046 14.046v24.384c0 7.739 6.308 14.076 14.046 14.076h10.308 52.476l27.625-26.253z" fill="#ce9874" fill-rule="evenodd"/></g><g><path clip-rule="evenodd" d="m447.551 243.954h-54.871l-99.667 25.932-24.793 26.575h32.911 121.539 64.945 10.308c7.739 0 14.075-6.337 14.075-14.076v-24.385c0-7.739-6.337-14.047-14.075-14.047h-50.372z" fill="#ce9874" fill-rule="evenodd"/></g><g><path clip-rule="evenodd" d="m76.831 296.461h-52.476v29.728h5.198 47.278z" fill="#fdb440" fill-rule="evenodd"/></g><g><path clip-rule="evenodd" d="m497.019 86.142-17.258-8.586c1.781.934 2.511 3.154 1.606 4.964l-11.068 22.369c-.905 1.84-3.154 2.57-4.964 1.665l12.849 6.395 4.468 2.19c1.811.905 4.059.175 4.964-1.665l11.097-22.369c.905-1.839.146-4.058-1.694-4.963z" fill="#2b4d66" fill-rule="evenodd"/></g><g><path clip-rule="evenodd" d="m478.184 112.95-12.849-6.395-4.468-2.19-19.565 39.482c-26.37 53.208-4.614 64.801-16.032 100.107h22.281c11.418-35.306-15.302-38.314 11.068-91.522z" fill="#78c2a4" fill-rule="evenodd"/></g><g><path clip-rule="evenodd" d="m354.017 193.462c-4.818-12.119-13.725-22.194-25.026-28.502-6.395-3.563-13.579-5.899-21.201-6.717.146.555.321 1.139.467 1.723.642 2.541 1.197 5.111 1.694 7.768 1.577 8.41 2.424 17.463 2.424 26.896 0 18.631-3.329 35.773-8.936 49.324h23.712l16.849-34.051c3.417-6.892 6.746-12.207 10.017-16.441z" fill="#fdb440" fill-rule="evenodd"/></g><g><path clip-rule="evenodd" d="m328.991 164.96c18.704-6.254 33.124-23.352 34.246-54.141.094-2.569-2.21-4.56-4.753-4.185-3.521.519-6.866 1.187-10.015 1.994-.584 27.743-11.71 44.68-27.129 52.799 2.657.992 5.198 2.19 7.651 3.533z" fill="#b3e59e" fill-rule="evenodd"/></g><g><path clip-rule="evenodd" d="m274.733 164.726v-131.558c0-13.55-11.097-24.618-24.617-24.618-4.41 0-8.527 1.139-12.09 3.183 7.476 4.234 12.528 12.265 12.528 21.435v131.559 25.728 47.513 5.987h3.241 11.564 9.374z" fill="#c6875e" fill-rule="evenodd"/></g><g><path clip-rule="evenodd" d="m225.469 238.668c-10.279-49.908-30.721-89.215-57.586-121.834-32.414-39.307-65.559-44.447-82.379-23.567 16.587.058 36.97 11.301 57.032 35.657 25.639 31.101 45.438 68.335 56.126 115.03h26.807z" fill="#fdb440" fill-rule="evenodd"/></g><g><path clip-rule="evenodd" d="m512 258c0-7.739-6.337-14.047-14.075-14.047h-40.124c7.739 0 14.075 6.308 14.075 14.047v24.384c0 7.739-6.337 14.076-14.075 14.076h29.815 10.308c7.739 0 14.075-6.337 14.075-14.076v-24.384z" fill="#c6875e" fill-rule="evenodd"/></g><g><path clip-rule="evenodd" d="m422.671 296.461h-121.539-32.911l-70.494 29.729h254.993v100.72c0 42.111-34.429 76.541-76.539 76.541h34.926c42.08 0 76.509-34.43 76.509-76.541v-130.449z" fill="#fdb440" fill-rule="evenodd"/></g><g><path d="m117.134 175.054c-2.895 0-5.672-1.636-6.99-4.428-1.823-3.858-.174-8.464 3.684-10.287l33.495-15.828c3.857-1.824 8.464-.173 10.287 3.685s.174 8.464-3.684 10.287l-33.495 15.828c-1.067.505-2.191.743-3.297.743z" fill="#ce9874"/></g><g><path d="m131.59 220.815c-2.895 0-5.67-1.635-6.99-4.426-1.824-3.857-.176-8.464 3.682-10.288l45.205-21.376c3.859-1.822 8.463-.175 10.288 3.682 1.824 3.857.176 8.464-3.682 10.288l-45.205 21.376c-1.068.504-2.192.744-3.298.744z" fill="#ce9874"/></g><g><path d="m268.221 354.679h-28.852c-4.267 0-7.726-3.459-7.726-7.726s3.459-7.726 7.726-7.726h28.852c4.267 0 7.726 3.459 7.726 7.726s-3.459 7.726-7.726 7.726z" fill="#ce9874"/></g><g><path d="m268.221 404.907h-28.852c-4.267 0-7.726-3.459-7.726-7.726s3.459-7.726 7.726-7.726h28.852c4.267 0 7.726 3.459 7.726 7.726s-3.459 7.726-7.726 7.726z" fill="#ce9874"/></g><g><path d="m338.277 354.679h-28.822c-4.267 0-7.726-3.459-7.726-7.726s3.459-7.726 7.726-7.726h28.822c4.267 0 7.726 3.459 7.726 7.726s-3.459 7.726-7.726 7.726z" fill="#ce9874"/></g><g><path d="m338.277 404.907h-28.822c-4.267 0-7.726-3.459-7.726-7.726s3.459-7.726 7.726-7.726h28.822c4.267 0 7.726 3.459 7.726 7.726s-3.459 7.726-7.726 7.726z" fill="#ce9874"/></g><g><path d="m268.221 455.137h-28.852c-4.267 0-7.726-3.459-7.726-7.726s3.459-7.726 7.726-7.726h28.852c4.267 0 7.726 3.459 7.726 7.726s-3.459 7.726-7.726 7.726z" fill="#ce9874"/></g><g><path d="m338.277 455.137h-28.822c-4.267 0-7.726-3.459-7.726-7.726s3.459-7.726 7.726-7.726h28.822c4.267 0 7.726 3.459 7.726 7.726s-3.459 7.726-7.726 7.726z" fill="#ce9874"/></g><g><path d="m198.136 404.907h-28.823c-4.267 0-7.726-3.459-7.726-7.726s3.459-7.726 7.726-7.726h28.823c4.267 0 7.726 3.459 7.726 7.726s-3.459 7.726-7.726 7.726z"/></g><g><path d="m198.136 455.137h-28.823c-4.267 0-7.726-3.459-7.726-7.726s3.459-7.726 7.726-7.726h28.823c4.267 0 7.726 3.459 7.726 7.726s-3.459 7.726-7.726 7.726z" fill="#ce9874"/></g><g><path d="m408.362 354.679h-28.852c-4.267 0-7.726-3.459-7.726-7.726s3.459-7.726 7.726-7.726h28.852c4.267 0 7.726 3.459 7.726 7.726s-3.459 7.726-7.726 7.726z" fill="#ce9874"/></g><g><path d="m408.362 404.907h-28.852c-4.267 0-7.726-3.459-7.726-7.726s3.459-7.726 7.726-7.726h28.852c4.267 0 7.726 3.459 7.726 7.726s-3.459 7.726-7.726 7.726z" fill="#ce9874"/></g><g><path d="m408.362 455.137h-28.852c-4.267 0-7.726-3.459-7.726-7.726s3.459-7.726 7.726-7.726h28.852c4.267 0 7.726 3.459 7.726 7.726s-3.459 7.726-7.726 7.726z" fill="#ce9874"/></g><g><path d="m128.08 404.907h-28.822c-4.267 0-7.726-3.459-7.726-7.726s3.459-7.726 7.726-7.726h28.822c4.267 0 7.726 3.459 7.726 7.726s-3.458 7.726-7.726 7.726z"/></g><g><path d="m128.08 455.137h-28.822c-4.267 0-7.726-3.459-7.726-7.726s3.459-7.726 7.726-7.726h28.822c4.267 0 7.726 3.459 7.726 7.726s-3.458 7.726-7.726 7.726z" fill="#ce9874"/></g><g><path d="m198.165 404.907h-28.852c-4.267 0-7.726-3.459-7.726-7.726s3.459-7.726 7.726-7.726h28.852c4.267 0 7.726 3.459 7.726 7.726s-3.458 7.726-7.726 7.726z" fill="#ce9874"/></g><g><path d="m128.08 404.907h-28.822c-4.267 0-7.726-3.459-7.726-7.726s3.459-7.726 7.726-7.726h28.822c4.267 0 7.726 3.459 7.726 7.726s-3.458 7.726-7.726 7.726z" fill="#ce9874"/></g></g><g><path clip-rule="evenodd" d="m108.603 243.954h-31.772v52.507 76.116c0 2.211 2.255 3.707 4.292 2.847l187.098-78.964 41.613-17.551 82.846-34.956c-94.702.001-189.375.001-284.077.001z" fill="#90d8f9" fill-rule="evenodd"/></g><g><path clip-rule="evenodd" d="m76.831 354.837v16.187c0 2.949 3.006 4.943 5.723 3.796 91.628-38.677 183.283-77.354 274.909-116.031l35.218-14.835h-43.19-9.9c-87.577 36.941-175.183 73.912-262.76 110.883z" fill="#75cef8" fill-rule="evenodd"/></g></g></svg>