<svg width="24" height="24" viewBox="0 0 24 24" fill="none" xmlns="http://www.w3.org/2000/svg">
<path fill-rule="evenodd" clip-rule="evenodd" d="M8.79656 18.2343C8.94608 17.848 9.38043 17.656 9.76672 17.8056C10.5129 18.0944 11.2641 18.25 12 18.25C12.4142 18.25 12.75 18.5858 12.75 19C12.75 19.4142 12.4142 19.75 12 19.75C11.0519 19.75 10.1171 19.5496 9.22528 19.2044C8.83899 19.0549 8.64705 18.6206 8.79656 18.2343Z" fill="#4F4F4F"/>
<path fill-rule="evenodd" clip-rule="evenodd" d="M21.2387 11.8083C21.6031 12.0053 21.7387 12.4604 21.5417 12.8247C20.5502 14.6585 19.1374 16.3747 17.5007 17.6396C15.8681 18.9012 13.9634 19.75 12 19.75C11.5858 19.75 11.25 19.4142 11.25 19C11.25 18.5858 11.5858 18.25 12 18.25C13.5316 18.25 15.1219 17.5823 16.5835 16.4527C18.0411 15.3263 19.3218 13.7765 20.2223 12.1113C20.4193 11.7469 20.8744 11.6113 21.2387 11.8083Z" fill="#4F4F4F"/>
<path fill-rule="evenodd" clip-rule="evenodd" d="M18.5919 8.35071C18.9069 8.08169 19.3803 8.11893 19.6493 8.43389C20.372 9.28006 21.0168 10.2054 21.5417 11.1763C21.8186 11.6895 21.8186 12.3115 21.5417 12.8247C21.3451 13.1893 20.8904 13.3247 20.5259 13.1281C20.1613 12.9314 20.0256 12.4758 20.2223 12.1113C20.2593 12.0426 20.259 11.958 20.222 11.8893C19.751 11.0183 19.1679 10.1798 18.5087 9.40811C18.2397 9.09315 18.2769 8.61973 18.5919 8.35071Z" fill="#4F4F4F"/>
<path fill-rule="evenodd" clip-rule="evenodd" d="M19.5303 4.46967C19.8232 4.76256 19.8232 5.23744 19.5303 5.53033L5.53033 19.5303C5.23744 19.8232 4.76256 19.8232 4.46967 19.5303C4.17678 19.2374 4.17678 18.7626 4.46967 18.4697L18.4697 4.46967C18.7626 4.17678 19.2374 4.17678 19.5303 4.46967Z" fill="#4F4F4F"/>
<path fill-rule="evenodd" clip-rule="evenodd" d="M13.6977 10.3023C12.7606 9.36522 11.2404 9.36522 10.3033 10.3023C9.36622 11.2394 9.36622 12.7596 10.3033 13.6967C10.5962 13.9896 10.5962 14.4644 10.3033 14.7573C10.0104 15.0502 9.53556 15.0502 9.24267 14.7573C7.71978 13.2344 7.71978 10.7646 9.24267 9.24167C10.7656 7.71878 13.2354 7.71878 14.7583 9.24167C15.0512 9.53456 15.0512 10.0094 14.7583 10.3023C14.4654 10.5952 13.9906 10.5952 13.6977 10.3023Z" fill="#4F4F4F"/>
<path fill-rule="evenodd" clip-rule="evenodd" d="M6.49923 6.36058C8.13184 5.09876 10.0366 4.25 12 4.25C13.964 4.25 15.8703 5.09956 17.503 6.36283C17.8306 6.61631 17.8906 7.08737 17.6372 7.41497C17.3837 7.74257 16.9126 7.80265 16.585 7.54917C15.1237 6.41844 13.532 5.75 12 5.75C10.4684 5.75 8.87816 6.41774 7.41652 7.54742C5.95898 8.67393 4.67822 10.2239 3.77777 11.8897C3.74074 11.9583 3.74098 12.0429 3.77791 12.1116C4.67835 13.7762 5.95837 15.325 7.41491 16.4518C7.74253 16.7052 7.80266 17.1763 7.54921 17.5039C7.29576 17.8315 6.82471 17.8917 6.49709 17.6382C4.86176 16.3731 3.44986 14.658 2.45831 12.8248C2.1814 12.3115 2.18102 11.6902 2.45794 11.1769C3.44949 9.34261 4.86252 7.62557 6.49923 6.36058Z" fill="#4F4F4F"/>
</svg>
