<svg width="24" height="24" viewBox="0 0 24 24" fill="none" xmlns="http://www.w3.org/2000/svg">
<path fill-rule="evenodd" clip-rule="evenodd" d="M15.625 9.49699C15.625 8.87599 15.121 8.37499 14.5 8.37499C13.879 8.37799 13.375 8.88199 13.375 9.50299C13.375 10.124 13.879 10.628 14.5 10.625C15.121 10.625 15.625 10.121 15.625 9.49999" fill="#4F4F4F"/>
<path fill-rule="evenodd" clip-rule="evenodd" d="M18.259 5.74363C16.2731 3.75254 13.052 3.75235 11.065 5.7437C9.59815 7.214 9.21865 9.35982 9.92294 11.1896C10.0293 11.466 9.96311 11.7791 9.75393 11.9887L4.25 17.5052V19.75H6.48684L11.9681 14.2563C12.18 14.0439 12.4981 13.9782 12.7767 14.0893C14.6108 14.8205 16.7779 14.4448 18.259 12.9604M3.5 20.5L2.75 20.5V17.1956C2.75 17.1956 2.84344 16.9694 3.05556 16.7516L2.96907 16.6653L8.3625 11.2596C7.68497 9.00968 8.22462 6.46695 10.003 4.6843C12.576 2.10573 16.7488 2.10548 19.3209 4.68425M3.5 20.5L2.75 20.5C2.75 20.9142 3.08579 21.25 3.5 21.25H6.798C6.99721 21.25 7.18823 21.1707 7.32893 21.0297L12.6955 15.651C14.9578 16.3576 17.5267 15.8182 19.321 14.0197C21.8928 11.4411 21.893 7.26209 19.3209 4.68425M18.259 5.74363C20.2468 7.73579 20.247 10.967 18.259 12.9604Z" fill="#4F4F4F"/>
</svg>
