<svg width="24" height="24" viewBox="0 0 24 24" fill="none" xmlns="http://www.w3.org/2000/svg">
<path fill-rule="evenodd" clip-rule="evenodd" d="M15.9173 9.21967C16.2102 9.51256 16.2102 9.98744 15.9173 10.2803L11.7693 14.4283C11.6287 14.569 11.4379 14.648 11.239 14.648C11.0401 14.648 10.8493 14.569 10.7087 14.4283L8.21967 11.9393C7.92678 11.6464 7.92678 11.1716 8.21967 10.8787C8.51256 10.5858 8.98744 10.5858 9.28033 10.8787L11.239 12.8373L14.8567 9.21967C15.1496 8.92678 15.6244 8.92678 15.9173 9.21967Z" fill="#4F4F4F"/>
<path d="M11.75 21.5025C6.92 21.5025 3 17.5725 3 12.7525V6.6625C3 5.7525 3.7 4.9925 4.59 4.9225C6.83 4.7425 8.92 3.8825 10.62 2.4125C11.26 1.8625 12.23 1.8625 12.87 2.4125C14.58 3.8825 16.66 4.7425 18.9 4.9225C19.79 4.9925 20.49 5.7525 20.49 6.6625V12.7525C20.5 17.5725 16.58 21.5025 11.75 21.5025ZM11.75 3.5025C11.7 3.5025 11.64 3.5225 11.6 3.5525C9.65 5.2325 7.27 6.2225 4.71 6.4225C4.59 6.4325 4.5 6.5325 4.5 6.6625V12.7525C4.5 16.7525 7.75 20.0025 11.75 20.0025C15.75 20.0025 19 16.7525 19 12.7525V6.6625C19 6.5325 18.91 6.4325 18.79 6.4225C16.23 6.2225 13.85 5.2325 11.9 3.5525C11.86 3.5225 11.8 3.5025 11.75 3.5025Z" fill="#4F4F4F"/>
</svg>
