<svg width="24" height="24" viewBox="0 0 24 24" fill="none" xmlns="http://www.w3.org/2000/svg">
<path fill-rule="evenodd" clip-rule="evenodd" d="M6.99792 9.74875C6.30667 9.74875 5.74709 10.3083 5.74709 10.9996V19.0029C5.74709 19.6942 6.30667 20.2537 6.99792 20.2537H17.0021C17.6933 20.2537 18.2529 19.6942 18.2529 19.0029V10.9996C18.2529 10.3083 17.6933 9.74875 17.0021 9.74875H6.99792ZM4.24709 10.9996C4.24709 9.47991 5.47824 8.24875 6.99792 8.24875H17.0021C18.5218 8.24875 19.7529 9.47991 19.7529 10.9996V19.0029C19.7529 20.5226 18.5218 21.7537 17.0021 21.7537H6.99792C5.47824 21.7537 4.24709 20.5226 4.24709 19.0029V10.9996Z" fill="#4F4F4F"/>
<path fill-rule="evenodd" clip-rule="evenodd" d="M7.40523 5.83683C7.92441 3.78145 9.77318 2.24625 12 2.24625C14.6241 2.24625 16.7517 4.37378 16.7517 6.99792V8.99875C16.7517 9.41296 16.4159 9.74875 16.0017 9.74875C15.5875 9.74875 15.2517 9.41296 15.2517 8.99875V6.99792C15.2517 5.20221 13.7957 3.74625 12 3.74625C10.4853 3.74625 9.21674 4.79012 8.85955 6.20419C8.75811 6.60579 8.35031 6.84911 7.94871 6.74767C7.54711 6.64623 7.30379 6.23843 7.40523 5.83683Z" fill="#4F4F4F"/>
<path fill-rule="evenodd" clip-rule="evenodd" d="M10.7498 15.0054C10.7444 14.3099 11.3106 13.751 11.997 13.751C12.6864 13.751 13.2502 14.309 13.2502 15.0012C13.2502 15.6906 12.6893 16.2515 12 16.2515C11.312 16.2515 10.752 15.6928 10.7498 15.0054ZM11.4382 15.0012H10.7498L10.7498 15.0054" fill="#4F4F4F"/>
</svg>
