<svg width="24" height="24" viewBox="0 0 24 24" fill="none" xmlns="http://www.w3.org/2000/svg">
<path fill-rule="evenodd" clip-rule="evenodd" d="M7.41649 7.54732C5.95894 8.67372 4.67817 10.2235 3.77773 11.8887C3.74069 11.9574 3.74098 12.042 3.77795 12.1107C4.67839 13.7763 5.95908 15.3261 7.41652 16.4526C8.87816 17.5823 10.4684 18.25 12 18.25C13.5316 18.25 15.1219 17.5823 16.5835 16.4527C18.0411 15.3263 19.3218 13.7765 20.2223 12.1113C20.259 12.0428 20.2589 11.9579 20.2221 11.8895C19.3217 10.2238 18.041 8.67389 16.5835 7.54742C15.1218 6.41774 13.5316 5.75 12 5.75C10.4684 5.75 8.87815 6.41774 7.41649 7.54732ZM6.49926 6.36043C8.13185 5.09876 10.0366 4.25 12 4.25C13.9634 4.25 15.8682 5.09876 17.5008 6.36058C19.1375 7.62557 20.5502 9.34208 21.5418 11.1763C21.8187 11.6896 21.819 12.3108 21.5421 12.8241C20.5505 14.6579 19.1374 16.3747 17.5007 17.6396C15.8681 18.9012 13.9634 19.75 12 19.75C10.0366 19.75 8.13184 18.9012 6.49923 17.6394C4.86252 16.3744 3.44978 14.6579 2.45823 12.8237C2.18131 12.3104 2.18102 11.6892 2.45794 11.1759C3.4495 9.34213 4.86256 7.62528 6.49926 6.36043Z" fill="#4F4F4F"/>
<path fill-rule="evenodd" clip-rule="evenodd" d="M13.6162 10.3838C12.7236 9.49115 11.2764 9.49115 10.3837 10.3838C9.49113 11.2764 9.49113 12.7236 10.3837 13.6162C11.2764 14.5089 12.7236 14.5089 13.6162 13.6162C14.5088 12.7236 14.5088 11.2764 13.6162 10.3838ZM14.6264 9.37359C13.1759 7.92307 10.8241 7.92307 9.37358 9.37359C7.92305 10.8241 7.92305 13.1759 9.37358 14.6264C10.8241 16.0769 13.1759 16.0769 14.6264 14.6264C16.0769 13.1759 16.0769 10.8241 14.6264 9.37359Z" fill="#4F4F4F"/>
</svg>
