<svg width="24" height="24" viewBox="0 0 24 24" fill="none" xmlns="http://www.w3.org/2000/svg">
<path fill-rule="evenodd" clip-rule="evenodd" d="M12.6007 3.60467C14.4086 1.79678 17.3394 1.79678 19.1473 3.60467C20.9552 5.41256 20.9552 8.34344 19.1473 10.1513L11.9153 17.3833C10.7964 18.5022 8.98156 18.5022 7.86267 17.3833C6.74378 16.2644 6.74378 14.4496 7.86267 13.3307L13.3487 7.84467C13.6416 7.55178 14.1164 7.55178 14.4093 7.84467C14.7022 8.13756 14.7022 8.61244 14.4093 8.90533L8.92333 14.3913C8.39023 14.9244 8.39023 15.7896 8.92333 16.3227C9.45644 16.8558 10.3216 16.8558 10.8547 16.3227L18.0867 9.09067C19.3088 7.86856 19.3088 5.88744 18.0867 4.66533C16.8646 3.44322 14.8834 3.44322 13.6613 4.66533L6.42933 11.8973C4.51823 13.8084 4.51823 16.9056 6.42933 18.8167C8.34044 20.7278 11.4376 20.7278 13.3487 18.8167L17.7377 14.4277C18.0306 14.1348 18.5054 14.1348 18.7983 14.4277C19.0912 14.7206 19.0912 15.1954 18.7983 15.4883L14.4093 19.8773C11.9124 22.3742 7.86557 22.3742 5.36867 19.8773C2.87178 17.3804 2.87178 13.3336 5.36867 10.8367L12.6007 3.60467Z" fill="#4F4F4F"/>
</svg>
