<svg width="24" height="24" viewBox="0 0 24 24" fill="none" xmlns="http://www.w3.org/2000/svg">
<path fill-rule="evenodd" clip-rule="evenodd" d="M10.25 5C10.25 4.58579 10.5858 4.25 11 4.25H21C21.4142 4.25 21.75 4.58579 21.75 5C21.75 5.41421 21.4142 5.75 21 5.75H11C10.5858 5.75 10.25 5.41421 10.25 5Z" fill="#4F4F4F"/>
<path fill-rule="evenodd" clip-rule="evenodd" d="M10.25 12C10.25 11.5858 10.5858 11.25 11 11.25H21C21.4142 11.25 21.75 11.5858 21.75 12C21.75 12.4142 21.4142 12.75 21 12.75H11C10.5858 12.75 10.25 12.4142 10.25 12Z" fill="#4F4F4F"/>
<path fill-rule="evenodd" clip-rule="evenodd" d="M10.25 19C10.25 18.5858 10.5858 18.25 11 18.25H21C21.4142 18.25 21.75 18.5858 21.75 19C21.75 19.4142 21.4142 19.75 21 19.75H11C10.5858 19.75 10.25 19.4142 10.25 19Z" fill="#4F4F4F"/>
<path fill-rule="evenodd" clip-rule="evenodd" d="M4 3.75C3.86221 3.75 3.75 3.86221 3.75 4V6C3.75 6.13779 3.86221 6.25 4 6.25H6C6.13779 6.25 6.25 6.13779 6.25 6V4C6.25 3.86221 6.13779 3.75 6 3.75H4ZM2.25 4C2.25 3.03379 3.03379 2.25 4 2.25H6C6.96621 2.25 7.75 3.03379 7.75 4V6C7.75 6.96621 6.96621 7.75 6 7.75H4C3.03379 7.75 2.25 6.96621 2.25 6V4Z" fill="#4F4F4F"/>
<path fill-rule="evenodd" clip-rule="evenodd" d="M4 10.75C3.86221 10.75 3.75 10.8622 3.75 11V13C3.75 13.1378 3.86221 13.25 4 13.25H6C6.13779 13.25 6.25 13.1378 6.25 13V11C6.25 10.8622 6.13779 10.75 6 10.75H4ZM2.25 11C2.25 10.0338 3.03379 9.25 4 9.25H6C6.96621 9.25 7.75 10.0338 7.75 11V13C7.75 13.9662 6.96621 14.75 6 14.75H4C3.03379 14.75 2.25 13.9662 2.25 13V11Z" fill="#4F4F4F"/>
<path fill-rule="evenodd" clip-rule="evenodd" d="M4 17.75C3.86221 17.75 3.75 17.8622 3.75 18V20C3.75 20.1378 3.86221 20.25 4 20.25H6C6.13779 20.25 6.25 20.1378 6.25 20V18C6.25 17.8622 6.13779 17.75 6 17.75H4ZM2.25 18C2.25 17.0338 3.03379 16.25 4 16.25H6C6.96621 16.25 7.75 17.0338 7.75 18V20C7.75 20.9662 6.96621 21.75 6 21.75H4C3.03379 21.75 2.25 20.9662 2.25 20V18Z" fill="#4F4F4F"/>
</svg>
