<svg width="24" height="24" viewBox="0 0 24 24" fill="none" xmlns="http://www.w3.org/2000/svg">
<path fill-rule="evenodd" clip-rule="evenodd" d="M5.25 18C5.25 17.5858 5.58579 17.25 6 17.25H17C17.4142 17.25 17.75 17.5858 17.75 18C17.75 18.4142 17.4142 18.75 17 18.75H6C5.58579 18.75 5.25 18.4142 5.25 18Z" fill="#4F4F4F"/>
<path fill-rule="evenodd" clip-rule="evenodd" d="M6 3.75C4.75721 3.75 3.75 4.75721 3.75 6V14.9996C4.37673 14.5289 5.15576 14.25 6 14.25H17C17.1378 14.25 17.25 14.1378 17.25 14V5C17.25 4.30921 16.6908 3.75 16 3.75H6ZM3.75 18C3.75 19.2428 4.75721 20.25 6 20.25H19C19.6908 20.25 20.25 19.6908 20.25 19V5C20.25 4.58579 20.5858 4.25 21 4.25C21.4142 4.25 21.75 4.58579 21.75 5V19C21.75 20.5192 20.5192 21.75 19 21.75H6C3.92879 21.75 2.25 20.0712 2.25 18V6C2.25 3.92879 3.92879 2.25 6 2.25H16C17.5192 2.25 18.75 3.48079 18.75 5V14C18.75 14.9662 17.9662 15.75 17 15.75H6C4.75721 15.75 3.75 16.7572 3.75 18Z" fill="#4F4F4F"/>
</svg>
