<svg width="24" height="24" viewBox="0 0 24 24" fill="none" xmlns="http://www.w3.org/2000/svg">
<path fill-rule="evenodd" clip-rule="evenodd" d="M5 3.75C4.30921 3.75 3.75 4.30921 3.75 5L3.75 19C3.75 19.6908 4.30921 20.25 5 20.25L19 20.25C19.6908 20.25 20.25 19.6908 20.25 19L20.25 5C20.25 4.30921 19.6908 3.75 19 3.75L5 3.75ZM2.25 5C2.25 3.48079 3.48079 2.25 5 2.25L19 2.25C20.5192 2.25 21.75 3.48079 21.75 5L21.75 19C21.75 20.5192 20.5192 21.75 19 21.75L5 21.75C3.48079 21.75 2.25 20.5192 2.25 19L2.25 5Z" fill="#0066FF"/>
<path fill-rule="evenodd" clip-rule="evenodd" d="M2.25 9C2.25 8.58579 2.58579 8.25 3 8.25L21 8.25C21.4142 8.25 21.75 8.58579 21.75 9C21.75 9.41421 21.4142 9.75 21 9.75L3 9.75C2.58579 9.75 2.25 9.41421 2.25 9Z" fill="#0066FF"/>
<path fill-rule="evenodd" clip-rule="evenodd" d="M2.25 15C2.25 14.5858 2.58579 14.25 3 14.25L21 14.25C21.4142 14.25 21.75 14.5858 21.75 15C21.75 15.4142 21.4142 15.75 21 15.75L3 15.75C2.58579 15.75 2.25 15.4142 2.25 15Z" fill="#0066FF"/>
<path fill-rule="evenodd" clip-rule="evenodd" d="M12 8.25C12.4142 8.25 12.75 8.58579 12.75 9L12.75 21C12.75 21.4142 12.4142 21.75 12 21.75C11.5858 21.75 11.25 21.4142 11.25 21L11.25 9C11.25 8.58579 11.5858 8.25 12 8.25Z" fill="#0066FF"/>
</svg>
