<svg width="24" height="24" viewBox="0 0 24 24" fill="none" xmlns="http://www.w3.org/2000/svg">
<path d="M17.29 10.19C17.1 10.19 16.91 10.12 16.76 9.97L13.1 6.31C12.81 6.02 12.81 5.54 13.1 5.25C13.39 4.96 13.87 4.96 14.16 5.25L17.82 8.91C18.11 9.2 18.11 9.68 17.82 9.97C17.67 10.12 17.48 10.19 17.29 10.19Z" fill="#4F4F4F"/>
<path d="M6 21.07H2.75C2.34 21.07 2 20.73 2 20.32V17.07C2 16.61 2.19 16.16 2.51 15.83L15.85 2.5C16.51 1.84 17.66 1.84 18.32 2.5L20.57 4.75001C20.9 5.08001 21.08 5.52001 21.08 5.99001C21.08 6.46001 20.9 6.9 20.57 7.23L7.24 20.56C6.92 20.88 6.46 21.07 6 21.07ZM3.5 19.57H6C6.07 19.57 6.13 19.54 6.17 19.5L19.51 6.16C19.57 6.1 19.58 6.02001 19.58 5.98001C19.58 5.94001 19.57 5.87 19.51 5.8L17.26 3.55C17.13 3.42 17.04 3.42 16.91 3.55L3.57 16.89C3.53 16.94 3.5 17 3.5 17.07V19.57Z" fill="#4F4F4F"/>
</svg>
