<svg width="24" height="24" viewBox="0 0 24 24" fill="none" xmlns="http://www.w3.org/2000/svg">
<path fill-rule="evenodd" clip-rule="evenodd" d="M6 3.75C4.75721 3.75 3.75 4.75721 3.75 6V18C3.75 19.2428 4.75721 20.25 6 20.25H18C19.2428 20.25 20.25 19.2428 20.25 18V6C20.25 4.75721 19.2428 3.75 18 3.75H6ZM2.25 6C2.25 3.92879 3.92879 2.25 6 2.25H18C20.0712 2.25 21.75 3.92879 21.75 6V18C21.75 20.0712 20.0712 21.75 18 21.75H6C3.92879 21.75 2.25 20.0712 2.25 18V6Z" fill="#4F4F4F"/>
<path fill-rule="evenodd" clip-rule="evenodd" d="M9.25 19.625C9.25 13.8948 13.8948 9.25 19.625 9.25C20.1404 9.25 20.635 9.29954 21.1056 9.36647C21.5157 9.4248 21.8009 9.80452 21.7425 10.2146C21.6842 10.6247 21.3045 10.9099 20.8944 10.8515C20.465 10.7905 20.0456 10.75 19.625 10.75C14.7232 10.75 10.75 14.7232 10.75 19.625C10.75 20.0456 10.7905 20.465 10.8515 20.8944C10.9099 21.3045 10.6247 21.6842 10.2146 21.7425C9.80452 21.8009 9.4248 21.5157 9.36647 21.1056C9.29954 20.635 9.25 20.1404 9.25 19.625Z" fill="#4F4F4F"/>
<path d="M8.5 10.98C7.83 10.98 7.2 10.72 6.73 10.25C5.76 9.28 5.76 7.69 6.73 6.71C7.67 5.76 9.32 5.76 10.27 6.71C11.24 7.68 11.24 9.27 10.27 10.25C9.79 10.72 9.17 10.98 8.5 10.98ZM8.5 7.48C8.23 7.48 7.98 7.58 7.79 7.77C7.4 8.16 7.4 8.79 7.79 9.18C8.17 9.56 8.83 9.56 9.2 9.18C9.59 8.79 9.59 8.16 9.2 7.77C9.02 7.58 8.77 7.48 8.5 7.48Z" fill="#4F4F4F"/>
</svg>
