<svg width="24" height="24" viewBox="0 0 24 24" fill="none" xmlns="http://www.w3.org/2000/svg">
<path d="M18.75 21.5H4.75C3.23 21.5 2 20.27 2 18.75V5.75C2 4.23 3.23 3 4.75 3H18.75C20.27 3 21.5 4.23 21.5 5.75V18.75C21.5 20.27 20.27 21.5 18.75 21.5ZM4.75 4.5C4.06 4.5 3.5 5.06 3.5 5.75V18.75C3.5 19.44 4.06 20 4.75 20H18.75C19.44 20 20 19.44 20 18.75V5.75C20 5.06 19.44 4.5 18.75 4.5H4.75Z" fill="#4F4F4F"/>
<path d="M15.75 6.5C15.34 6.5 15 6.16 15 5.75V2.75C15 2.34 15.34 2 15.75 2C16.16 2 16.5 2.34 16.5 2.75V5.75C16.5 6.16 16.16 6.5 15.75 6.5Z" fill="#4F4F4F"/>
<path d="M11.75 6.5C11.34 6.5 11 6.16 11 5.75V2.75C11 2.34 11.34 2 11.75 2C12.16 2 12.5 2.34 12.5 2.75V5.75C12.5 6.16 12.16 6.5 11.75 6.5Z" fill="#4F4F4F"/>
<path d="M7.75 6.5C7.34 6.5 7 6.16 7 5.75V2.75C7 2.34 7.34 2 7.75 2C8.16 2 8.5 2.34 8.5 2.75V5.75C8.5 6.16 8.16 6.5 7.75 6.5Z" fill="#4F4F4F"/>
<path d="M16.75 16.5H11.75C11.34 16.5 11 16.16 11 15.75C11 15.34 11.34 15 11.75 15H16.75C17.16 15 17.5 15.34 17.5 15.75C17.5 16.16 17.16 16.5 16.75 16.5Z" fill="#4F4F4F"/>
<path d="M7.5 17.75C6.99 17.75 6.48 17.55 6.09 17.17C5.71 16.79 5.5 16.29 5.5 15.76C5.5 15.22 5.71 14.72 6.09 14.35C6.87 13.57 8.14 13.57 8.92 14.35C9.3 14.73 9.51 15.23 9.51 15.76C9.51 16.29 9.3 16.8 8.92 17.18C8.52 17.55 8.01 17.75 7.5 17.75ZM7.5 15.25C7.37 15.25 7.24 15.3 7.15 15.4C7.05 15.49 7 15.62 7 15.75C7 15.88 7.05 16.01 7.15 16.1C7.34 16.3 7.66 16.3 7.86 16.1C7.95 16.01 8 15.88 8 15.75C8 15.62 7.95 15.49 7.85 15.4C7.76 15.3 7.63 15.25 7.5 15.25Z" fill="#4F4F4F"/>
<path d="M16.75 11.5H11.75C11.34 11.5 11 11.16 11 10.75C11 10.34 11.34 10 11.75 10H16.75C17.16 10 17.5 10.34 17.5 10.75C17.5 11.16 17.16 11.5 16.75 11.5Z" fill="#4F4F4F"/>
<path d="M7.5 12.75C6.99 12.75 6.48 12.55 6.09 12.16C5.31 11.38 5.31 10.11 6.09 9.33C6.87 8.55 8.14 8.55 8.92 9.33C9.29 9.71 9.5 10.22 9.5 10.75C9.5 11.28 9.29 11.79 8.91 12.16C8.52 12.55 8.01 12.75 7.5 12.75ZM7.5 10.25C7.37 10.25 7.24 10.3 7.15 10.4C6.96 10.59 6.96 10.91 7.15 11.11C7.35 11.31 7.66 11.31 7.86 11.11C7.95 11.01 8 10.88 8 10.75C8 10.62 7.95 10.49 7.85 10.4C7.76 10.3 7.63 10.25 7.5 10.25Z" fill="#4F4F4F"/>
</svg>
