<svg width="24" height="24" viewBox="0 0 24 24" fill="none" xmlns="http://www.w3.org/2000/svg">
<path fill-rule="evenodd" clip-rule="evenodd" d="M3.25 4.5C3.25 4.08579 3.58579 3.75 4 3.75H20C20.4142 3.75 20.75 4.08579 20.75 4.5C20.75 4.91421 20.4142 5.25 20 5.25H4C3.58579 5.25 3.25 4.91421 3.25 4.5Z" fill="#4F4F4F"/>
<path fill-rule="evenodd" clip-rule="evenodd" d="M10.25 9.5C10.25 9.08579 10.5858 8.75 11 8.75H20C20.4142 8.75 20.75 9.08579 20.75 9.5C20.75 9.91421 20.4142 10.25 20 10.25H11C10.5858 10.25 10.25 9.91421 10.25 9.5Z" fill="#4F4F4F"/>
<path fill-rule="evenodd" clip-rule="evenodd" d="M10.25 14.5C10.25 14.0858 10.5858 13.75 11 13.75H20C20.4142 13.75 20.75 14.0858 20.75 14.5C20.75 14.9142 20.4142 15.25 20 15.25H11C10.5858 15.25 10.25 14.9142 10.25 14.5Z" fill="#4F4F4F"/>
<path fill-rule="evenodd" clip-rule="evenodd" d="M3.25 19.5C3.25 19.0858 3.58579 18.75 4 18.75H20C20.4142 18.75 20.75 19.0858 20.75 19.5C20.75 19.9142 20.4142 20.25 20 20.25H4C3.58579 20.25 3.25 19.9142 3.25 19.5Z" fill="#4F4F4F"/>
<path fill-rule="evenodd" clip-rule="evenodd" d="M7.53033 8.46967C7.82322 8.76256 7.82322 9.23744 7.53033 9.53033L5.06066 12L7.53033 14.4697C7.82322 14.7626 7.82322 15.2374 7.53033 15.5303C7.23744 15.8232 6.76256 15.8232 6.46967 15.5303L3.46967 12.5303C3.17678 12.2374 3.17678 11.7626 3.46967 11.4697L6.46967 8.46967C6.76256 8.17678 7.23744 8.17678 7.53033 8.46967Z" fill="#4F4F4F"/>
</svg>
