<svg width="24" height="24" viewBox="0 0 24 24" fill="none" xmlns="http://www.w3.org/2000/svg">
<path fill-rule="evenodd" clip-rule="evenodd" d="M2.58299 3.875C2.58299 3.46079 2.91878 3.125 3.33299 3.125H20.666C21.0802 3.125 21.416 3.46079 21.416 3.875C21.416 4.28921 21.0802 4.625 20.666 4.625H3.33299C2.91878 4.625 2.58299 4.28921 2.58299 3.875Z" fill="#4F4F4F"/>
<path fill-rule="evenodd" clip-rule="evenodd" d="M14.5 9.292C14.5 8.87779 14.8358 8.542 15.25 8.542H20.667C21.0812 8.542 21.417 8.87779 21.417 9.292C21.417 9.70621 21.0812 10.042 20.667 10.042H15.25C14.8358 10.042 14.5 9.70621 14.5 9.292Z" fill="#4F4F4F"/>
<path fill-rule="evenodd" clip-rule="evenodd" d="M14.5 14.708C14.5 14.2938 14.8358 13.958 15.25 13.958H20.667C21.0812 13.958 21.417 14.2938 21.417 14.708C21.417 15.1222 21.0812 15.458 20.667 15.458H15.25C14.8358 15.458 14.5 15.1222 14.5 14.708Z" fill="#4F4F4F"/>
<path fill-rule="evenodd" clip-rule="evenodd" d="M2.58299 9.593C2.58299 8.11479 3.78078 6.917 5.25899 6.917H10.074C11.5522 6.917 12.75 8.11479 12.75 9.593V14.408C12.75 15.8862 11.5522 17.084 10.074 17.084H5.25899C3.78078 17.084 2.58299 15.8862 2.58299 14.408V9.593ZM5.25899 8.417C4.60921 8.417 4.08299 8.94321 4.08299 9.593V14.408C4.08299 15.0578 4.60921 15.584 5.25899 15.584H10.074C10.7238 15.584 11.25 15.0578 11.25 14.408V9.593C11.25 8.94321 10.7238 8.417 10.074 8.417H5.25899Z" fill="#4F4F4F"/>
<path fill-rule="evenodd" clip-rule="evenodd" d="M2.58299 20.125C2.58299 19.7108 2.91878 19.375 3.33299 19.375H20.666C21.0802 19.375 21.416 19.7108 21.416 20.125C21.416 20.5392 21.0802 20.875 20.666 20.875H3.33299C2.91878 20.875 2.58299 20.5392 2.58299 20.125Z" fill="#4F4F4F"/>
</svg>
