<svg width="24" height="24" viewBox="0 0 24 24" fill="none" xmlns="http://www.w3.org/2000/svg">
<path fill-rule="evenodd" clip-rule="evenodd" d="M5 5.25C4.86221 5.25 4.75 5.36221 4.75 5.5V8.5C4.75 8.63779 4.86221 8.75 5 8.75H8C8.13779 8.75 8.25 8.63779 8.25 8.5V5.5C8.25 5.36221 8.13779 5.25 8 5.25H5ZM3.25 5.5C3.25 4.53379 4.03379 3.75 5 3.75H8C8.96621 3.75 9.75 4.53379 9.75 5.5V8.5C9.75 9.46621 8.96621 10.25 8 10.25H5C4.03379 10.25 3.25 9.46621 3.25 8.5V5.5Z" fill="#4F4F4F"/>
<path fill-rule="evenodd" clip-rule="evenodd" d="M12.25 4.5C12.25 4.08579 12.5858 3.75 13 3.75H20C20.4142 3.75 20.75 4.08579 20.75 4.5C20.75 4.91421 20.4142 5.25 20 5.25H13C12.5858 5.25 12.25 4.91421 12.25 4.5Z" fill="#4F4F4F"/>
<path fill-rule="evenodd" clip-rule="evenodd" d="M12.25 9.5C12.25 9.08579 12.5858 8.75 13 8.75H20C20.4142 8.75 20.75 9.08579 20.75 9.5C20.75 9.91421 20.4142 10.25 20 10.25H13C12.5858 10.25 12.25 9.91421 12.25 9.5Z" fill="#4F4F4F"/>
<path fill-rule="evenodd" clip-rule="evenodd" d="M3.25 14.5C3.25 14.0858 3.58579 13.75 4 13.75H20C20.4142 13.75 20.75 14.0858 20.75 14.5C20.75 14.9142 20.4142 15.25 20 15.25H4C3.58579 15.25 3.25 14.9142 3.25 14.5Z" fill="#4F4F4F"/>
<path fill-rule="evenodd" clip-rule="evenodd" d="M3.25 19.5C3.25 19.0858 3.58579 18.75 4 18.75H20C20.4142 18.75 20.75 19.0858 20.75 19.5C20.75 19.9142 20.4142 20.25 20 20.25H4C3.58579 20.25 3.25 19.9142 3.25 19.5Z" fill="#4F4F4F"/>
</svg>
