<svg width="24" height="24" viewBox="0 0 24 24" fill="none" xmlns="http://www.w3.org/2000/svg">
<path fill-rule="evenodd" clip-rule="evenodd" d="M3.25 4.5C3.25 4.08579 3.58579 3.75 4 3.75H20C20.4142 3.75 20.75 4.08579 20.75 4.5C20.75 4.91421 20.4142 5.25 20 5.25H4C3.58579 5.25 3.25 4.91421 3.25 4.5Z" fill="#4F4F4F"/>
<path fill-rule="evenodd" clip-rule="evenodd" d="M3.25 9.5C3.25 9.08579 3.58579 8.75 4 8.75H20C20.4142 8.75 20.75 9.08579 20.75 9.5C20.75 9.91421 20.4142 10.25 20 10.25H4C3.58579 10.25 3.25 9.91421 3.25 9.5Z" fill="#4F4F4F"/>
<path fill-rule="evenodd" clip-rule="evenodd" d="M3.25 14.5C3.25 14.0858 3.58579 13.75 4 13.75H12C12.4142 13.75 12.75 14.0858 12.75 14.5C12.75 14.9142 12.4142 15.25 12 15.25H4C3.58579 15.25 3.25 14.9142 3.25 14.5Z" fill="#4F4F4F"/>
<path fill-rule="evenodd" clip-rule="evenodd" d="M3.25 19.5C3.25 19.0858 3.58579 18.75 4 18.75H8C8.41421 18.75 8.75 19.0858 8.75 19.5C8.75 19.9142 8.41421 20.25 8 20.25H4C3.58579 20.25 3.25 19.9142 3.25 19.5Z" fill="#4F4F4F"/>
<path fill-rule="evenodd" clip-rule="evenodd" d="M14.5303 16.9697C14.8232 17.2626 14.8232 17.7374 14.5303 18.0303L13.0607 19.5L14.5303 20.9697C14.8232 21.2626 14.8232 21.7374 14.5303 22.0303C14.2374 22.3232 13.7626 22.3232 13.4697 22.0303L11.4697 20.0303C11.1768 19.7374 11.1768 19.2626 11.4697 18.9697L13.4697 16.9697C13.7626 16.6768 14.2374 16.6768 14.5303 16.9697Z" fill="#4F4F4F"/>
<path fill-rule="evenodd" clip-rule="evenodd" d="M15.25 14.5C15.25 14.0858 15.5858 13.75 16 13.75H17.5C19.2952 13.75 20.75 15.2048 20.75 17C20.75 18.7952 19.2952 20.25 17.5 20.25H12C11.5858 20.25 11.25 19.9142 11.25 19.5C11.25 19.0858 11.5858 18.75 12 18.75H17.5C18.4668 18.75 19.25 17.9668 19.25 17C19.25 16.0332 18.4668 15.25 17.5 15.25H16C15.5858 15.25 15.25 14.9142 15.25 14.5Z" fill="#4F4F4F"/>
</svg>
