<svg width="24" height="24" viewBox="0 0 24 24" fill="none" xmlns="http://www.w3.org/2000/svg">
<path fill-rule="evenodd" clip-rule="evenodd" d="M12.25 4.5C12.25 4.08579 12.5858 3.75 13 3.75H20C20.4142 3.75 20.75 4.08579 20.75 4.5C20.75 4.91421 20.4142 5.25 20 5.25H13C12.5858 5.25 12.25 4.91421 12.25 4.5Z" fill="#4F4F4F"/>
<path fill-rule="evenodd" clip-rule="evenodd" d="M12.25 9.5C12.25 9.08579 12.5858 8.75 13 8.75H20C20.4142 8.75 20.75 9.08579 20.75 9.5C20.75 9.91421 20.4142 10.25 20 10.25H13C12.5858 10.25 12.25 9.91421 12.25 9.5Z" fill="#4F4F4F"/>
<path fill-rule="evenodd" clip-rule="evenodd" d="M3.25 14.5C3.25 14.0858 3.58578 13.75 4 13.75H20C20.4142 13.75 20.75 14.0858 20.75 14.5C20.75 14.9142 20.4142 15.25 20 15.25H4C3.58578 15.25 3.25 14.9142 3.25 14.5Z" fill="#4F4F4F"/>
<path fill-rule="evenodd" clip-rule="evenodd" d="M3.25 19.5C3.25 19.0858 3.58578 18.75 4 18.75H20C20.4142 18.75 20.75 19.0858 20.75 19.5C20.75 19.9142 20.4142 20.25 20 20.25H4C3.58578 20.25 3.25 19.9142 3.25 19.5Z" fill="#4F4F4F"/>
<path fill-rule="evenodd" clip-rule="evenodd" d="M6.5 3.75C6.78408 3.75 7.04377 3.9105 7.17082 4.16459L9.67082 9.16459C9.85606 9.53507 9.70589 9.98558 9.33541 10.1708C8.96492 10.3561 8.51442 10.2059 8.32918 9.83541L6.5 6.17705L4.67082 9.83541C4.48557 10.2059 4.03507 10.3561 3.66459 10.1708C3.2941 9.98558 3.14393 9.53507 3.32918 9.16459L5.82918 4.16459C5.95622 3.9105 6.21592 3.75 6.5 3.75Z" fill="#4F4F4F"/>
<path fill-rule="evenodd" clip-rule="evenodd" d="M3.75 8.5C3.75 8.08579 4.08578 7.75 4.5 7.75H8.5C8.91421 7.75 9.25 8.08579 9.25 8.5C9.25 8.91421 8.91421 9.25 8.5 9.25H4.5C4.08578 9.25 3.75 8.91421 3.75 8.5Z" fill="#4F4F4F"/>
</svg>
