<svg width="24" height="24" viewBox="0 0 24 24" fill="none" xmlns="http://www.w3.org/2000/svg">
<path fill-rule="evenodd" clip-rule="evenodd" d="M2.58299 20.125C2.58299 19.7108 2.91878 19.375 3.33299 19.375H20.667C21.0812 19.375 21.417 19.7108 21.417 20.125C21.417 20.5392 21.0812 20.875 20.667 20.875H3.33299C2.91878 20.875 2.58299 20.5392 2.58299 20.125Z" fill="#4F4F4F"/>
<path fill-rule="evenodd" clip-rule="evenodd" d="M2.58299 14.708C2.58299 14.2938 2.91878 13.958 3.33299 13.958H8.74999C9.16421 13.958 9.49999 14.2938 9.49999 14.708C9.49999 15.1222 9.16421 15.458 8.74999 15.458H3.33299C2.91878 15.458 2.58299 15.1222 2.58299 14.708Z" fill="#4F4F4F"/>
<path fill-rule="evenodd" clip-rule="evenodd" d="M2.58299 9.292C2.58299 8.87779 2.91878 8.542 3.33299 8.542H8.74999C9.16421 8.542 9.49999 8.87779 9.49999 9.292C9.49999 9.70621 9.16421 10.042 8.74999 10.042H3.33299C2.91878 10.042 2.58299 9.70621 2.58299 9.292Z" fill="#4F4F4F"/>
<path fill-rule="evenodd" clip-rule="evenodd" d="M11.25 9.593C11.25 8.11479 12.4478 6.917 13.926 6.917H18.741C20.2192 6.917 21.417 8.11479 21.417 9.593V14.407C21.417 15.8852 20.2192 17.083 18.741 17.083H13.926C12.448 17.083 11.25 15.8855 11.25 14.408V9.593ZM13.926 15.583H18.741C19.3908 15.583 19.917 15.0568 19.917 14.407V9.593C19.917 8.94321 19.3908 8.417 18.741 8.417H13.926C13.2762 8.417 12.75 8.94321 12.75 9.593V14.408C12.75 15.0565 13.276 15.583 13.926 15.583Z" fill="#4F4F4F"/>
<path fill-rule="evenodd" clip-rule="evenodd" d="M2.58299 3.875C2.58299 3.46079 2.91878 3.125 3.33299 3.125H20.667C21.0812 3.125 21.417 3.46079 21.417 3.875C21.417 4.28921 21.0812 4.625 20.667 4.625H3.33299C2.91878 4.625 2.58299 4.28921 2.58299 3.875Z" fill="#4F4F4F"/>
</svg>
