<svg width="24" height="24" viewBox="0 0 24 24" fill="none" xmlns="http://www.w3.org/2000/svg">
<path fill-rule="evenodd" clip-rule="evenodd" d="M3.25 19.5C3.25 19.0858 3.58579 18.75 4 18.75H20C20.4142 18.75 20.75 19.0858 20.75 19.5C20.75 19.9142 20.4142 20.25 20 20.25H4C3.58579 20.25 3.25 19.9142 3.25 19.5Z" fill="#4F4F4F"/>
<path fill-rule="evenodd" clip-rule="evenodd" d="M3.25 14.5C3.25 14.0858 3.58579 13.75 4 13.75H13C13.4142 13.75 13.75 14.0858 13.75 14.5C13.75 14.9142 13.4142 15.25 13 15.25H4C3.58579 15.25 3.25 14.9142 3.25 14.5Z" fill="#4F4F4F"/>
<path fill-rule="evenodd" clip-rule="evenodd" d="M3.25 9.5C3.25 9.08579 3.58579 8.75 4 8.75H13C13.4142 8.75 13.75 9.08579 13.75 9.5C13.75 9.91421 13.4142 10.25 13 10.25H4C3.58579 10.25 3.25 9.91421 3.25 9.5Z" fill="#4F4F4F"/>
<path fill-rule="evenodd" clip-rule="evenodd" d="M3.25 4.5C3.25 4.08579 3.58579 3.75 4 3.75H20C20.4142 3.75 20.75 4.08579 20.75 4.5C20.75 4.91421 20.4142 5.25 20 5.25H4C3.58579 5.25 3.25 4.91421 3.25 4.5Z" fill="#4F4F4F"/>
<path fill-rule="evenodd" clip-rule="evenodd" d="M16.4697 8.46967C16.7626 8.17678 17.2374 8.17678 17.5303 8.46967L20.5303 11.4697C20.8232 11.7626 20.8232 12.2374 20.5303 12.5303L17.5303 15.5303C17.2374 15.8232 16.7626 15.8232 16.4697 15.5303C16.1768 15.2374 16.1768 14.7626 16.4697 14.4697L18.9393 12L16.4697 9.53033C16.1768 9.23744 16.1768 8.76256 16.4697 8.46967Z" fill="#4F4F4F"/>
</svg>
