<svg width="24" height="24" viewBox="0 0 24 24" fill="none" xmlns="http://www.w3.org/2000/svg">
<path fill-rule="evenodd" clip-rule="evenodd" d="M18.624 4.08396C18.8538 4.42861 18.7607 4.89426 18.416 5.12403C16.9108 6.1275 16.0722 6.78254 15.5458 7.8354C15.0527 8.82166 14.7967 10.236 14.7558 12.75H19C19.9662 12.75 20.75 13.5338 20.75 14.5V18.5C20.75 19.4662 19.9662 20.25 19 20.25H15C14.0338 20.25 13.25 19.4662 13.25 18.5V13.5C13.25 10.4902 13.4944 8.58423 14.2042 7.16458C14.9278 5.71744 16.0892 4.87248 17.584 3.87595C17.9286 3.64619 18.3943 3.73932 18.624 4.08396ZM14.75 14.25V18.5C14.75 18.6378 14.8622 18.75 15 18.75H19C19.1378 18.75 19.25 18.6378 19.25 18.5V14.5C19.25 14.3622 19.1378 14.25 19 14.25H14.75Z" fill="#4F4F4F"/>
<path fill-rule="evenodd" clip-rule="evenodd" d="M8.62404 4.08396C8.8538 4.42861 8.76067 4.89426 8.41603 5.12403C6.91081 6.1275 6.07225 6.78254 5.54582 7.8354C5.05269 8.82166 4.79668 10.236 4.75583 12.75H9C9.96621 12.75 10.75 13.5338 10.75 14.5V18.5C10.75 19.4662 9.96621 20.25 9 20.25H5C4.03379 20.25 3.25 19.4662 3.25 18.5V13.5C3.25 10.4902 3.49435 8.58423 4.20418 7.16458C4.92775 5.71744 6.08919 4.87248 7.58397 3.87595C7.92862 3.64619 8.39427 3.73932 8.62404 4.08396ZM4.75 14.25V18.5C4.75 18.6378 4.86221 18.75 5 18.75H9C9.13779 18.75 9.25 18.6378 9.25 18.5V14.5C9.25 14.3622 9.13779 14.25 9 14.25H4.75Z" fill="#4F4F4F"/>
</svg>
