<svg width="24" height="24" viewBox="0 0 24 24" fill="none" xmlns="http://www.w3.org/2000/svg">
<path fill-rule="evenodd" clip-rule="evenodd" d="M8.26152 15.9715C7.45821 15.1682 6.15579 15.1682 5.35248 15.9715C4.54917 16.7748 4.54917 18.0773 5.35248 18.8806C6.15579 19.6839 7.45821 19.6839 8.26152 18.8806C9.06483 18.0773 9.06483 16.7748 8.26152 15.9715ZM9.32218 14.9109C7.93309 13.5218 5.68091 13.5218 4.29182 14.9109C2.90273 16.3 2.90273 18.5521 4.29182 19.9412C5.68091 21.3303 7.93309 21.3303 9.32218 19.9412C10.7113 18.5521 10.7113 16.3 9.32218 14.9109Z" fill="#4F4F4F"/>
<path fill-rule="evenodd" clip-rule="evenodd" d="M8.26152 5.11948C7.45821 4.31617 6.15579 4.31617 5.35248 5.11948C4.54917 5.92279 4.54917 7.22521 5.35248 8.02852C6.15579 8.83183 7.45821 8.83183 8.26152 8.02852C9.06483 7.22521 9.06483 5.92279 8.26152 5.11948ZM9.32218 4.05882C7.93309 2.66972 5.68091 2.66972 4.29182 4.05882C2.90273 5.44791 2.90273 7.70009 4.29182 9.08918C5.68091 10.4783 7.93309 10.4783 9.32218 9.08918C10.7113 7.70009 10.7113 5.44791 9.32218 4.05882Z" fill="#4F4F4F"/>
<path fill-rule="evenodd" clip-rule="evenodd" d="M4.73943 8.65483C4.93558 8.29 5.39035 8.15327 5.75517 8.34943L20.3552 16.1994C20.72 16.3956 20.8567 16.8503 20.6606 17.2152C20.4644 17.58 20.0097 17.7167 19.6448 17.5206L5.04483 9.67057C4.68001 9.47441 4.54327 9.01965 4.73943 8.65483Z" fill="#4F4F4F"/>
<path fill-rule="evenodd" clip-rule="evenodd" d="M20.6606 6.78483C20.8567 7.14965 20.72 7.60441 20.3552 7.80057L5.75517 15.6506C5.39035 15.8467 4.93558 15.71 4.73943 15.3452C4.54327 14.9803 4.68001 14.5256 5.04483 14.3294L19.6448 6.47943C20.0097 6.28327 20.4644 6.42 20.6606 6.78483Z" fill="#4F4F4F"/>
</svg>
