<svg width="24" height="24" viewBox="0 0 24 24" fill="none" xmlns="http://www.w3.org/2000/svg">
<path fill-rule="evenodd" clip-rule="evenodd" d="M16 3.25C16.4142 3.25 16.75 3.58579 16.75 4V20C16.75 20.4142 16.4142 20.75 16 20.75C15.5858 20.75 15.25 20.4142 15.25 20V4C15.25 3.58579 15.5858 3.25 16 3.25Z" fill="#4F4F4F"/>
<path fill-rule="evenodd" clip-rule="evenodd" d="M8.889 4.75C6.60321 4.75 4.75 6.60321 4.75 8.889C4.75 11.1748 6.60321 13.028 8.889 13.028H11C11.4142 13.028 11.75 13.3638 11.75 13.778C11.75 14.1922 11.4142 14.528 11 14.528H8.889C5.77479 14.528 3.25 12.0032 3.25 8.889C3.25 5.77479 5.77479 3.25 8.889 3.25H20C20.4142 3.25 20.75 3.58579 20.75 4C20.75 4.41421 20.4142 4.75 20 4.75H8.889Z" fill="#4F4F4F"/>
<path fill-rule="evenodd" clip-rule="evenodd" d="M11 3.25C11.4142 3.25 11.75 3.58579 11.75 4V20C11.75 20.4142 11.4142 20.75 11 20.75C10.5858 20.75 10.25 20.4142 10.25 20V4C10.25 3.58579 10.5858 3.25 11 3.25Z" fill="#4F4F4F"/>
</svg>
