<svg width="24" height="24" viewBox="0 0 24 24" fill="none" xmlns="http://www.w3.org/2000/svg">
<path fill-rule="evenodd" clip-rule="evenodd" d="M11.6954 2.31464C11.8893 2.22845 12.1107 2.22845 12.3046 2.31464L21.3046 6.31464C21.5754 6.43502 21.75 6.70361 21.75 7V9C21.75 9.41421 21.4142 9.75 21 9.75H3C2.58579 9.75 2.25 9.41421 2.25 9V7C2.25 6.70361 2.42455 6.43502 2.6954 6.31464L11.6954 2.31464ZM3.75 7.4874V8.25H20.25V7.4874L12 3.82074L3.75 7.4874Z" fill="#4F4F4F"/>
<path fill-rule="evenodd" clip-rule="evenodd" d="M4.5 10.75C4.91421 10.75 5.25 11.0858 5.25 11.5V15.5C5.25 15.9142 4.91421 16.25 4.5 16.25C4.08579 16.25 3.75 15.9142 3.75 15.5V11.5C3.75 11.0858 4.08579 10.75 4.5 10.75Z" fill="#4F4F4F"/>
<path fill-rule="evenodd" clip-rule="evenodd" d="M19.5 10.75C19.9142 10.75 20.25 11.0858 20.25 11.5V15.5C20.25 15.9142 19.9142 16.25 19.5 16.25C19.0858 16.25 18.75 15.9142 18.75 15.5V11.5C18.75 11.0858 19.0858 10.75 19.5 10.75Z" fill="#4F4F4F"/>
<path fill-rule="evenodd" clip-rule="evenodd" d="M9.5 10.75C9.91421 10.75 10.25 11.0858 10.25 11.5V15.5C10.25 15.9142 9.91421 16.25 9.5 16.25C9.08579 16.25 8.75 15.9142 8.75 15.5V11.5C8.75 11.0858 9.08579 10.75 9.5 10.75Z" fill="#4F4F4F"/>
<path fill-rule="evenodd" clip-rule="evenodd" d="M14.5 10.75C14.9142 10.75 15.25 11.0858 15.25 11.5V15.5C15.25 15.9142 14.9142 16.25 14.5 16.25C14.0858 16.25 13.75 15.9142 13.75 15.5V11.5C13.75 11.0858 14.0858 10.75 14.5 10.75Z" fill="#4F4F4F"/>
<path fill-rule="evenodd" clip-rule="evenodd" d="M2.25 18C2.25 17.5858 2.58579 17.25 3 17.25H21C21.4142 17.25 21.75 17.5858 21.75 18V21C21.75 21.4142 21.4142 21.75 21 21.75H3C2.58579 21.75 2.25 21.4142 2.25 21V18ZM3.75 18.75V20.25H20.25V18.75H3.75Z" fill="#4F4F4F"/>
</svg>
