<svg width="24" height="24" viewBox="0 0 24 24" fill="none" xmlns="http://www.w3.org/2000/svg">
<path d="M8.10999 17.51C7.69999 17.51 7.35999 17.17 7.35999 16.76V8.69C7.35999 8.28 7.69999 7.94 8.10999 7.94C8.51999 7.94 8.85999 8.28 8.85999 8.69V16.76C8.85999 17.17 8.51999 17.51 8.10999 17.51Z" fill="#4F4F4F"/>
<path d="M3.75 17.51C3.34 17.51 3 17.17 3 16.76V8.69C3 8.28 3.34 7.94 3.75 7.94C4.16 7.94 4.5 8.27 4.5 8.69V16.76C4.5 17.17 4.17 17.51 3.75 17.51Z" fill="#4F4F4F"/>
<path d="M9.75 20.51H1.75C1.34 20.51 1 20.17 1 19.76V18.76C1 18.64 1.03 18.53 1.08 18.42L2.08 16.42C2.21 16.17 2.47 16.01 2.75 16.01H8.75C9.16 16.01 9.5 16.35 9.5 16.76C9.5 17.17 9.16 17.51 8.75 17.51H3.21L2.5 19.01H9.75C10.16 19.01 10.5 19.35 10.5 19.76C10.5 20.17 10.17 20.51 9.75 20.51Z" fill="#4F4F4F"/>
<path d="M16.75 22.51C16.3 22.51 15.86 22.37 15.49 22.09L14.78 21.54L13.89 21.42C12.96 21.3 12.22 20.56 12.1 19.63L11.98 18.74L11.44 18.03C10.87 17.28 10.87 16.24 11.44 15.5L11.98 14.79L12.1 13.9C12.22 12.97 12.96 12.23 13.89 12.11L14.78 11.99L15.49 11.45C16.24 10.88 17.28 10.88 18.02 11.45L18.73 11.99L19.62 12.11C20.55 12.23 21.29 12.97 21.41 13.9L21.53 14.79L22.07 15.5C22.64 16.25 22.64 17.29 22.07 18.03L21.53 18.74L21.41 19.63C21.29 20.56 20.55 21.3 19.62 21.42L18.73 21.54L18.02 22.08C17.65 22.36 17.2 22.51 16.75 22.51ZM13.58 19.43C13.61 19.69 13.82 19.9 14.08 19.93L15.17 20.08C15.3 20.1 15.42 20.15 15.53 20.23L16.4 20.9C16.61 21.06 16.9 21.06 17.11 20.9L17.98 20.24C18.08 20.16 18.21 20.11 18.34 20.09L19.43 19.95C19.69 19.92 19.9 19.71 19.93 19.45L20.08 18.36C20.1 18.23 20.15 18.11 20.23 18L20.9 17.13C21.06 16.92 21.06 16.63 20.9 16.42L20.23 15.55C20.15 15.45 20.1 15.32 20.08 15.19L19.94 14.1C19.91 13.84 19.7 13.63 19.44 13.6L18.35 13.45C18.22 13.43 18.1 13.38 17.99 13.3L17.12 12.63C16.91 12.47 16.62 12.47 16.41 12.63L15.54 13.3C15.44 13.38 15.31 13.43 15.18 13.45L14.09 13.59C13.83 13.62 13.62 13.83 13.59 14.09L13.44 15.18C13.42 15.31 13.37 15.43 13.29 15.54L12.62 16.41C12.46 16.62 12.46 16.91 12.62 17.12L13.29 17.99C13.37 18.09 13.42 18.22 13.44 18.35L13.58 19.43Z" fill="#4F4F4F"/>
<path d="M16.37 18.67C16.17 18.67 15.98 18.59 15.84 18.45L14.67 17.28C14.38 16.99 14.38 16.51 14.67 16.22C14.96 15.93 15.44 15.93 15.73 16.22L16.37 16.86L17.79 15.44C18.08 15.15 18.56 15.15 18.85 15.44C19.14 15.73 19.14 16.21 18.85 16.5L16.9 18.45C16.76 18.6 16.57 18.67 16.37 18.67Z" fill="#4F4F4F"/>
<path d="M19.76 9.44H1.75C1.34 9.44 1 9.1 1 8.69V5.68C1 5.38 1.18 5.11 1.45 4.99L10.45 1.06C10.64 0.98 10.86 0.98 11.05 1.06L20.05 4.99C20.32 5.11 20.5 5.38 20.5 5.68V8.69C20.51 9.1 20.17 9.44 19.76 9.44ZM2.5 7.94H19.01V6.17L10.76 2.57L2.5 6.17V7.94Z" fill="#4F4F4F"/>
</svg>
