<svg width="24" height="24" viewBox="0 0 24 24" fill="none" xmlns="http://www.w3.org/2000/svg">
<path d="M15.75 14H7.75C5.14 14 3 16.14 3 18.75V19.75C3 20.71 3.79 21.5 4.75 21.5H18.75C19.71 21.5 20.5 20.71 20.5 19.75V18.75C20.5 16.14 18.36 14 15.75 14ZM18.75 20H4.75C4.61 20 4.5 19.89 4.5 19.75V18.75C4.5 16.96 5.96 15.5 7.75 15.5H15.75C17.54 15.5 19 16.96 19 18.75V19.75C19 19.89 18.89 20 18.75 20Z" fill="#4F4F4F"/>
<path d="M11.75 12.5C14.64 12.5 16.98 10.11 16.98 7.23C16.98 4.35 14.63 2 11.75 2C8.86002 2 6.52002 4.39 6.52002 7.27C6.52002 10.15 8.87002 12.5 11.75 12.5ZM11.75 3.5C13.8 3.5 15.48 5.18 15.48 7.23C15.48 9.29 13.8 11 11.75 11C9.70002 11 8.02002 9.32 8.02002 7.27C8.02002 5.21 9.70002 3.5 11.75 3.5Z" fill="#4F4F4F"/>
</svg>
