<svg width="24" height="24" viewBox="0 0 24 24" fill="none" xmlns="http://www.w3.org/2000/svg">
<path fill-rule="evenodd" clip-rule="evenodd" d="M6.99821 8.24844C6.99821 5.48604 9.23758 3.24667 12 3.24667C14.7624 3.24667 17.0018 5.48604 17.0018 8.24844C17.0018 11.0108 14.7624 13.2502 12 13.2502C9.23758 13.2502 6.99821 11.0108 6.99821 8.24844ZM12 4.74667C10.066 4.74667 8.49821 6.31447 8.49821 8.24844C8.49821 10.1824 10.066 11.7502 12 11.7502C13.934 11.7502 15.5018 10.1824 15.5018 8.24844C15.5018 6.31447 13.934 4.74667 12 4.74667Z" fill="#4F4F4F"/>
<path fill-rule="evenodd" clip-rule="evenodd" d="M8.49852 16.2515C6.4267 16.2515 4.74664 17.9315 4.74664 20.0033C4.74664 20.4175 4.41086 20.7533 3.99664 20.7533C3.58243 20.7533 3.24664 20.4175 3.24664 20.0033C3.24664 17.1031 5.59827 14.7515 8.49852 14.7515H11.0826C11.4968 14.7515 11.8326 15.0872 11.8326 15.5015C11.8326 15.9157 11.4968 16.2515 11.0826 16.2515H8.49852Z" fill="#4F4F4F"/>
<path fill-rule="evenodd" clip-rule="evenodd" d="M19.5332 16.4097C19.8261 16.7026 19.8261 17.1775 19.5332 17.4704L16.532 20.4716C16.3913 20.6123 16.2005 20.6913 16.0015 20.6913C15.8026 20.6913 15.6118 20.6122 15.4712 20.4715L13.6714 18.6707C13.3786 18.3778 13.3787 17.9029 13.6717 17.6101C13.9647 17.3173 14.4396 17.3174 14.7324 17.6104L16.0018 18.8805L18.4726 16.4097C18.7655 16.1168 19.2403 16.1168 19.5332 16.4097Z" fill="#4F4F4F"/>
</svg>
