<svg width="24" height="24" viewBox="0 0 24 24" fill="none" xmlns="http://www.w3.org/2000/svg">
<path fill-rule="evenodd" clip-rule="evenodd" d="M11.4468 16.3045C9.40397 16.3045 7.74792 17.9605 7.74792 20.0033C7.74792 20.4175 7.41214 20.7533 6.99792 20.7533C6.58371 20.7533 6.24792 20.4175 6.24792 20.0033C6.24792 17.1321 8.57554 14.8045 11.4468 14.8045H16.5549C19.4261 14.8045 21.7538 17.1321 21.7538 20.0033C21.7538 20.4175 21.418 20.7533 21.0038 20.7533C20.5895 20.7533 20.2538 20.4175 20.2538 20.0033C20.2538 17.9605 18.5977 16.3045 16.5549 16.3045H11.4468Z" fill="#4F4F4F"/>
<path fill-rule="evenodd" clip-rule="evenodd" d="M8.99902 8.24843C8.99902 5.48603 11.2384 3.24666 14.0008 3.24666C16.7632 3.24666 19.0026 5.48603 19.0026 8.24843C19.0026 11.0108 16.7632 13.2502 14.0008 13.2502C11.2384 13.2502 8.99902 11.0108 8.99902 8.24843ZM14.0008 4.74666C12.0668 4.74666 10.499 6.31445 10.499 8.24843C10.499 10.1824 12.0668 11.7502 14.0008 11.7502C15.9348 11.7502 17.5026 10.1824 17.5026 8.24843C17.5026 6.31445 15.9348 4.74666 14.0008 4.74666Z" fill="#4F4F4F"/>
<path fill-rule="evenodd" clip-rule="evenodd" d="M2.55195 10.0551C2.84484 9.76218 3.31971 9.76218 3.61261 10.0551L6.44178 12.8843C6.73468 13.1771 6.73468 13.652 6.44178 13.9449C6.14889 14.2378 5.67402 14.2378 5.38112 13.9449L2.55195 11.1157C2.25905 10.8228 2.25905 10.348 2.55195 10.0551Z" fill="#4F4F4F"/>
<path fill-rule="evenodd" clip-rule="evenodd" d="M6.44178 10.0551C6.73468 10.348 6.73468 10.8228 6.44178 11.1157L3.61261 13.9449C3.31971 14.2378 2.84484 14.2378 2.55195 13.9449C2.25905 13.652 2.25905 13.1771 2.55195 12.8843L5.38112 10.0551C5.67402 9.76218 6.14889 9.76218 6.44178 10.0551Z" fill="#4F4F4F"/>
</svg>
