<svg width="24" height="26" viewBox="0 0 24 26" fill="none" xmlns="http://www.w3.org/2000/svg">
<path fill-rule="evenodd" clip-rule="evenodd" d="M7.85939 4.32446C7.85939 2.31308 9.48993 0.682541 11.5013 0.682541C13.5127 0.682541 15.1432 2.31308 15.1432 4.32446C15.1432 6.33584 13.5127 7.96638 11.5013 7.96638C9.48993 7.96638 7.85939 6.33584 7.85939 4.32446ZM11.5013 2.18254C10.3184 2.18254 9.35939 3.14151 9.35939 4.32446C9.35939 5.50741 10.3184 6.46638 11.5013 6.46638C12.6843 6.46638 13.6432 5.50741 13.6432 4.32446C13.6432 3.14151 12.6843 2.18254 11.5013 2.18254Z" fill="#4F4F4F"/>
<path fill-rule="evenodd" clip-rule="evenodd" d="M6.25281 11.7149C6.25281 10.5912 7.16441 9.67964 8.28811 9.67964H14.7146C15.8383 9.67964 16.7499 10.5912 16.7499 11.7149V16.1685C16.7499 16.8477 16.4106 17.4848 15.8435 17.8622V17.8622L14.8219 18.5429V23.2826C14.8219 24.4063 13.9103 25.3179 12.7866 25.3179H10.2161C9.09235 25.3179 8.18075 24.4063 8.18075 23.2826V18.5429L7.15926 17.8622V17.8622C6.59233 17.4848 6.25281 16.8475 6.25281 16.1685V11.7149ZM8.28811 11.1796C7.99283 11.1796 7.75281 11.4197 7.75281 11.7149V16.1685C7.75281 16.3479 7.8428 16.5153 7.99027 16.6135L9.34664 17.5173C9.55537 17.6564 9.68075 17.8906 9.68075 18.1414V23.2826C9.68075 23.5779 9.92078 23.8179 10.2161 23.8179H12.7866C13.0819 23.8179 13.3219 23.5779 13.3219 23.2826V18.1414C13.3219 17.8906 13.4473 17.6564 13.6561 17.5173L15.012 16.6137C15.1595 16.5156 15.2499 16.3479 15.2499 16.1685V11.7149C15.2499 11.4197 15.0099 11.1796 14.7146 11.1796H8.28811Z" fill="#4F4F4F"/>
</svg>
