<svg width="24" height="24" viewBox="0 0 24 24" fill="none" xmlns="http://www.w3.org/2000/svg">
<path fill-rule="evenodd" clip-rule="evenodd" d="M5 3.75C4.30921 3.75 3.75 4.30921 3.75 5V7.75C3.75 8.44079 4.30921 9 5 9H7.75C8.44079 9 9 8.44079 9 7.75V5C9 4.30921 8.44079 3.75 7.75 3.75H5ZM2.25 5C2.25 3.48079 3.48079 2.25 5 2.25H7.75C9.26921 2.25 10.5 3.48079 10.5 5V7.75C10.5 9.26921 9.26921 10.5 7.75 10.5H5C3.48079 10.5 2.25 9.26921 2.25 7.75V5Z" fill="#4F4F4F"/>
<path fill-rule="evenodd" clip-rule="evenodd" d="M16.25 3.75C15.5592 3.75 15 4.30921 15 5V7.75C15 8.44079 15.5592 9 16.25 9H19C19.6908 9 20.25 8.44079 20.25 7.75V5C20.25 4.30921 19.6908 3.75 19 3.75H16.25ZM13.5 5C13.5 3.48079 14.7308 2.25 16.25 2.25H19C20.5192 2.25 21.75 3.48079 21.75 5V7.75C21.75 9.26921 20.5192 10.5 19 10.5H16.25C14.7308 10.5 13.5 9.26921 13.5 7.75V5Z" fill="#4F4F4F"/>
<path fill-rule="evenodd" clip-rule="evenodd" d="M5 15C4.30921 15 3.75 15.5592 3.75 16.25V19C3.75 19.6908 4.30921 20.25 5 20.25H7.75C8.44079 20.25 9 19.6908 9 19V16.25C9 15.5592 8.44079 15 7.75 15H5ZM2.25 16.25C2.25 14.7308 3.48079 13.5 5 13.5H7.75C9.26921 13.5 10.5 14.7308 10.5 16.25V19C10.5 20.5192 9.26921 21.75 7.75 21.75H5C3.48079 21.75 2.25 20.5192 2.25 19V16.25Z" fill="#4F4F4F"/>
<path fill-rule="evenodd" clip-rule="evenodd" d="M16.25 15C15.5592 15 15 15.5592 15 16.25V19C15 19.6908 15.5592 20.25 16.25 20.25H19C19.6908 20.25 20.25 19.6908 20.25 19V16.25C20.25 15.5592 19.6908 15 19 15H16.25ZM13.5 16.25C13.5 14.7308 14.7308 13.5 16.25 13.5H19C20.5192 13.5 21.75 14.7308 21.75 16.25V19C21.75 20.5192 20.5192 21.75 19 21.75H16.25C14.7308 21.75 13.5 20.5192 13.5 19V16.25Z" fill="#4F4F4F"/>
</svg>
