<svg width="24" height="24" viewBox="0 0 24 24" fill="none" xmlns="http://www.w3.org/2000/svg">
<path fill-rule="evenodd" clip-rule="evenodd" d="M12.01 2.28C12.4242 2.28 12.76 2.61579 12.76 3.03V21C12.76 21.4142 12.4242 21.75 12.01 21.75C11.5958 21.75 11.26 21.4142 11.26 21V3.03C11.26 2.61579 11.5958 2.28 12.01 2.28Z" fill="#4F4F4F"/>
<path fill-rule="evenodd" clip-rule="evenodd" d="M11.25 10.22C11.25 9.80579 11.5858 9.47 12 9.47H21C21.4142 9.47 21.75 9.80579 21.75 10.22C21.75 10.6342 21.4142 10.97 21 10.97H12C11.5858 10.97 11.25 10.6342 11.25 10.22Z" fill="#4F4F4F"/>
<path fill-rule="evenodd" clip-rule="evenodd" d="M2.27 14.72C2.27 14.3058 2.60579 13.97 3.02 13.97H12.01C12.4242 13.97 12.76 14.3058 12.76 14.72C12.76 15.1342 12.4242 15.47 12.01 15.47H3.02C2.60579 15.47 2.27 15.1342 2.27 14.72Z" fill="#4F4F4F"/>
<path fill-rule="evenodd" clip-rule="evenodd" d="M5 3.75C4.30921 3.75 3.75 4.30921 3.75 5V19C3.75 19.6908 4.30921 20.25 5 20.25H19C19.6908 20.25 20.25 19.6908 20.25 19V5C20.25 4.30921 19.6908 3.75 19 3.75H5ZM2.25 5C2.25 3.48079 3.48079 2.25 5 2.25H19C20.5192 2.25 21.75 3.48079 21.75 5V19C21.75 20.5192 20.5192 21.75 19 21.75H5C3.48079 21.75 2.25 20.5192 2.25 19V5Z" fill="#4F4F4F"/>
</svg>
