<svg width="24" height="24" viewBox="0 0 24 24" fill="none" xmlns="http://www.w3.org/2000/svg">
<path fill-rule="evenodd" clip-rule="evenodd" d="M15.3603 8.63967C15.6532 8.93256 15.6532 9.40744 15.3603 9.70033L9.70033 15.3603C9.40744 15.6532 8.93256 15.6532 8.63967 15.3603C8.34678 15.0674 8.34678 14.5926 8.63967 14.2997L14.2997 8.63967C14.5926 8.34678 15.0674 8.34678 15.3603 8.63967Z" fill="#4F4F4F"/>
<path fill-rule="evenodd" clip-rule="evenodd" d="M8.63967 8.63967C8.93256 8.34678 9.40744 8.34678 9.70033 8.63967L15.3603 14.2997C15.6532 14.5926 15.6532 15.0674 15.3603 15.3603C15.0674 15.6532 14.5926 15.6532 14.2997 15.3603L8.63967 9.70033C8.34678 9.40744 8.34678 8.93256 8.63967 8.63967Z" fill="#4F4F4F"/>
<path fill-rule="evenodd" clip-rule="evenodd" d="M12 3.75C7.44321 3.75 3.75 7.44321 3.75 12C3.75 16.5568 7.44321 20.25 12 20.25C16.5568 20.25 20.25 16.5568 20.25 12C20.25 7.44321 16.5568 3.75 12 3.75ZM2.25 12C2.25 6.61479 6.61479 2.25 12 2.25C17.3852 2.25 21.75 6.61479 21.75 12C21.75 17.3852 17.3852 21.75 12 21.75C6.61479 21.75 2.25 17.3852 2.25 12Z" fill="#4F4F4F"/>
</svg>
