<svg width="24" height="24" viewBox="0 0 24 24" fill="none" xmlns="http://www.w3.org/2000/svg">
<path fill-rule="evenodd" clip-rule="evenodd" d="M2.25 15C2.25 14.5858 2.58579 14.25 3 14.25H7.382C8.04505 14.25 8.65105 14.6245 8.94709 15.2181V15.2181L9.39342 16.1108V16.1108C9.43657 16.1967 9.52353 16.25 9.618 16.25H14.382C14.4769 16.25 14.5628 16.1966 14.6048 16.1124L15.0522 15.2176C15.3491 14.6256 15.9545 14.25 16.618 14.25H21C21.4142 14.25 21.75 14.5858 21.75 15C21.75 15.4142 21.4142 15.75 21 15.75H16.618C16.5236 15.75 16.4367 15.8031 16.3935 15.889V15.889L15.9472 16.7816V16.7816C15.6512 17.3752 15.045 17.75 14.382 17.75H9.618C8.95453 17.75 8.34946 17.3752 8.05258 16.7832L7.60518 15.8884C7.56318 15.8042 7.47686 15.75 7.382 15.75H3C2.58579 15.75 2.25 15.4142 2.25 15Z" fill="#4F4F4F"/>
<path fill-rule="evenodd" clip-rule="evenodd" d="M5 3.75C4.30921 3.75 3.75 4.30921 3.75 5V19C3.75 19.6908 4.30921 20.25 5 20.25H19C19.6908 20.25 20.25 19.6908 20.25 19V5C20.25 4.30921 19.6908 3.75 19 3.75H17C16.5858 3.75 16.25 3.41421 16.25 3C16.25 2.58579 16.5858 2.25 17 2.25H19C20.5192 2.25 21.75 3.48079 21.75 5V19C21.75 20.5192 20.5192 21.75 19 21.75H5C3.48079 21.75 2.25 20.5192 2.25 19V5C2.25 3.48079 3.48079 2.25 5 2.25H7C7.41421 2.25 7.75 2.58579 7.75 3C7.75 3.41421 7.41421 3.75 7 3.75H5Z" fill="#4F4F4F"/>
<path fill-rule="evenodd" clip-rule="evenodd" d="M12.01 2.25C12.4242 2.25 12.76 2.58579 12.76 3V12C12.76 12.4142 12.4242 12.75 12.01 12.75C11.5958 12.75 11.26 12.4142 11.26 12V3C11.26 2.58579 11.5958 2.25 12.01 2.25Z" fill="#4F4F4F"/>
<path fill-rule="evenodd" clip-rule="evenodd" d="M7.87867 7.87867C8.17156 7.58578 8.64644 7.58578 8.93933 7.87867L12 10.9393L15.0607 7.87867C15.3536 7.58578 15.8284 7.58578 16.1213 7.87867C16.4142 8.17156 16.4142 8.64644 16.1213 8.93933L12.5303 12.5303C12.2374 12.8232 11.7626 12.8232 11.4697 12.5303L7.87867 8.93933C7.58578 8.64644 7.58578 8.17156 7.87867 7.87867Z" fill="#4F4F4F"/>
</svg>
