<svg width="24" height="24" viewBox="0 0 24 24" fill="none" xmlns="http://www.w3.org/2000/svg">
<path fill-rule="evenodd" clip-rule="evenodd" d="M2.25 5.00298C2.25 2.84247 4.62623 1.52712 6.45733 2.67087L10.457 5.17067C11.262 5.67296 11.75 6.55472 11.75 7.50298V18.998C11.75 21.157 9.37404 22.4742 7.5425 21.329V21.329L3.54299 18.8293C2.73826 18.327 2.25 17.445 2.25 16.497V5.00298ZM5.6625 3.94298C4.82962 3.42292 3.75 4.02155 3.75 5.00298V16.497C3.75 16.9287 3.97204 17.329 4.33701 17.5567L8.3375 20.057C9.16994 20.5776 10.25 19.9788 10.25 18.998V7.50298C10.25 7.07123 10.028 6.671 9.66299 6.44328L5.6625 3.94298V3.94298Z" fill="#4F4F4F"/>
<path fill-rule="evenodd" clip-rule="evenodd" d="M14.25 11C14.25 10.5858 14.5858 10.25 15 10.25H21C21.4142 10.25 21.75 10.5858 21.75 11C21.75 11.4142 21.4142 11.75 21 11.75H15C14.5858 11.75 14.25 11.4142 14.25 11Z" fill="#4F4F4F"/>
<path fill-rule="evenodd" clip-rule="evenodd" d="M17.5303 8.46965C17.8232 8.76254 17.8232 9.23742 17.5303 9.53031L16.0607 11L17.5303 12.4696C17.8232 12.7625 17.8232 13.2374 17.5303 13.5303C17.2374 13.8232 16.7626 13.8232 16.4697 13.5303L14.4697 11.5303C14.1768 11.2374 14.1768 10.7625 14.4697 10.4696L16.4697 8.46965C16.7626 8.17676 17.2374 8.17676 17.5303 8.46965Z" fill="#4F4F4F"/>
<path fill-rule="evenodd" clip-rule="evenodd" d="M17 15.25C17.4142 15.25 17.75 15.5858 17.75 16V17C17.75 18.5192 16.5192 19.75 15 19.75H11C10.5858 19.75 10.25 19.4142 10.25 19C10.25 18.5858 10.5858 18.25 11 18.25H15C15.6908 18.25 16.25 17.6908 16.25 17V16C16.25 15.5858 16.5858 15.25 17 15.25Z" fill="#4F4F4F"/>
<path fill-rule="evenodd" clip-rule="evenodd" d="M4.25 2.99998C4.25 2.58577 4.58579 2.24998 5 2.24998H15C16.5192 2.24998 17.75 3.48077 17.75 4.99998V5.99998C17.75 6.41419 17.4142 6.74998 17 6.74998C16.5858 6.74998 16.25 6.41419 16.25 5.99998V4.99998C16.25 4.30919 15.6908 3.74998 15 3.74998H5C4.58579 3.74998 4.25 3.41419 4.25 2.99998Z" fill="#4F4F4F"/>
</svg>
