<svg width="24" height="24" viewBox="0 0 24 24" fill="none" xmlns="http://www.w3.org/2000/svg">
<path fill-rule="evenodd" clip-rule="evenodd" d="M3 4.5C3 3.94772 3.44772 3.5 4 3.5L20 3.5C20.5523 3.5 21 3.94772 21 4.5C21 5.05228 20.5523 5.5 20 5.5H4C3.44772 5.5 3 5.05228 3 4.5Z" fill="#303F4E"/>
<path fill-rule="evenodd" clip-rule="evenodd" d="M3 9.5C3 8.94772 3.44772 8.5 4 8.5H20C20.5523 8.5 21 8.94772 21 9.5C21 10.0523 20.5523 10.5 20 10.5H4C3.44772 10.5 3 10.0523 3 9.5Z" fill="#303F4E"/>
<path fill-rule="evenodd" clip-rule="evenodd" d="M3 14.5C3 13.9477 3.44772 13.5 4 13.5H20C20.5523 13.5 21 13.9477 21 14.5C21 15.0523 20.5523 15.5 20 15.5H4C3.44772 15.5 3 15.0523 3 14.5Z" fill="#303F4E"/>
<path fill-rule="evenodd" clip-rule="evenodd" d="M3 19.5C3 18.9477 3.44772 18.5 4 18.5H20C20.5523 18.5 21 18.9477 21 19.5C21 20.0523 20.5523 20.5 20 20.5H4C3.44772 20.5 3 20.0523 3 19.5Z" fill="#303F4E"/>
</svg>
