<svg width="24" height="24" viewBox="0 0 24 24" fill="none" xmlns="http://www.w3.org/2000/svg">
<path fill-rule="evenodd" clip-rule="evenodd" d="M5 3.75C4.30921 3.75 3.75 4.30921 3.75 5V19C3.75 19.6908 4.30921 20.25 5 20.25H19C19.6908 20.25 20.25 19.6908 20.25 19V5C20.25 4.30921 19.6908 3.75 19 3.75H5ZM2.25 5C2.25 3.48079 3.48079 2.25 5 2.25H19C20.5192 2.25 21.75 3.48079 21.75 5V19C21.75 20.5192 20.5192 21.75 19 21.75H5C3.48079 21.75 2.25 20.5192 2.25 19V5Z" fill="#4F4F4F"/>
<path fill-rule="evenodd" clip-rule="evenodd" d="M12 2.25C12.4142 2.25 12.75 2.58579 12.75 3V21C12.75 21.4142 12.4142 21.75 12 21.75C11.5858 21.75 11.25 21.4142 11.25 21V3C11.25 2.58579 11.5858 2.25 12 2.25Z" fill="#4F4F4F"/>
<path fill-rule="evenodd" clip-rule="evenodd" d="M2.25 12C2.25 11.5858 2.58579 11.25 3 11.25H21C21.4142 11.25 21.75 11.5858 21.75 12C21.75 12.4142 21.4142 12.75 21 12.75H3C2.58579 12.75 2.25 12.4142 2.25 12Z" fill="#4F4F4F"/>
</svg>
