<svg width="24" height="24" viewBox="0 0 24 24" fill="none" xmlns="http://www.w3.org/2000/svg">
<path fill-rule="evenodd" clip-rule="evenodd" d="M8.3 4.75C5.65379 4.75 3.75 7.2754 3.75 9.76C3.75 10.9685 4.22504 12.1666 5.00418 13.3138C5.78263 14.4599 6.83662 15.5132 7.91982 16.4148C9.00011 17.314 10.0887 18.0454 10.9173 18.5517C11.3311 18.8046 11.6768 18.9993 11.9202 19.1291C11.9484 19.1441 11.975 19.1582 12 19.1713C12.025 19.1582 12.0516 19.1441 12.0798 19.1291C12.3232 18.9993 12.6689 18.8046 13.0827 18.5517C13.9113 18.0454 14.9999 17.314 16.0802 16.4148C17.1634 15.5132 18.2174 14.4599 18.9958 13.3138C19.775 12.1666 20.25 10.9685 20.25 9.76C20.25 7.2754 18.3462 4.75 15.7 4.75C14.162 4.75 13.1633 5.50962 12.5679 6.19985C12.4255 6.36503 12.2181 6.46 12 6.46C11.7819 6.46 11.5745 6.36503 11.4321 6.19985C10.8367 5.50962 9.83802 4.75 8.3 4.75ZM2.25 9.76C2.25 6.6846 4.60621 3.25 8.3 3.25C9.96494 3.25 11.1777 3.91527 12 4.64403C12.8223 3.91527 14.0351 3.25 15.7 3.25C19.3938 3.25 21.75 6.6846 21.75 9.76C21.75 11.3665 21.12 12.8559 20.2367 14.1565C19.3526 15.4582 18.1866 16.6131 17.0398 17.5677C15.8901 18.5247 14.7387 19.2977 13.8648 19.8317C13.4274 20.099 13.0562 20.3084 12.7855 20.4527C12.6508 20.5246 12.5373 20.5822 12.4508 20.6236C12.4086 20.6438 12.3661 20.6633 12.3275 20.6793C12.3092 20.6869 12.2824 20.6976 12.2523 20.7077C12.2374 20.7127 12.213 20.7205 12.183 20.7278L12.1825 20.7279C12.1634 20.7326 12.092 20.75 12 20.75C11.908 20.75 11.8366 20.7326 11.8175 20.7279L11.817 20.7278C11.787 20.7205 11.7626 20.7127 11.7477 20.7077C11.7176 20.6976 11.6908 20.6869 11.6725 20.6793C11.6339 20.6633 11.5914 20.6438 11.5492 20.6236C11.4627 20.5822 11.3492 20.5246 11.2145 20.4527C10.9438 20.3084 10.5726 20.099 10.1352 19.8317C9.26131 19.2977 8.10989 18.5247 6.96018 17.5677C5.81338 16.6131 4.64737 15.4582 3.76332 14.1565C2.87996 12.8559 2.25 11.3665 2.25 9.76Z" fill="#4F4F4F"/>
</svg>
