<svg width="24" height="24" viewBox="0 0 24 24" fill="none" xmlns="http://www.w3.org/2000/svg">
<path fill-rule="evenodd" clip-rule="evenodd" d="M11.9964 10.874L12 10.874C12.6212 10.874 13.125 11.3778 13.125 11.999C13.125 12.619 12.6232 13.122 12.0036 13.124C11.377 13.128 10.875 12.6196 10.875 12.001C10.875 11.3794 11.3774 10.877 11.9964 10.874Z" fill="#4F4F4F"/>
<path fill-rule="evenodd" clip-rule="evenodd" d="M11.9964 6.87398L12 6.87396C12.6212 6.87397 13.125 7.37776 13.125 7.99897C13.125 8.61898 12.6232 9.12201 12.0036 9.12397C11.377 9.12805 10.875 8.61958 10.875 8.00097C10.875 7.37936 11.3774 6.87697 11.9964 6.87398Z" fill="#4F4F4F"/>
<path fill-rule="evenodd" clip-rule="evenodd" d="M11.9964 14.874L12 14.874C12.6212 14.874 13.125 15.3778 13.125 15.999C13.125 16.619 12.6232 17.122 12.0036 17.124C11.377 17.128 10.875 16.6196 10.875 16.001C10.875 15.3794 11.3774 14.877 11.9964 14.874Z" fill="#4F4F4F"/>
<path fill-rule="evenodd" clip-rule="evenodd" d="M7 3.75C5.20521 3.75 3.75 5.20521 3.75 7V17C3.75 18.7948 5.20521 20.25 7 20.25H17C18.7948 20.25 20.25 18.7948 20.25 17V7C20.25 5.20521 18.7948 3.75 17 3.75H7ZM2.25 7C2.25 4.37679 4.37679 2.25 7 2.25H17C19.6232 2.25 21.75 4.37679 21.75 7V17C21.75 19.6232 19.6232 21.75 17 21.75H7C4.37679 21.75 2.25 19.6232 2.25 17V7Z" fill="#4F4F4F"/>
</svg>
