<svg width="24" height="25" viewBox="0 0 24 25" fill="none" xmlns="http://www.w3.org/2000/svg">
<path fill-rule="evenodd" clip-rule="evenodd" d="M5 14.2953V14.2953C3.895 14.2953 3 13.3814 3 12.2531V12.2531C3 11.1248 3.895 10.2109 5 10.2109V10.2109C6.105 10.2109 7 11.1248 7 12.2531V12.2531C7 13.3814 6.105 14.2953 5 14.2953Z" stroke="white" stroke-linecap="round" stroke-linejoin="round"/>
<path fill-rule="evenodd" clip-rule="evenodd" d="M12 14.2953V14.2953C10.895 14.2953 10 13.3814 10 12.2531V12.2531C10 11.1248 10.895 10.2109 12 10.2109V10.2109C13.105 10.2109 14 11.1248 14 12.2531V12.2531C14 13.3814 13.105 14.2953 12 14.2953Z" stroke="white" stroke-linecap="round" stroke-linejoin="round"/>
<path fill-rule="evenodd" clip-rule="evenodd" d="M19 14.2953V14.2953C17.895 14.2953 17 13.3814 17 12.2531V12.2531C17 11.1248 17.895 10.2109 19 10.2109V10.2109C20.105 10.2109 21 11.1248 21 12.2531V12.2531C21 13.3814 20.105 14.2953 19 14.2953Z" stroke="white" stroke-linecap="round" stroke-linejoin="round"/>
<path fill-rule="evenodd" clip-rule="evenodd" d="M5 21.4428V21.4428C3.895 21.4428 3 20.5289 3 19.4006V19.4006C3 18.2723 3.895 17.3584 5 17.3584V17.3584C6.105 17.3584 7 18.2723 7 19.4006V19.4006C7 20.5289 6.105 21.4428 5 21.4428Z" stroke="white" stroke-linecap="round" stroke-linejoin="round"/>
<path fill-rule="evenodd" clip-rule="evenodd" d="M12 21.4428V21.4428C10.895 21.4428 10 20.5289 10 19.4006V19.4006C10 18.2723 10.895 17.3584 12 17.3584V17.3584C13.105 17.3584 14 18.2723 14 19.4006V19.4006C14 20.5289 13.105 21.4428 12 21.4428Z" stroke="white" stroke-linecap="round" stroke-linejoin="round"/>
<path fill-rule="evenodd" clip-rule="evenodd" d="M19 21.4428V21.4428C17.895 21.4428 17 20.5289 17 19.4006V19.4006C17 18.2723 17.895 17.3584 19 17.3584V17.3584C20.105 17.3584 21 18.2723 21 19.4006V19.4006C21 20.5289 20.105 21.4428 19 21.4428Z" stroke="white" stroke-linecap="round" stroke-linejoin="round"/>
<path fill-rule="evenodd" clip-rule="evenodd" d="M5 7.14785V7.14785C3.895 7.14785 3 6.23397 3 5.10566V5.10566C3 3.97735 3.895 3.06348 5 3.06348V3.06348C6.105 3.06348 7 3.97735 7 5.10566V5.10566C7 6.23397 6.105 7.14785 5 7.14785Z" stroke="white" stroke-linecap="round" stroke-linejoin="round"/>
<path fill-rule="evenodd" clip-rule="evenodd" d="M12 7.14785V7.14785C10.895 7.14785 10 6.23397 10 5.10566V5.10566C10 3.97735 10.895 3.06348 12 3.06348V3.06348C13.105 3.06348 14 3.97735 14 5.10566V5.10566C14 6.23397 13.105 7.14785 12 7.14785Z" stroke="white" stroke-linecap="round" stroke-linejoin="round"/>
<path fill-rule="evenodd" clip-rule="evenodd" d="M19 7.14785V7.14785C17.895 7.14785 17 6.23397 17 5.10566V5.10566C17 3.97735 17.895 3.06348 19 3.06348V3.06348C20.105 3.06348 21 3.97735 21 5.10566V5.10566C21 6.23397 20.105 7.14785 19 7.14785Z" stroke="white" stroke-linecap="round" stroke-linejoin="round"/>
</svg>
