<svg width="24" height="16" viewBox="0 0 24 16" fill="none" xmlns="http://www.w3.org/2000/svg">
<path d="M20.7923 5.52352C21.5824 6.31355 21.5824 7.59444 20.7923 8.38447C20.0023 9.1745 18.7214 9.1745 17.9314 8.38447C17.1414 7.59444 17.1414 6.31355 17.9314 5.52352C18.7214 4.73349 20.0023 4.73349 20.7923 5.52352" stroke="#757F88" stroke-width="1.5" stroke-linecap="round" stroke-linejoin="round"/>
<path d="M14.2024 1.91236C15.4189 3.12884 15.4189 5.10115 14.2024 6.31764C12.9859 7.53412 11.0136 7.53412 9.79713 6.31764C8.58065 5.10116 8.58065 3.12885 9.79713 1.91236C11.0136 0.69588 12.9859 0.69588 14.2024 1.91236" stroke="#757F88" stroke-width="1.5" stroke-linecap="round" stroke-linejoin="round"/>
<path d="M6.06871 5.52352C6.85874 6.31355 6.85874 7.59444 6.06871 8.38447C5.27868 9.1745 3.99779 9.1745 3.20776 8.38447C2.41773 7.59444 2.41773 6.31355 3.20776 5.52352C3.99779 4.73349 5.27868 4.73349 6.06871 5.52352" stroke="#757F88" stroke-width="1.5" stroke-linecap="round" stroke-linejoin="round"/>
<path d="M23.0002 15V13.904C23.0002 12.523 21.8812 11.404 20.5002 11.404H19.6992" stroke="#757F88" stroke-width="1.5" stroke-linecap="round" stroke-linejoin="round"/>
<path d="M1 15V13.904C1 12.523 2.119 11.404 3.5 11.404H4.301" stroke="#757F88" stroke-width="1.5" stroke-linecap="round" stroke-linejoin="round"/>
<path d="M17.3392 15V13.399C17.3392 11.466 15.7722 9.89899 13.8392 9.89899H10.1602C8.22716 9.89899 6.66016 11.466 6.66016 13.399V15" stroke="#757F88" stroke-width="1.5" stroke-linecap="round" stroke-linejoin="round"/>
</svg>
