<svg width="14" height="18" viewBox="0 0 14 18" fill="none" xmlns="http://www.w3.org/2000/svg">
<path d="M7 17V12" stroke="#757F88" stroke-width="1.5" stroke-linecap="round" stroke-linejoin="round"/>
<path fill-rule="evenodd" clip-rule="evenodd" d="M1.99 12H12.01C12.557 12 13 11.557 13 11.01V11.01C13 10.69 12.846 10.39 12.585 10.204L9.5 8V5L12.055 3.297C12.333 3.111 12.5 2.799 12.5 2.465V2C12.5 1.448 12.052 1 11.5 1H2.5C1.948 1 1.5 1.448 1.5 2V2.465C1.5 2.799 1.667 3.112 1.945 3.297L4.5 5V8L1.415 10.204C1.154 10.39 1 10.69 1 11.01V11.01C1 11.557 1.443 12 1.99 12V12Z" stroke="#757F88" stroke-width="1.5" stroke-linecap="round" stroke-linejoin="round"/>
</svg>
