<svg width="24" height="24" viewBox="0 0 24 24" fill="none" xmlns="http://www.w3.org/2000/svg">
<path fill-rule="evenodd" clip-rule="evenodd" d="M6 4.75C5.30921 4.75 4.75 5.30921 4.75 6V18C4.75 18.6908 5.30921 19.25 6 19.25H18C18.6908 19.25 19.25 18.6908 19.25 18V6C19.25 5.30921 18.6908 4.75 18 4.75H6ZM3.25 6C3.25 4.48079 4.48079 3.25 6 3.25H18C19.5192 3.25 20.75 4.48079 20.75 6V18C20.75 19.5192 19.5192 20.75 18 20.75H6C4.48079 20.75 3.25 19.5192 3.25 18V6Z" fill="#4F4F4F"/>
<path fill-rule="evenodd" clip-rule="evenodd" d="M12 7.25C12.4142 7.25 12.75 7.58579 12.75 8V16C12.75 16.4142 12.4142 16.75 12 16.75C11.5858 16.75 11.25 16.4142 11.25 16V8C11.25 7.58579 11.5858 7.25 12 7.25Z" fill="#4F4F4F"/>
<path fill-rule="evenodd" clip-rule="evenodd" d="M7.25 12C7.25 11.5858 7.58579 11.25 8 11.25H16C16.4142 11.25 16.75 11.5858 16.75 12C16.75 12.4142 16.4142 12.75 16 12.75H8C7.58579 12.75 7.25 12.4142 7.25 12Z" fill="#4F4F4F"/>
</svg>
