<svg width="24" height="24" viewBox="0 0 24 24" fill="none" xmlns="http://www.w3.org/2000/svg">
<path fill-rule="evenodd" clip-rule="evenodd" d="M8 3.75C7.86221 3.75 7.75 3.86221 7.75 4V8C7.75 8.41421 7.41421 8.75 7 8.75C6.58579 8.75 6.25 8.41421 6.25 8V4C6.25 3.03379 7.03379 2.25 8 2.25H16C16.9662 2.25 17.75 3.03379 17.75 4V8C17.75 8.41421 17.4142 8.75 17 8.75C16.5858 8.75 16.25 8.41421 16.25 8V4C16.25 3.86221 16.1378 3.75 16 3.75H8Z" fill="#4F4F4F"/>
<path fill-rule="evenodd" clip-rule="evenodd" d="M5 8.75C4.30921 8.75 3.75 9.30921 3.75 10V15C3.75 15.6908 4.30921 16.25 5 16.25H7C7.41421 16.25 7.75 16.5858 7.75 17C7.75 17.4142 7.41421 17.75 7 17.75H5C3.48079 17.75 2.25 16.5192 2.25 15V10C2.25 8.48079 3.48079 7.25 5 7.25H19C20.5192 7.25 21.75 8.48079 21.75 10V15C21.75 16.5192 20.5192 17.75 19 17.75H17C16.5858 17.75 16.25 17.4142 16.25 17C16.25 16.5858 16.5858 16.25 17 16.25H19C19.6908 16.25 20.25 15.6908 20.25 15V10C20.25 9.30921 19.6908 8.75 19 8.75H5Z" fill="#4F4F4F"/>
<path fill-rule="evenodd" clip-rule="evenodd" d="M6.25 13.8C6.25 13.3858 6.58579 13.05 7 13.05H17C17.4142 13.05 17.75 13.3858 17.75 13.8V20C17.75 20.9662 16.9662 21.75 16 21.75H8C7.03379 21.75 6.25 20.9662 6.25 20V13.8ZM7.75 14.55V20C7.75 20.1378 7.86221 20.25 8 20.25H16C16.1378 20.25 16.25 20.1378 16.25 20V14.55H7.75Z" fill="#4F4F4F"/>
<path fill-rule="evenodd" clip-rule="evenodd" d="M6.25 11C6.25 10.5858 6.58579 10.25 7 10.25H8C8.41421 10.25 8.75 10.5858 8.75 11C8.75 11.4142 8.41421 11.75 8 11.75H7C6.58579 11.75 6.25 11.4142 6.25 11Z" fill="#4F4F4F"/>
</svg>
