<svg width="24" height="24" viewBox="0 0 24 24" fill="none" xmlns="http://www.w3.org/2000/svg">
<path fill-rule="evenodd" clip-rule="evenodd" d="M20.4761 9.001C20.6751 9.00103 20.8659 9.08011 21.0065 9.22083L22.6935 10.9088C22.9863 11.2018 22.9862 11.6767 22.6932 11.9695C22.4002 12.2623 21.9253 12.2622 21.6325 11.9692L20.4758 10.8118L19.3183 11.9693C19.0254 12.2622 18.5506 12.2622 18.2577 11.9693C17.9648 11.6764 17.9648 11.2016 18.2577 10.9087L19.9457 9.22067C20.0864 9.07999 20.2772 9.00097 20.4761 9.001Z" fill="#4F4F4F"/>
<path fill-rule="evenodd" clip-rule="evenodd" d="M11.475 3.75C6.91822 3.75 3.22501 7.44321 3.22501 12C3.22501 16.5568 6.91822 20.25 11.475 20.25C16.0319 20.25 19.725 16.5577 19.725 12.001V9.751C19.725 9.33679 20.0608 9.001 20.475 9.001C20.8892 9.001 21.225 9.33679 21.225 9.751V12.001C21.225 17.3863 16.8601 21.75 11.475 21.75C6.08979 21.75 1.72501 17.3852 1.72501 12C1.72501 6.61479 6.08979 2.25 11.475 2.25C14.5529 2.25 17.2944 3.68055 19.0791 5.90575C19.3382 6.22887 19.2864 6.70091 18.9633 6.96007C18.6401 7.21923 18.1681 7.16737 17.9089 6.84425C16.3956 4.95745 14.0771 3.75 11.475 3.75Z" fill="#4F4F4F"/>
<path fill-rule="evenodd" clip-rule="evenodd" d="M11.194 7.235C11.6082 7.235 11.944 7.57079 11.944 7.985V12.2705L15.2295 14.2255C15.5855 14.4373 15.7023 14.8975 15.4905 15.2535C15.2787 15.6095 14.8185 15.7263 14.4625 15.5145L10.8105 13.3415C10.5833 13.2063 10.444 12.9614 10.444 12.697V7.985C10.444 7.57079 10.7798 7.235 11.194 7.235Z" fill="#4F4F4F"/>
</svg>
