<svg width="24" height="24" viewBox="0 0 24 24" fill="none" xmlns="http://www.w3.org/2000/svg">
<path fill-rule="evenodd" clip-rule="evenodd" d="M2.25702 5.0204C2.24602 3.4931 3.48066 2.25 5.007 2.25H16.164C16.8943 2.25 17.593 2.54032 18.1083 3.05567L20.9363 5.88367C21.4518 6.39916 21.742 7.09886 21.742 7.828V19C21.742 20.5192 20.5112 21.75 18.992 21.75H5.111C3.6002 21.75 2.37208 20.5318 2.36102 19.0206V19.0206L2.25702 5.0204ZM3.75698 5.0096V5.0096L3.86098 19.0094C3.86597 19.6961 4.42383 20.25 5.111 20.25H18.992C19.6828 20.25 20.242 19.6908 20.242 19V7.828C20.242 7.49714 20.1102 7.17884 19.8757 6.94433L17.0477 4.11633C16.813 3.88168 16.4957 3.75 16.164 3.75H5.007C4.31336 3.75 3.75201 4.31493 3.75698 5.0096Z" fill="#4F4F4F"/>
<path fill-rule="evenodd" clip-rule="evenodd" d="M7.993 2.25C8.40721 2.25 8.743 2.58579 8.743 3V6.909C8.743 7.04679 8.85521 7.159 8.993 7.159H14.993C15.1308 7.159 15.243 7.04679 15.243 6.909V3C15.243 2.58579 15.5788 2.25 15.993 2.25C16.4072 2.25 16.743 2.58579 16.743 3V6.909C16.743 7.87521 15.9592 8.659 14.993 8.659H8.993C8.02678 8.659 7.243 7.87521 7.243 6.909V3C7.243 2.58579 7.57878 2.25 7.993 2.25Z" fill="#4F4F4F"/>
<path fill-rule="evenodd" clip-rule="evenodd" d="M8.286 12.75C7.99021 12.75 7.75 12.9902 7.75 13.286V21C7.75 21.4142 7.41421 21.75 7 21.75C6.58578 21.75 6.25 21.4142 6.25 21V13.286C6.25 12.1618 7.16178 11.25 8.286 11.25H15.715C16.8386 11.25 17.75 12.1622 17.75 13.286V21C17.75 21.4142 17.4142 21.75 17 21.75C16.5858 21.75 16.25 21.4142 16.25 21V13.286C16.25 12.9898 16.0094 12.75 15.715 12.75H8.286Z" fill="#4F4F4F"/>
</svg>
