<svg width="25" height="24" viewBox="0 0 25 24" fill="none" xmlns="http://www.w3.org/2000/svg">
<path d="M14.2981 9.87868C15.4696 11.0502 15.4696 12.9497 14.2981 14.1213C13.1265 15.2929 11.227 15.2929 10.0554 14.1213C8.88387 12.9497 8.88387 11.0502 10.0554 9.87868C11.227 8.70711 13.1265 8.70711 14.2981 9.87868" stroke="#BFC9DA" stroke-width="1.5" stroke-linecap="round" stroke-linejoin="round"/>
<path fill-rule="evenodd" clip-rule="evenodd" d="M16.3568 18.725V18.725C16.8598 19.228 17.6768 19.228 18.1798 18.725L18.9018 18.003C19.4048 17.5 19.4048 16.683 18.9018 16.18V16.18C18.5198 15.798 18.4078 15.225 18.6178 14.727C18.6398 14.674 18.6618 14.621 18.6828 14.567C18.8658 14.101 19.3198 13.801 19.8198 13.801H19.8868C20.5988 13.801 21.1758 13.224 21.1758 12.512V11.491C21.1758 10.779 20.5988 10.202 19.8868 10.202H19.8198C19.3198 10.202 18.8658 9.901 18.6828 9.436C18.6618 9.382 18.6398 9.329 18.6178 9.276C18.4078 8.778 18.5198 8.205 18.9018 7.823V7.823C19.4048 7.32 19.4048 6.503 18.9018 6L18.1798 5.278C17.6768 4.775 16.8598 4.775 16.3568 5.278V5.278C15.9748 5.66 15.4018 5.772 14.9038 5.562C14.8508 5.54 14.7978 5.518 14.7438 5.497C14.2778 5.311 13.9768 4.856 13.9768 4.356V4.289C13.9768 3.577 13.3998 3 12.6878 3H11.6668C10.9538 3 10.3768 3.577 10.3768 4.289V4.356C10.3768 4.856 10.0758 5.31 9.61076 5.493C9.55676 5.515 9.50376 5.536 9.45076 5.559C8.95276 5.769 8.37976 5.657 7.99776 5.275V5.275C7.49476 4.772 6.67776 4.772 6.17476 5.275L5.45176 5.997C4.94876 6.5 4.94876 7.317 5.45176 7.82V7.82C5.83376 8.202 5.94576 8.775 5.73576 9.273C5.71276 9.327 5.69176 9.38 5.67076 9.434C5.48776 9.899 5.03276 10.2 4.53276 10.2H4.46576C3.75376 10.2 3.17676 10.777 3.17676 11.489V12.51C3.17676 13.223 3.75376 13.8 4.46576 13.8H4.53276C5.03276 13.8 5.48676 14.101 5.66976 14.566C5.69076 14.62 5.71276 14.673 5.73476 14.726C5.94476 15.224 5.83276 15.797 5.45076 16.179V16.179C4.94776 16.682 4.94776 17.499 5.45076 18.002L6.17276 18.724C6.67576 19.227 7.49276 19.227 7.99576 18.724V18.724C8.37776 18.342 8.95076 18.23 9.44876 18.44C9.50176 18.462 9.55476 18.484 9.60876 18.505C10.0748 18.688 10.3748 19.142 10.3748 19.642V19.709C10.3748 20.421 10.9518 20.998 11.6638 20.998H12.6848C13.3968 20.998 13.9738 20.421 13.9738 19.709V19.642C13.9738 19.142 14.2748 18.688 14.7398 18.505C14.7938 18.484 14.8468 18.462 14.8998 18.44C15.4008 18.231 15.9738 18.343 16.3568 18.725V18.725Z" stroke="#BFC9DA" stroke-width="1.5" stroke-linecap="round" stroke-linejoin="round"/>
</svg>
