<svg width="24" height="24" viewBox="0 0 24 24" fill="none" xmlns="http://www.w3.org/2000/svg">
<path fill-rule="evenodd" clip-rule="evenodd" d="M4.36784 6.81968C4.36784 6.81971 4.36784 6.81965 4.36784 6.81968L3.75384 17.8756C3.68187 19.1644 4.70841 20.25 6 20.25H18C19.2913 20.25 20.3184 19.1647 20.2471 17.8744L19.6332 6.81968C19.6332 6.81965 19.6332 6.81971 19.6332 6.81968C19.5372 5.09713 18.1129 3.75 16.388 3.75H7.613C5.88805 3.75 4.46376 5.09713 4.36784 6.81968ZM2.87016 6.73632C3.01028 4.21891 5.09198 2.25 7.613 2.25H16.388C18.909 2.25 20.9907 4.21891 21.1308 6.73632L21.7448 17.7914C21.8636 19.941 20.1527 21.75 18 21.75H6C3.84766 21.75 2.13626 19.9415 2.25615 17.7924C2.25615 17.7923 2.25615 17.7925 2.25615 17.7924L2.87016 6.73632Z" fill="#4F4F4F"/>
<path fill-rule="evenodd" clip-rule="evenodd" d="M8 7C8.41421 7 8.75 7.33579 8.75 7.75C8.75 9.54479 10.2052 11 12 11C13.7948 11 15.25 9.54479 15.25 7.75C15.25 7.33579 15.5858 7 16 7C16.4142 7 16.75 7.33579 16.75 7.75C16.75 10.3732 14.6232 12.5 12 12.5C9.37679 12.5 7.25 10.3732 7.25 7.75C7.25 7.33579 7.58579 7 8 7Z" fill="#4F4F4F"/>
</svg>
