<svg width="24" height="24" viewBox="0 0 24 24" fill="none" xmlns="http://www.w3.org/2000/svg">
<path fill-rule="evenodd" clip-rule="evenodd" d="M11.719 5.986C12.1332 5.986 12.469 6.32179 12.469 6.736V12.6381L17.0252 15.3559C17.3809 15.5681 17.4973 16.0285 17.2851 16.3842C17.0729 16.7399 16.6125 16.8563 16.2568 16.6441L11.3348 13.7081C11.1079 13.5728 10.969 13.3281 10.969 13.064V6.736C10.969 6.32179 11.3048 5.986 11.719 5.986Z" fill="#4F4F4F"/>
<path fill-rule="evenodd" clip-rule="evenodd" d="M17.8337 6.16637C14.6119 2.94454 9.38826 2.94454 6.16643 6.16637C2.94461 9.38818 2.9446 14.6118 6.16643 17.8336C9.38824 21.0554 14.6118 21.0554 17.8337 17.8336C21.0554 14.6119 21.0552 9.38823 17.8337 6.16637C17.8336 6.16625 17.8338 6.16648 17.8337 6.16637ZM18.8943 5.10571C22.7019 8.91332 22.7019 15.0867 18.8943 18.8943C15.0867 22.7019 8.91336 22.7019 5.10577 18.8943C1.29816 15.0867 1.29816 8.9133 5.10577 5.10571C8.91338 1.2981 15.0867 1.2981 18.8943 5.10571Z" fill="#4F4F4F"/>
</svg>
