<svg width="24" height="24" viewBox="0 0 24 24" fill="none" xmlns="http://www.w3.org/2000/svg">
<path fill-rule="evenodd" clip-rule="evenodd" d="M7.49998 3.25C7.91419 3.25 8.24998 3.58579 8.24998 4V7C8.24998 7.41421 7.91419 7.75 7.49998 7.75C7.08576 7.75 6.74998 7.41421 6.74998 7V4C6.74998 3.58579 7.08576 3.25 7.49998 3.25Z" fill="#4F4F4F"/>
<path fill-rule="evenodd" clip-rule="evenodd" d="M16.5 10.25C16.7964 10.25 17.065 10.4245 17.1853 10.6954L21.1853 19.6954C21.3536 20.0739 21.1831 20.5171 20.8046 20.6854C20.4261 20.8536 19.9828 20.6831 19.8146 20.3046L16.5 12.8467L13.1853 20.3046C13.0171 20.6831 12.5739 20.8536 12.1954 20.6854C11.8169 20.5171 11.6464 20.0739 11.8146 19.6954L15.8146 10.6954C15.935 10.4245 16.2036 10.25 16.5 10.25Z" fill="#4F4F4F"/>
<path fill-rule="evenodd" clip-rule="evenodd" d="M12.64 18C12.64 17.5858 12.9758 17.25 13.39 17.25H19.61C20.0242 17.25 20.36 17.5858 20.36 18C20.36 18.4142 20.0242 18.75 19.61 18.75H13.39C12.9758 18.75 12.64 18.4142 12.64 18Z" fill="#4F4F4F"/>
<path fill-rule="evenodd" clip-rule="evenodd" d="M2.75098 7C2.75098 6.58579 3.08676 6.25 3.50098 6.25H11.501C11.7102 6.25 11.9099 6.3374 12.0519 6.49108C12.1939 6.64477 12.2652 6.85077 12.2486 7.05934C11.8945 11.5217 8.0217 15.3946 3.55913 15.7477C3.14621 15.7803 2.78498 15.4721 2.75231 15.0592C2.71964 14.6462 3.0279 14.285 3.44082 14.2523C6.89581 13.979 9.97432 11.1331 10.6415 7.75H3.50098C3.08676 7.75 2.75098 7.41421 2.75098 7Z" fill="#4F4F4F"/>
<path fill-rule="evenodd" clip-rule="evenodd" d="M6.44096 9.25233C6.85389 9.21973 7.21506 9.52805 7.24765 9.94098C7.42063 12.1323 9.36764 14.0793 11.559 14.2523C11.9719 14.2849 12.2802 14.6461 12.2477 15.059C12.2151 15.4719 11.8539 15.7803 11.441 15.7477C8.51431 15.5167 5.98332 12.9857 5.7523 10.059C5.71971 9.64609 6.02803 9.28492 6.44096 9.25233Z" fill="#4F4F4F"/>
</svg>
