<svg width="24" height="24" viewBox="0 0 24 24" fill="none" xmlns="http://www.w3.org/2000/svg">
<path fill-rule="evenodd" clip-rule="evenodd" d="M17.25 6.53001C17.25 6.1158 17.5858 5.78001 18 5.78001H19C19.4142 5.78001 19.75 6.1158 19.75 6.53001C19.75 6.94423 19.4142 7.28001 19 7.28001H18C17.5858 7.28001 17.25 6.94423 17.25 6.53001Z" fill="#4F4F4F"/>
<path fill-rule="evenodd" clip-rule="evenodd" d="M9 9.72002C9.41421 9.72002 9.75 10.0558 9.75 10.47V16.53C9.75 16.9442 9.41421 17.28 9 17.28C8.58579 17.28 8.25 16.9442 8.25 16.53V10.47C8.25 10.0558 8.58579 9.72002 9 9.72002Z" fill="#4F4F4F"/>
<path fill-rule="evenodd" clip-rule="evenodd" d="M12 8.56002C12.4142 8.56002 12.75 8.8958 12.75 9.31002V17.58C12.75 17.9942 12.4142 18.33 12 18.33C11.5858 18.33 11.25 17.9942 11.25 17.58V9.31002C11.25 8.8958 11.5858 8.56002 12 8.56002Z" fill="#4F4F4F"/>
<path fill-rule="evenodd" clip-rule="evenodd" d="M15 9.72002C15.4142 9.72002 15.75 10.0558 15.75 10.47V16.53C15.75 16.9442 15.4142 17.28 15 17.28C14.5858 17.28 14.25 16.9442 14.25 16.53V10.47C14.25 10.0558 14.5858 9.72002 15 9.72002Z" fill="#4F4F4F"/>
<path fill-rule="evenodd" clip-rule="evenodd" d="M5.25 6.52802C5.25 6.1138 5.58579 5.77802 6 5.77802H18C18.4142 5.77802 18.75 6.1138 18.75 6.52802V18.267C18.75 19.8992 17.4272 21.222 15.795 21.222H8.205C6.57279 21.222 5.25 19.8992 5.25 18.267V6.52802ZM6.75 7.27802V18.267C6.75 19.0708 7.40121 19.722 8.205 19.722H15.795C16.5988 19.722 17.25 19.0708 17.25 18.267V7.27802H6.75Z" fill="#4F4F4F"/>
<path fill-rule="evenodd" clip-rule="evenodd" d="M8.0236 3.99469C8.2551 3.26936 8.92935 2.77802 9.69 2.77802H14.31C15.0706 2.77802 15.7436 3.2701 15.9761 3.99362L16.7143 6.29932C16.8406 6.69381 16.6232 7.11599 16.2287 7.2423C15.8342 7.3686 15.412 7.1512 15.2857 6.75671L14.5479 4.45241V4.45241C14.5143 4.34799 14.4174 4.27802 14.31 4.27802H9.69C9.58082 4.27802 9.48521 4.34845 9.45256 4.45085L8.71428 6.75671C8.58798 7.1512 8.16579 7.3686 7.77131 7.2423C7.37682 7.11599 7.15941 6.69381 7.28572 6.29932L8.0236 3.99469V3.99469Z" fill="#4F4F4F"/>
<path fill-rule="evenodd" clip-rule="evenodd" d="M4.25 6.53001C4.25 6.1158 4.58579 5.78001 5 5.78001H6C6.41421 5.78001 6.75 6.1158 6.75 6.53001C6.75 6.94423 6.41421 7.28001 6 7.28001H5C4.58579 7.28001 4.25 6.94423 4.25 6.53001Z" fill="#4F4F4F"/>
</svg>
