<svg width="25" height="24" viewBox="0 0 25 24" fill="none" xmlns="http://www.w3.org/2000/svg">
<path d="M9.88501 18.344V18.709C9.88501 19.974 10.911 21 12.177 21V21C13.443 21 14.469 19.974 14.469 18.708V18.343" stroke="#303F4E" stroke-width="1.5" stroke-linecap="round" stroke-linejoin="round"/>
<path d="M14.01 5.751V4.833C14.01 3.821 13.19 3 12.177 3V3C11.164 3 10.344 3.821 10.344 4.833V5.751" stroke="#303F4E" stroke-width="1.5" stroke-linecap="round" stroke-linejoin="round"/>
<path fill-rule="evenodd" clip-rule="evenodd" d="M6.74 10.188V10.188C6.74 7.68501 8.769 5.65701 11.271 5.65701H13.084C15.587 5.65701 17.615 7.68601 17.615 10.188V10.188V12.985C17.615 13.515 17.826 14.024 18.201 14.399L18.842 15.04C19.217 15.415 19.428 15.924 19.428 16.454V16.454C19.428 17.498 18.582 18.344 17.538 18.344H6.817C5.773 18.344 4.927 17.498 4.927 16.454V16.454C4.927 15.924 5.138 15.415 5.513 15.04L6.154 14.399C6.529 14.024 6.74 13.515 6.74 12.985V10.188Z" stroke="#303F4E" stroke-width="1.5" stroke-linecap="round" stroke-linejoin="round"/>
</svg>
