<svg width="24" height="24" viewBox="0 0 24 24" fill="none" xmlns="http://www.w3.org/2000/svg">
<path d="M11.75 13.66C11.34 13.66 11 13.32 11 12.91V9.17C11 8.76 11.34 8.42 11.75 8.42C12.16 8.42 12.5 8.76 12.5 9.17V12.91C12.5 13.32 12.16 13.66 11.75 13.66Z" fill="#4F4F4F"/>
<path d="M11.75 17.16C11.2 17.16 10.75 16.71 10.75 16.16C10.75 15.9 10.85 15.65 11.04 15.46C11.23 15.27 11.48 15.16 11.75 15.16C12.3 15.16 12.75 15.61 12.75 16.16C12.75 16.71 12.3 17.16 11.75 17.16Z" fill="#4F4F4F"/>
<path d="M19.41 21.58H4.09001C2.98001 21.58 1.98001 21.01 1.42001 20.04C0.860007 19.08 0.860007 17.93 1.41001 16.96L9.07001 3.56C9.63001 2.58 10.63 2 11.75 2C12.87 2 13.87 2.58 14.43 3.56L22.09 16.96C22.64 17.93 22.64 19.08 22.08 20.04C21.52 21 20.52 21.58 19.41 21.58ZM11.75 3.5C11.17 3.5 10.66 3.8 10.37 4.3L2.71001 17.7C2.43001 18.2 2.43001 18.79 2.71001 19.28C2.99001 19.77 3.51001 20.07 4.08001 20.07H19.4C19.97 20.07 20.48 19.77 20.77 19.28C21.06 18.79 21.06 18.19 20.78 17.7L13.13 4.3C12.84 3.8 12.33 3.5 11.75 3.5Z" fill="#4F4F4F"/>
</svg>
