<svg width="522" height="356" viewBox="0 0 522 356" fill="none" xmlns="http://www.w3.org/2000/svg" xmlns:xlink="http://www.w3.org/1999/xlink">
<g opacity="0.12" filter="url(#filter0_f)">
<path d="M492 303.5C492 315.926 388.578 326 261 326C133.422 326 30 315.926 30 303.5C30 291.074 133.422 281 261 281C388.578 281 492 291.074 492 303.5Z" fill="#303F4E"/>
</g>
<g opacity="0.4" filter="url(#filter1_f)">
<path d="M385 297.5C385 304.404 329.483 310 261 310C192.517 310 137 304.404 137 297.5C137 290.596 192.517 285 261 285C329.483 285 385 290.596 385 297.5Z" fill="#303F4E"/>
</g>
<g opacity="0.8" filter="url(#filter2_f)">
<path d="M341 291C341 299.284 305.183 306 261 306C216.817 306 181 299.284 181 291C181 282.716 216.817 276 261 276C305.183 276 341 282.716 341 291Z" fill="#303F4E"/>
</g>
<rect x="105" width="330" height="334" fill="url(#pattern0)"/>
<defs>
<filter id="filter0_f" x="0" y="251" width="522" height="105" filterUnits="userSpaceOnUse" color-interpolation-filters="sRGB">
<feFlood flood-opacity="0" result="BackgroundImageFix"/>
<feBlend mode="normal" in="SourceGraphic" in2="BackgroundImageFix" result="shape"/>
<feGaussianBlur stdDeviation="15" result="effect1_foregroundBlur"/>
</filter>
<filter id="filter1_f" x="122" y="270" width="278" height="55" filterUnits="userSpaceOnUse" color-interpolation-filters="sRGB">
<feFlood flood-opacity="0" result="BackgroundImageFix"/>
<feBlend mode="normal" in="SourceGraphic" in2="BackgroundImageFix" result="shape"/>
<feGaussianBlur stdDeviation="7.5" result="effect1_foregroundBlur"/>
</filter>
<filter id="filter2_f" x="166" y="261" width="190" height="60" filterUnits="userSpaceOnUse" color-interpolation-filters="sRGB">
<feFlood flood-opacity="0" result="BackgroundImageFix"/>
<feBlend mode="normal" in="SourceGraphic" in2="BackgroundImageFix" result="shape"/>
<feGaussianBlur stdDeviation="7.5" result="effect1_foregroundBlur"/>
</filter>
<pattern id="pattern0" patternContentUnits="objectBoundingBox" width="1" height="1">
<use xlink:href="#image0" transform="scale(0.000279174)"/>
</pattern>
</defs>
</svg>
